{"glyphs":{"0":{"ha":892,"x_min":0,"x_max":860,"o":"m 350 1002 l 487 956 q 695 880 597 908 q 789 771 747 846 q 854 479 854 672 q 860 393 854 441 l 860 355 q 771 130 860 270 q 680 54 722 64 q 528 0 607 0 l 492 0 q 421 20 473 0 q 345 54 402 20 q 150 152 237 98 q 71 251 98 197 q 23 360 41 285 q 0 550 7 420 q 28 781 12 781 q 137 939 62 897 q 350 1002 210 1002 m 355 416 q 393 144 355 210 q 477 54 433 71 q 497 51 486 51 l 532 51 q 680 109 592 51 q 766 220 732 144 q 809 350 809 304 q 764 707 809 650 q 695 793 764 735 q 624 822 646 822 q 494 758 583 822 q 404 647 468 758 q 355 416 355 562 m 604 629 q 675 532 654 629 l 675 515 q 637 231 675 233 q 608 220 623 220 l 586 220 q 507 393 517 220 q 505 446 505 422 q 550 608 505 570 q 604 629 581 629 z "},"1":{"ha":770,"x_min":-41,"x_max":709,"o":"m 355 1014 q 505 970 448 993 q 624 924 537 970 q 699 874 699 902 q 702 871 702 874 q 699 836 699 840 q 707 690 699 773 q 709 528 707 637 q 702 406 709 494 q 696 98 696 119 q 497 0 696 44 q 340 90 478 0 q 151 194 267 109 q 138 243 138 236 l 138 473 q 143 520 143 519 q 45 549 138 527 q -41 703 2 549 l -41 716 q 83 830 -41 761 q 241 949 162 894 q 355 1014 296 999 m 329 576 l 329 574 q 363 499 353 509 q 490 551 467 551 q 515 528 515 547 l 515 522 q 503 450 503 498 q 500 362 500 396 q 510 96 500 276 l 510 93 l 508 62 q 515 57 509 62 q 645 114 645 88 q 658 528 645 177 q 647 804 655 755 q 583 755 637 804 q 433 646 504 703 q 329 576 404 636 z "},"2":{"ha":871,"x_min":0,"x_max":833,"o":"m 309 1011 l 329 1011 q 687 882 369 1011 q 782 792 743 860 q 831 612 831 728 q 782 473 827 551 q 751 412 751 431 q 811 382 751 402 q 833 338 830 361 q 811 159 819 258 q 755 90 800 90 q 626 63 722 74 q 458 32 559 44 q 334 0 448 25 q 254 46 323 0 q 170 100 222 63 q 20 185 32 174 q 9 212 9 200 q 66 317 9 238 q 180 482 98 380 l 180 490 q 58 531 166 499 q 3 585 3 548 q 0 721 3 627 q 122 936 10 810 q 309 1011 225 1011 m 338 534 l 338 526 q 346 511 340 511 q 482 531 399 522 q 585 653 482 625 q 646 566 634 653 q 568 416 642 500 q 431 151 508 338 l 385 66 l 385 63 q 500 87 393 63 q 726 129 514 87 q 768 193 768 136 q 780 314 768 241 q 777 317 777 314 q 673 307 715 314 q 650 324 663 307 l 650 334 q 692 399 650 342 q 763 538 692 420 q 782 612 782 595 q 731 782 782 725 q 614 843 699 843 l 609 843 q 482 799 581 843 q 361 677 371 725 q 338 534 338 630 z "},"3":{"ha":884,"x_min":0,"x_max":827,"o":"m 325 1014 q 562 964 562 981 q 729 854 664 906 q 787 791 729 849 q 817 694 817 745 l 817 680 q 779 547 795 547 q 742 492 742 498 q 821 370 775 472 q 827 330 827 341 q 769 147 827 277 q 452 0 685 0 q 310 33 310 18 q 135 160 170 152 q 7 257 10 252 l 5 270 l 5 277 q 83 444 9 323 l 100 450 q 187 437 149 437 q 242 452 218 437 l 242 457 q 160 492 241 460 q 135 532 135 510 l 145 640 q 100 662 145 654 q 47 727 70 672 l 0 871 l 0 876 q 142 986 0 915 q 325 1014 249 1014 m 357 734 l 357 732 q 412 612 399 629 l 414 612 q 554 667 503 667 q 627 594 610 661 l 627 585 q 542 499 627 538 q 490 490 529 492 q 487 484 490 484 q 490 435 490 451 l 490 412 q 494 392 490 401 q 532 395 519 395 l 537 395 q 609 332 609 379 q 507 230 593 230 l 484 230 q 399 242 460 230 q 350 75 389 233 l 347 75 q 422 55 347 60 q 454 50 422 51 q 732 184 671 50 q 772 297 742 195 q 777 330 777 309 l 777 332 q 732 435 777 359 l 684 469 q 677 490 677 485 l 677 502 q 759 640 759 581 q 766 687 766 649 l 766 689 q 664 821 766 783 q 625 831 629 831 l 577 831 q 417 774 492 831 q 357 734 383 764 z "},"4":{"ha":907,"x_min":-34,"x_max":888,"o":"m 452 1020 q 563 968 479 1020 l 722 903 q 766 885 728 903 q 802 815 802 885 l 802 810 l 797 724 q 814 522 797 616 q 888 449 888 485 l 888 444 l 867 236 q 810 208 867 220 q 799 65 799 161 q 766 31 791 31 q 758 34 763 31 q 591 0 652 18 q 543 26 573 0 q 420 88 481 62 q 376 117 404 103 q 317 114 329 114 q 270 153 289 114 q 80 241 201 171 q -31 309 -30 292 l -34 324 q 36 540 -22 376 q 114 804 80 738 q 171 952 151 952 q 423 1017 214 981 q 452 1020 432 1020 m 587 800 l 563 802 q 490 771 490 802 q 408 446 439 614 q 340 192 340 267 q 334 169 336 192 q 350 163 343 163 q 558 189 356 163 q 594 85 589 189 q 602 57 594 57 l 745 85 l 747 91 q 766 247 754 247 q 817 264 773 257 l 820 270 l 820 288 l 830 397 l 825 399 l 804 399 q 763 470 763 399 q 745 716 763 576 l 750 817 q 739 831 747 829 q 587 800 647 810 m 584 638 l 589 638 q 635 480 635 638 q 641 423 641 480 l 641 420 q 615 351 641 351 q 522 340 615 346 q 480 374 480 345 q 532 563 505 506 q 558 631 541 576 q 584 638 571 638 z "},"5":{"ha":899,"x_min":0,"x_max":852,"o":"m 491 1020 q 677 950 503 1020 q 792 907 699 950 q 832 867 817 907 l 832 859 q 797 692 810 787 q 757 656 786 656 q 652 637 652 650 q 732 594 694 594 q 852 439 852 542 l 852 424 q 797 203 852 275 q 689 73 751 126 q 531 7 630 32 q 486 0 514 7 q 291 25 291 0 q 65 163 139 106 q 0 226 0 181 q 58 358 0 268 q 108 429 79 429 q 127 424 123 424 q 153 433 153 429 q 90 509 90 469 q 78 757 90 631 l 78 895 q 118 955 78 946 q 218 972 141 964 q 464 1017 298 1000 q 491 1020 477 1017 m 424 747 l 424 644 q 433 401 424 589 l 433 378 q 439 376 439 378 l 469 378 l 524 378 q 637 303 637 370 q 564 226 637 256 q 531 220 553 220 l 526 220 q 456 226 499 220 q 429 223 439 223 l 429 226 q 399 168 414 226 q 361 80 399 164 q 356 62 361 75 q 376 53 357 53 l 418 53 q 481 50 444 53 q 606 83 515 50 q 782 278 703 121 q 802 429 802 322 l 802 441 q 696 551 802 519 q 677 554 690 551 q 572 536 643 547 q 529 609 539 536 l 529 639 q 634 687 529 673 q 747 709 647 695 l 772 829 l 767 832 q 649 814 680 821 q 448 787 630 807 q 424 747 424 787 z "},"6":{"ha":902,"x_min":0,"x_max":872,"o":"m 250 1011 q 275 1004 275 1006 l 280 1006 l 292 1006 q 361 998 349 998 l 471 998 q 608 945 497 998 q 764 882 625 945 q 794 837 794 859 q 691 663 794 809 l 675 638 l 675 633 q 681 628 677 628 l 699 628 q 850 530 783 628 q 872 416 872 476 q 754 94 872 228 q 552 0 655 0 q 277 113 475 8 q 149 214 213 161 q 25 343 90 261 q 0 449 0 397 l 0 489 q 71 749 0 589 q 172 920 90 819 q 242 1008 227 1006 q 250 1011 245 1008 m 351 290 l 351 273 q 464 81 351 178 q 552 50 527 50 q 747 161 658 50 q 819 366 812 262 q 822 416 822 375 q 716 577 822 542 q 694 580 703 580 l 691 580 q 618 542 656 580 l 608 542 q 585 568 589 542 q 675 729 585 591 q 721 802 682 731 q 646 814 720 806 q 597 827 612 827 q 522 734 561 827 q 434 555 478 670 q 366 373 366 393 q 351 290 351 302 m 600 429 q 668 366 668 414 l 668 330 q 597 245 648 245 l 595 245 q 507 313 537 245 l 505 328 q 568 418 505 374 l 600 429 z "},"7":{"ha":881,"x_min":0,"x_max":861,"o":"m 505 1017 q 768 926 522 1017 l 842 894 l 861 871 l 861 857 l 781 642 q 716 465 781 631 q 662 251 696 402 q 608 94 626 113 q 423 10 600 68 q 357 0 398 0 q 249 62 337 7 q 163 116 230 77 q 66 187 77 168 l 64 210 q 130 401 98 330 q 184 588 153 492 q 187 621 187 604 q 42 689 79 686 q 0 736 0 707 l 0 746 q 32 884 7 794 q 83 953 38 953 q 293 980 136 953 q 505 1017 454 1017 m 674 810 l 598 810 q 367 763 367 789 q 347 625 356 659 q 349 618 349 621 q 549 637 447 623 q 571 615 571 634 l 571 613 q 453 269 509 411 q 387 56 401 112 l 387 54 q 394 52 389 54 q 568 121 510 86 q 648 406 595 168 q 731 642 680 511 q 798 825 731 656 l 793 827 l 790 827 q 674 810 720 810 z "},"8":{"ha":932,"x_min":0,"x_max":883,"o":"m 274 1023 l 335 1023 q 581 954 450 1017 q 759 890 732 903 q 865 733 865 795 q 880 665 876 718 q 804 497 880 602 l 804 492 q 883 358 883 418 l 883 353 q 764 74 883 200 q 574 0 626 0 q 431 25 448 8 q 304 109 390 34 q 140 188 162 163 q 18 345 18 292 q 0 416 12 345 l 0 424 q 68 564 0 492 q 74 574 74 564 q 23 647 42 591 q 10 764 15 679 l 10 779 q 96 959 10 903 q 205 1013 134 997 q 274 1023 248 1023 m 358 589 l 358 558 q 431 477 358 533 l 467 437 l 467 424 q 408 376 467 420 q 350 211 350 299 q 398 96 350 142 q 581 51 463 51 q 743 122 618 51 q 832 353 832 235 l 832 363 q 736 475 832 412 l 731 485 q 759 515 731 492 q 820 622 775 532 q 830 663 830 648 q 797 777 830 707 q 673 865 736 865 l 606 865 q 475 838 548 865 q 386 749 386 763 q 358 589 358 647 m 591 680 q 663 629 625 680 l 667 612 l 667 591 q 589 507 667 534 l 584 507 q 513 596 527 507 q 568 670 513 649 l 591 680 m 612 401 q 677 348 661 401 l 677 328 q 616 233 677 277 q 574 221 596 221 q 520 307 532 221 q 581 393 529 393 q 612 401 584 393 z "},"9":{"ha":911,"x_min":0,"x_max":885,"o":"m 288 1023 l 470 1023 q 672 986 633 1010 q 823 878 735 964 q 885 685 885 783 l 885 672 q 818 389 885 544 q 711 172 781 328 q 623 18 667 113 q 587 0 614 0 q 439 26 572 0 q 355 50 394 26 q 172 161 303 74 q 65 249 65 214 l 65 260 q 130 338 65 279 q 179 397 142 349 l 179 405 q 23 506 117 455 q 13 519 13 517 l 13 537 q 0 646 0 611 l 0 714 q 60 895 10 799 q 192 1002 112 963 q 288 1023 267 1023 m 317 566 q 368 431 317 494 q 511 342 458 342 q 564 307 564 336 q 480 145 564 292 q 444 81 454 115 q 574 52 564 52 q 628 140 585 52 q 745 368 676 203 q 818 543 784 419 q 833 672 833 624 q 789 833 833 770 q 714 880 789 862 l 646 880 q 462 825 566 880 q 330 649 330 739 q 317 566 322 625 m 568 654 q 656 589 656 639 l 656 584 q 581 486 656 516 l 566 486 q 493 532 519 486 q 483 566 483 550 q 566 654 483 632 l 568 654 z "},"\u0000":{"ha":0,"x_min":0,"x_max":0,"o":""}," ":{"ha":477,"x_min":0,"x_max":0,"o":""},"!":{"ha":654,"x_min":0,"x_max":597,"o":"m 233 1008 q 561 886 496 905 q 591 833 582 870 l 591 825 q 594 639 591 808 q 566 319 579 319 q 492 280 551 302 l 488 275 q 597 158 597 206 q 503 66 597 136 q 427 0 448 0 l 419 0 q 314 69 404 0 l 58 247 q 0 297 0 275 q 66 394 0 315 l 66 399 q 25 439 25 422 q 3 919 25 452 q 44 972 3 972 q 233 1008 83 989 m 386 749 q 397 558 391 713 q 391 325 397 508 q 399 319 399 322 q 503 345 467 333 q 530 467 530 345 q 541 697 541 667 q 536 766 536 755 l 536 783 l 533 797 q 389 752 492 795 q 386 749 389 749 m 361 111 l 361 106 q 414 64 361 102 l 425 64 q 533 164 475 115 l 533 167 q 469 216 513 200 l 464 216 q 372 119 441 198 q 361 111 361 115 z "},"\"":{"ha":456,"x_min":0,"x_max":0,"o":""},"#":{"ha":1186,"x_min":61,"x_max":1134,"o":"m 64 1118 l 1131 1118 q 1134 1115 1134 1118 l 1134 -237 q 1131 -240 1134 -240 l 64 -240 q 61 -237 61 -240 l 61 1115 q 64 1118 62 1118 m 77 1097 l 77 -220 l 1118 -220 l 1118 1097 l 77 1097 m 761 1074 l 778 1074 q 787 1056 783 1074 l 789 1056 l 797 1058 q 816 1051 810 1057 q 828 1058 816 1058 l 828 1056 l 831 1058 l 844 1056 l 844 1061 q 859 1074 844 1074 l 874 1074 q 883 1056 879 1074 l 893 1058 q 911 1051 911 1056 l 911 1008 q 902 1000 911 1006 l 881 1000 l 881 903 q 878 878 881 878 q 881 855 880 876 q 876 848 879 848 l 873 848 q 867 878 867 848 l 866 878 q 861 867 866 867 q 855 878 855 869 l 855 889 l 852 889 l 852 863 q 854 838 852 855 l 850 836 l 847 836 q 844 840 844 836 l 844 848 q 845 867 844 861 l 842 934 q 844 965 844 947 l 844 1000 l 823 1000 q 814 1008 822 1000 q 806 1000 814 1006 l 785 1000 l 785 955 q 787 948 785 951 l 785 945 q 787 903 787 920 q 783 879 787 896 q 785 852 785 861 l 780 848 l 778 848 q 771 878 771 848 l 770 878 q 766 867 770 867 q 759 889 761 867 l 758 889 l 755 879 q 758 838 758 840 q 752 834 753 834 q 747 842 750 834 q 749 863 747 852 q 747 922 747 897 q 745 932 747 930 q 747 948 747 942 l 747 1000 l 728 1000 q 718 1015 718 1006 l 718 1046 q 733 1058 718 1058 l 735 1058 l 747 1056 q 761 1074 747 1074 m 684 1070 l 707 1070 q 715 1058 715 1067 l 715 1041 q 716 1010 715 1026 l 715 1001 q 716 977 716 987 q 715 972 716 975 l 716 962 l 716 953 q 715 941 716 943 q 716 926 716 932 l 716 920 q 706 886 716 886 q 694 874 703 886 l 687 874 l 687 869 q 685 863 687 863 l 687 855 l 687 842 q 682 836 687 839 l 680 836 q 675 846 675 838 l 675 860 q 670 881 675 879 q 659 878 664 878 q 654 884 655 878 l 652 884 l 652 863 q 648 859 652 861 q 644 862 644 859 l 646 879 q 644 897 644 888 q 630 888 637 888 q 620 922 620 897 q 622 987 622 964 l 622 1046 q 630 1063 622 1059 l 644 1063 q 661 1042 661 1063 l 661 926 q 665 922 662 922 l 671 922 q 677 936 677 923 l 677 1058 q 684 1070 677 1067 m 149 1068 l 151 1068 q 174 1053 174 1068 q 182 1003 182 1010 l 183 1003 q 202 1061 188 1061 q 212 1060 203 1061 q 222 1061 221 1061 q 230 1056 230 1059 q 204 889 208 928 l 200 888 l 199 888 l 192 893 q 185 889 188 889 l 185 871 q 180 865 185 868 q 171 908 175 865 q 159 951 163 908 l 157 951 q 147 882 154 899 q 144 878 147 878 l 142 878 q 138 881 138 878 l 138 901 q 135 922 138 910 l 134 922 q 121 891 126 891 l 119 891 q 109 941 113 891 q 89 1061 100 970 l 94 1065 l 118 1065 q 135 1008 126 1065 l 137 1008 q 149 1068 142 1068 m 460 1068 q 511 1039 504 1068 q 513 1020 513 1027 l 513 955 q 511 878 513 930 l 508 876 l 503 879 l 505 897 l 505 907 q 496 895 499 907 l 498 884 l 498 876 q 492 871 498 873 l 491 871 q 488 874 488 871 l 488 895 q 484 898 488 898 q 479 893 484 896 l 475 893 l 467 898 l 463 893 l 463 876 q 458 871 463 873 l 456 871 q 452 878 455 871 l 453 886 q 452 900 452 898 l 443 898 l 439 905 q 441 924 441 917 l 441 926 q 437 922 437 925 l 437 911 q 439 878 437 897 q 433 862 437 862 q 427 867 430 862 q 426 943 426 926 q 427 958 426 949 q 426 968 426 967 q 427 1053 427 1017 l 427 1055 q 453 1068 427 1068 l 460 1068 m 274 1067 l 285 1067 q 319 1032 304 1067 q 321 977 319 1010 q 319 937 321 969 q 321 897 321 907 q 319 857 319 869 l 315 855 q 309 888 311 855 q 300 907 300 895 l 298 907 q 292 889 298 889 l 288 891 q 281 889 285 889 q 276 900 276 896 q 271 878 271 900 l 273 871 q 267 862 271 862 l 264 869 l 266 886 q 260 900 264 900 q 252 872 256 895 l 248 871 q 241 897 245 871 q 233 913 237 897 l 233 1010 q 274 1067 233 1067 m 367 1067 l 381 1067 q 415 1032 401 1067 q 417 1012 415 1017 q 415 1010 417 1010 l 417 989 l 417 876 q 415 869 417 872 q 417 862 417 866 q 412 855 414 855 q 405 889 407 855 q 398 905 398 892 l 396 905 q 388 889 396 890 l 385 891 q 378 889 381 889 q 370 900 374 900 q 367 882 367 885 q 369 869 369 873 q 363 862 366 862 q 360 869 362 869 l 362 881 l 362 886 q 357 900 362 899 q 348 872 352 895 l 345 872 q 336 900 342 872 q 330 916 330 907 l 330 1000 q 367 1067 330 1067 m 578 1065 q 611 1025 611 1052 l 611 984 q 596 977 609 977 q 577 982 577 977 l 577 1003 l 575 1012 l 565 1012 q 559 967 559 1012 l 559 926 l 562 917 l 572 917 q 578 941 576 917 l 584 945 l 597 945 q 611 939 610 945 l 611 922 q 606 907 611 919 q 608 876 608 883 l 604 874 q 597 889 600 874 l 594 888 q 591 891 591 888 l 591 911 l 589 911 q 582 881 584 899 l 581 881 q 574 898 576 881 l 565 900 l 562 895 l 562 879 q 551 871 562 876 l 549 871 l 545 874 q 546 900 546 891 l 546 905 q 536 916 536 905 l 534 916 l 532 907 l 532 881 q 529 878 532 878 q 526 881 526 878 q 524 949 526 899 q 526 1029 526 1004 q 556 1065 526 1049 l 578 1065 m 922 1065 l 998 1065 q 1005 1058 1001 1065 l 1005 1022 q 991 1008 1005 1008 l 955 1008 l 955 970 l 979 970 q 986 964 982 970 l 986 939 q 974 927 986 927 l 955 927 l 955 913 l 959 916 q 1002 913 987 913 q 1007 901 1007 907 l 1007 884 q 1003 881 1007 881 l 1002 881 q 996 886 999 881 l 996 895 l 993 895 l 986 882 l 985 882 q 979 889 980 882 l 977 889 q 972 876 977 876 l 969 876 q 962 898 964 876 l 960 898 q 950 869 955 869 l 947 869 q 931 879 939 878 q 929 891 929 886 l 928 891 q 921 881 928 884 q 916 886 920 881 q 918 911 918 903 l 918 919 q 916 932 918 930 q 918 951 918 944 l 918 1051 q 922 1065 918 1064 m 1022 1065 l 1070 1065 q 1103 1017 1103 1057 l 1103 960 q 1093 924 1103 947 q 1107 893 1107 898 l 1107 888 l 1101 869 q 1103 855 1101 867 q 1095 848 1102 855 q 1089 853 1092 848 l 1089 878 l 1086 878 l 1084 869 q 1086 846 1086 848 q 1081 840 1083 840 q 1074 846 1079 840 l 1076 859 l 1076 862 q 1057 916 1076 880 l 1051 916 l 1051 900 q 1048 881 1048 883 l 1050 865 q 1044 857 1048 857 l 1043 857 q 1038 865 1039 857 q 1040 888 1040 880 l 1036 889 q 1033 886 1036 886 l 1031 886 q 1027 893 1027 886 l 1025 893 q 1024 881 1025 883 q 1027 853 1025 881 q 1022 846 1025 846 l 1019 846 q 1014 857 1015 846 q 1017 888 1014 861 q 1014 898 1016 898 q 1015 962 1015 941 l 1015 1044 q 1022 1065 1015 1065 m 267 1010 l 267 929 l 269 920 l 279 920 q 285 930 285 922 l 285 996 q 276 1015 285 1015 l 273 1015 q 267 1010 270 1015 m 363 1004 l 363 996 q 366 960 363 977 q 363 929 363 950 q 369 920 365 920 l 376 920 q 381 926 378 920 l 381 1004 q 376 1015 381 1014 l 374 1015 q 363 1004 363 1015 m 463 1015 q 462 1010 463 1013 l 463 1006 l 462 1003 q 463 998 463 1000 l 462 994 q 463 987 463 991 l 462 984 q 463 982 462 982 l 462 974 l 462 920 l 463 911 q 471 913 467 913 l 471 998 l 472 1015 l 463 1015 m 1051 1012 l 1051 956 l 1053 956 l 1062 958 l 1062 1008 q 1059 1012 1062 1012 l 1051 1012 m 352 860 q 424 812 401 860 q 441 731 441 789 q 439 718 439 724 q 448 712 448 716 l 448 705 q 443 682 443 690 q 456 666 445 682 l 456 661 l 453 661 l 453 652 q 458 623 453 644 q 453 621 455 621 q 460 601 453 621 l 456 599 l 455 599 l 452 601 q 444 563 452 593 l 439 563 q 434 580 439 580 q 431 557 431 564 l 431 553 l 426 553 q 422 557 426 557 l 420 557 q 408 537 420 539 q 401 518 407 518 l 395 523 q 391 492 391 499 l 389 492 q 381 503 381 497 q 372 487 378 500 l 369 487 q 363 500 369 500 q 355 486 359 486 q 350 494 350 491 l 348 494 l 343 484 l 338 484 q 333 496 336 496 q 324 484 328 485 q 317 492 321 492 l 311 487 l 309 487 q 296 503 306 487 q 293 497 296 497 l 290 497 q 283 527 283 524 l 276 518 q 269 553 271 518 l 267 553 l 267 549 l 262 549 l 256 587 l 247 580 q 243 583 243 580 q 247 602 247 598 q 243 628 247 609 l 237 625 q 235 627 237 627 q 237 652 237 644 l 237 664 q 248 688 237 667 l 248 693 q 243 718 243 709 q 252 730 243 719 l 252 747 q 296 840 252 800 q 352 860 316 855 m 260 752 l 260 726 q 267 718 267 718 q 264 667 267 707 q 267 664 267 667 l 267 652 l 273 652 l 273 638 l 274 638 q 278 645 274 645 q 281 642 281 645 l 281 627 q 285 619 285 622 l 288 619 q 309 652 288 641 q 312 649 312 652 q 302 633 312 647 l 302 631 q 312 635 307 635 l 317 635 l 315 644 l 315 654 q 321 659 315 656 q 324 656 324 659 q 322 650 322 652 q 326 642 326 645 l 330 644 l 333 644 q 347 635 340 635 l 348 635 l 359 644 l 360 644 l 369 642 l 370 650 l 370 652 l 369 652 q 363 650 366 650 l 362 654 q 367 656 366 656 l 367 657 l 362 666 l 366 667 q 378 647 378 661 l 378 644 l 376 640 l 382 638 l 382 647 q 386 650 383 650 q 410 616 388 641 l 412 616 l 412 625 q 415 628 412 628 l 418 627 l 418 631 l 417 644 q 418 645 418 644 l 422 644 l 426 644 q 429 675 426 666 l 426 707 q 434 731 434 709 q 385 846 434 818 l 382 846 q 369 826 378 845 q 376 821 376 825 l 376 819 l 333 759 q 331 764 331 762 q 348 808 348 804 q 333 817 333 812 l 348 852 l 347 852 q 274 804 310 852 q 260 752 260 770 m 214 834 l 216 831 q 214 753 214 779 l 208 749 q 195 802 205 749 q 190 805 191 805 l 149 805 l 147 788 l 147 685 l 185 685 q 199 724 193 685 l 202 724 q 208 719 205 724 l 208 678 q 205 676 208 676 l 208 673 l 208 619 q 200 612 208 616 q 190 652 197 615 l 186 654 q 147 656 155 656 l 147 580 q 161 535 147 535 q 173 528 170 535 l 173 518 q 170 513 173 517 l 152 515 l 111 515 l 99 513 q 96 527 96 519 q 115 541 96 530 q 118 576 118 549 l 118 767 q 109 810 118 810 q 96 824 96 812 l 96 829 l 97 833 q 149 831 132 831 l 185 831 q 214 834 200 831 m 703 824 q 881 819 720 824 l 883 815 q 881 755 883 795 q 880 753 880 755 q 850 755 859 755 l 831 755 q 825 506 825 550 q 823 500 823 503 q 825 499 825 500 l 821 497 q 742 499 773 499 l 739 500 l 741 505 q 747 759 741 543 l 701 759 q 697 764 697 759 l 699 823 l 703 824 m 678 812 q 689 795 687 812 q 687 764 687 774 l 685 764 q 689 753 689 758 l 689 734 q 663 715 689 721 l 663 712 l 667 712 q 689 701 689 712 q 692 637 690 686 l 690 619 l 694 578 q 689 556 692 556 l 675 556 l 616 602 q 548 663 600 621 l 549 645 l 549 623 q 548 621 549 621 q 551 602 551 614 l 551 575 q 536 553 551 565 q 503 557 503 553 l 491 556 l 484 556 q 479 583 479 556 l 479 627 q 477 650 479 636 l 479 654 q 477 669 477 663 l 477 680 q 479 695 477 689 q 477 709 477 705 q 475 808 475 786 l 479 810 l 489 810 q 549 762 500 810 l 549 745 l 545 738 q 553 736 547 736 q 559 743 553 739 l 568 743 q 613 711 576 743 l 616 709 l 616 749 q 614 802 616 770 q 665 812 614 812 l 678 812 m 955 781 q 1072 760 1072 770 q 1098 721 1098 744 l 1098 718 q 1089 666 1098 691 q 1021 678 1025 676 q 1022 704 1021 682 q 979 714 1022 710 q 966 682 968 714 q 1031 664 966 667 q 1081 612 1081 648 l 1081 611 q 1078 585 1081 600 l 1095 561 l 1095 559 q 1069 532 1069 543 q 1014 492 1053 492 q 905 515 905 502 q 883 556 892 515 q 886 601 886 579 q 892 602 890 602 q 957 595 945 599 q 954 573 955 577 q 995 559 954 562 q 1007 597 1007 559 q 933 611 1007 603 q 893 657 893 629 l 893 685 l 873 707 q 900 745 900 723 q 955 781 918 781 m 281 774 l 283 774 l 283 772 q 285 752 283 770 q 279 745 282 745 l 276 747 l 278 755 l 278 771 q 281 774 278 774 m 422 766 l 424 762 l 424 760 q 422 745 424 754 q 424 740 424 742 l 420 738 q 417 741 417 738 l 417 743 q 422 766 417 766 m 292 749 l 302 749 q 326 740 307 745 l 326 736 q 293 743 314 736 q 288 747 288 743 l 292 749 m 396 741 q 407 736 407 740 q 381 728 400 736 l 379 731 q 396 741 389 741 m 286 736 l 288 736 q 322 721 294 736 l 322 715 l 314 715 l 314 714 q 324 705 319 714 l 324 704 q 322 702 324 702 l 324 699 q 302 688 317 688 l 300 688 q 278 705 278 690 q 293 718 278 718 l 293 719 l 288 719 q 271 714 279 714 l 269 714 l 269 721 q 286 736 269 734 m 340 734 q 345 723 345 728 l 345 721 q 340 715 345 718 l 338 719 l 340 723 q 336 733 336 730 l 340 734 m 350 734 q 353 712 353 725 l 350 711 q 347 724 347 717 l 347 731 q 350 734 347 734 m 415 733 l 427 719 l 427 718 q 424 714 427 714 l 420 714 q 417 718 417 714 q 398 714 414 718 l 398 712 q 414 701 414 708 q 391 683 408 683 q 385 688 385 686 l 386 692 q 367 701 367 694 l 367 702 q 376 709 371 709 l 372 714 l 372 715 q 415 733 372 724 m 254 721 q 257 718 254 718 l 259 718 l 259 721 l 254 721 m 324 715 q 334 709 334 712 q 330 701 332 701 q 326 704 326 701 l 328 707 q 321 711 323 711 l 321 712 q 324 715 321 715 m 252 711 l 256 690 l 259 690 l 257 699 l 257 712 l 256 712 l 252 711 m 286 709 q 293 702 286 706 l 295 702 l 293 705 l 293 709 l 295 712 l 290 712 q 286 709 286 712 m 311 711 l 311 701 q 319 704 316 704 q 311 711 318 707 m 436 711 l 436 707 q 441 709 439 709 l 441 711 l 436 711 m 396 707 q 398 702 398 704 q 396 697 396 699 q 405 704 404 700 q 396 707 399 707 m 374 701 l 378 699 l 381 699 l 381 705 q 374 701 374 703 m 436 702 l 436 697 l 437 697 l 437 702 l 436 702 m 355 699 q 370 669 363 696 q 369 667 369 669 q 353 682 353 667 l 355 699 m 338 697 l 340 693 l 340 683 q 341 659 340 673 q 334 649 338 649 l 331 650 q 333 657 333 656 l 331 675 q 338 697 334 697 m 321 693 l 324 693 l 328 692 q 330 693 328 693 l 331 690 l 331 683 q 322 673 325 673 q 321 678 321 676 q 326 688 326 686 l 326 690 l 324 690 q 302 675 324 677 l 295 675 q 278 686 286 675 l 278 688 q 281 692 278 692 q 296 682 287 682 l 305 682 q 321 693 321 684 m 369 693 q 395 680 381 680 q 417 688 408 680 l 418 685 q 395 671 418 675 q 366 692 376 671 l 369 693 m 353 601 l 350 602 q 331 601 338 601 l 326 601 q 322 597 322 600 q 340 593 338 593 l 370 602 l 370 604 l 367 604 q 353 601 362 604 m 386 604 q 374 580 386 594 q 381 571 377 572 q 393 593 387 571 l 393 599 q 386 604 393 602 m 302 589 q 315 563 302 569 q 322 576 320 563 l 322 578 q 314 595 314 578 l 314 599 q 302 589 305 599 m 300 477 q 312 412 304 477 q 338 444 331 441 q 374 429 372 433 l 372 404 q 381 360 372 396 l 381 358 q 340 329 374 348 q 285 339 285 335 l 288 360 q 264 470 276 448 l 269 473 l 281 473 q 300 477 283 473 m 733 477 l 768 477 q 771 471 771 477 q 766 451 766 456 l 766 446 l 780 446 q 783 442 783 446 l 783 441 q 777 427 783 427 l 764 429 q 763 423 763 425 q 761 374 761 400 q 774 363 774 366 q 758 341 767 348 q 720 367 720 363 q 730 432 730 386 q 720 437 720 432 l 720 441 q 725 451 721 451 q 730 449 728 449 q 732 454 732 452 q 730 475 730 472 l 733 477 m 574 461 l 575 461 q 593 434 593 441 q 577 408 581 410 l 575 408 q 565 427 572 408 l 559 427 q 555 408 556 408 q 565 378 555 378 q 589 370 589 376 q 574 348 578 349 l 572 348 l 522 360 q 520 365 520 363 l 526 384 q 508 432 526 432 q 507 434 507 432 q 520 460 508 446 q 555 432 555 450 l 556 432 q 574 461 570 460 m 649 460 q 697 441 678 444 l 699 437 q 692 387 692 408 q 706 368 692 378 l 706 367 q 687 346 693 346 q 661 372 661 359 l 659 372 q 630 348 632 348 q 603 377 603 361 q 614 408 603 408 q 625 410 624 410 l 625 413 l 611 429 l 611 431 q 649 460 640 460 m 437 454 l 439 454 q 489 441 465 446 q 491 439 489 439 q 489 420 489 427 q 494 365 489 386 q 452 339 472 355 q 404 353 425 349 l 401 357 q 404 368 401 361 q 393 425 401 397 l 393 427 q 426 444 395 431 q 437 454 426 447 m 847 446 q 893 420 858 437 l 893 416 q 880 353 887 416 q 881 348 881 350 l 831 330 q 789 353 806 348 l 789 357 q 795 412 795 385 q 793 425 795 416 q 826 437 793 433 q 847 446 841 446 m 119 437 q 123 434 123 437 l 123 427 q 154 319 145 319 q 163 312 159 319 l 163 310 q 156 288 161 288 l 152 288 q 118 298 118 296 q 85 420 118 323 q 83 422 83 420 l 83 429 q 119 437 89 429 m 625 435 l 625 429 q 661 401 645 401 q 663 408 663 404 l 663 420 q 625 435 645 435 m 429 431 l 429 429 q 439 372 433 372 q 462 367 460 367 l 460 378 l 460 396 q 434 429 460 429 q 429 431 433 429 m 928 432 q 954 404 954 416 l 954 397 l 955 397 q 977 422 975 422 l 979 422 q 991 393 991 404 l 991 391 q 970 368 972 368 q 962 391 966 368 l 959 391 q 945 351 952 391 q 974 334 945 345 l 974 330 q 955 312 974 328 l 954 312 q 905 336 951 312 q 919 396 919 368 q 905 408 919 404 q 928 432 905 416 m 829 423 l 829 422 q 826 367 826 402 q 848 357 842 357 q 855 403 855 394 l 855 406 q 829 423 848 416 m 314 397 q 322 360 319 360 q 348 357 338 357 q 338 413 339 413 l 328 415 l 326 415 q 314 397 322 415 m 197 415 q 238 408 224 408 l 241 410 q 250 404 250 408 l 250 393 q 269 342 253 342 q 274 339 274 342 q 262 315 274 330 l 260 315 q 230 332 230 321 l 228 332 q 204 301 208 301 q 170 336 170 308 q 166 349 166 347 q 185 360 179 360 l 185 361 q 166 377 185 363 q 197 415 189 415 m 1019 412 q 1048 391 1029 412 l 1048 387 q 1031 327 1031 345 q 1043 319 1041 319 q 1067 368 1058 319 q 1070 380 1070 368 l 1070 393 l 1072 396 q 1110 382 1110 388 q 1070 260 1094 354 l 1067 258 l 1040 258 q 1036 264 1036 258 q 1051 313 1043 274 l 1050 313 l 1024 294 q 991 322 991 318 q 1010 380 1002 336 l 1003 393 l 1003 394 q 1019 412 1003 408 m 635 403 q 633 396 633 400 l 633 389 q 642 372 633 376 l 648 372 q 661 391 661 382 q 635 403 644 403 m 178 384 q 219 358 183 370 l 221 358 l 222 361 q 200 386 222 386 q 186 387 188 387 l 178 384 m 197 358 l 197 351 q 214 327 197 327 q 226 349 226 341 q 197 358 220 353 m 355 322 q 415 282 385 322 q 420 277 418 282 q 412 255 420 267 q 398 258 406 258 q 422 222 422 235 q 391 195 422 199 l 381 195 q 340 219 356 195 q 321 243 321 233 l 321 258 q 326 262 321 262 q 347 255 331 258 l 347 256 q 321 296 321 279 q 355 322 321 317 m 566 320 l 591 320 q 637 277 602 320 l 663 197 l 659 195 l 633 195 q 608 210 619 210 q 601 195 604 195 l 574 195 q 536 233 571 195 q 566 320 562 320 m 665 320 l 671 319 l 684 320 q 725 281 688 320 l 725 252 q 726 212 725 235 q 725 195 725 206 l 697 195 q 661 236 661 227 l 661 294 l 659 315 q 665 320 662 315 m 742 320 q 758 319 748 320 q 764 320 760 320 q 793 296 770 320 l 793 315 q 807 320 793 319 l 807 319 l 811 320 q 812 319 812 320 l 816 320 q 857 279 822 320 l 857 198 q 854 195 857 195 l 823 195 l 799 217 l 799 198 q 795 195 799 195 l 773 195 q 735 234 735 230 l 735 313 q 742 320 735 316 m 326 293 q 359 264 326 276 l 360 260 l 360 255 q 348 250 359 250 q 326 255 342 250 l 326 241 q 350 234 326 237 q 379 256 379 239 l 379 264 q 353 286 379 277 q 345 294 345 293 q 350 301 347 301 l 357 301 q 374 298 360 301 q 378 312 378 302 q 355 317 368 315 q 326 293 326 314 m 433 319 l 465 319 q 524 272 484 319 q 532 252 532 264 q 494 220 532 224 l 494 198 q 491 195 494 195 l 471 195 q 441 220 462 195 q 429 233 439 220 l 429 315 q 433 319 429 319 m 434 313 l 433 293 l 433 239 q 436 236 433 236 l 453 236 l 453 258 q 477 265 453 261 q 489 284 489 274 l 489 291 q 465 313 489 313 l 434 313 m 566 313 l 543 236 l 563 236 q 570 252 566 252 l 593 252 q 600 236 597 252 l 620 236 l 620 238 q 596 313 596 310 l 566 313 m 665 313 l 665 236 l 684 236 l 684 313 l 665 313 m 741 313 l 741 236 l 758 236 l 758 269 l 755 290 l 759 291 q 790 236 788 237 l 816 236 l 816 313 l 799 313 l 799 260 l 797 260 q 768 313 794 260 l 741 313 m 582 301 q 591 269 585 296 q 587 265 591 265 l 575 265 q 572 269 572 265 q 582 301 578 301 m 458 300 q 471 293 471 297 l 471 290 q 458 277 471 277 l 456 277 q 453 281 453 277 l 453 296 q 458 300 453 300 m 116 182 l 1079 182 q 1103 162 1103 180 l 1103 52 q 1079 31 1103 34 l 116 31 q 92 52 92 34 l 92 162 q 116 182 92 180 m 135 143 l 135 104 l 130 97 l 135 90 l 135 75 q 156 54 135 72 l 173 54 l 182 60 l 183 60 l 192 54 l 209 54 q 230 75 212 54 l 230 90 l 235 97 l 230 104 l 230 143 l 209 143 l 209 81 q 205 78 209 78 l 195 78 q 192 81 192 78 l 192 90 l 199 98 q 192 105 196 98 l 192 143 l 173 143 l 173 105 l 166 97 q 173 90 169 97 l 173 81 q 170 78 173 78 l 159 78 q 156 81 156 78 l 156 143 l 135 143 m 248 127 l 248 105 q 241 97 248 104 l 248 88 l 248 64 q 264 54 254 54 l 288 54 q 305 79 305 54 l 305 90 l 311 97 l 305 104 l 305 117 q 285 143 305 143 l 267 143 q 248 127 248 143 m 324 127 l 324 105 l 317 97 l 324 88 l 324 69 q 340 54 326 54 l 363 54 q 381 79 381 54 l 381 90 l 386 97 l 381 104 l 381 114 q 363 143 381 143 l 343 143 q 324 127 324 143 m 401 143 l 401 105 l 396 98 l 401 92 l 401 57 q 405 54 402 54 l 443 54 q 460 83 460 54 l 460 92 l 465 98 l 460 105 l 460 116 q 439 143 460 143 l 401 143 m 481 127 l 481 111 q 474 100 481 100 l 474 98 q 481 90 481 91 l 481 69 q 496 54 483 54 l 520 54 q 537 75 537 54 l 537 85 l 517 85 q 511 73 517 73 l 505 73 q 500 78 503 73 l 500 90 l 507 98 l 500 107 l 500 119 q 510 124 501 124 l 511 124 q 517 112 517 124 l 537 112 l 537 117 q 517 143 537 143 l 500 143 q 481 127 481 143 m 551 143 l 551 105 l 545 97 q 551 90 547 97 l 551 73 q 570 54 551 54 l 593 54 q 608 69 608 56 l 608 90 l 614 98 q 608 105 612 98 l 608 143 l 589 143 l 589 78 q 584 73 589 75 l 575 73 q 572 76 572 73 l 572 143 l 551 143 m 622 143 l 622 124 l 639 124 q 642 121 642 123 l 642 105 l 637 98 l 637 97 l 642 90 l 642 54 l 663 54 l 663 90 l 668 97 l 663 104 l 663 121 q 667 124 663 124 l 684 124 l 684 143 l 622 143 m 689 143 l 689 124 l 707 124 q 711 121 711 123 l 711 105 l 704 97 q 711 85 711 94 l 711 54 l 730 54 l 730 90 l 736 98 q 730 105 734 98 l 730 121 q 733 124 730 124 l 751 124 l 751 143 l 689 143 m 764 143 l 764 105 l 758 97 q 764 90 760 97 l 764 54 l 819 54 l 819 73 l 787 73 q 783 76 783 73 l 783 85 q 787 88 784 88 l 809 88 l 809 109 l 787 109 q 783 112 783 109 l 783 121 q 787 124 784 124 l 819 124 l 819 143 l 764 143 m 835 143 l 835 105 l 828 97 q 835 90 831 97 l 835 54 l 854 54 l 854 79 l 857 79 q 869 54 869 56 l 892 54 l 892 56 l 878 83 q 890 98 890 88 l 890 127 q 871 143 890 143 l 835 143 m 948 143 l 948 105 q 941 97 948 104 q 948 90 944 97 l 948 54 l 1005 54 l 1005 73 l 970 73 q 967 76 967 73 l 967 85 q 970 88 968 88 l 993 88 l 993 109 l 970 109 q 967 112 967 109 l 967 121 q 970 124 968 124 l 1005 124 l 1005 143 l 948 143 m 1012 119 l 1012 117 q 1022 94 1018 111 q 1043 88 1028 88 l 1051 88 q 1055 85 1055 87 l 1055 76 q 1051 73 1055 73 l 1043 73 q 1038 83 1038 73 l 1019 83 l 1019 69 q 1038 54 1019 54 l 1057 54 q 1076 73 1076 54 q 1082 79 1078 73 q 1074 100 1076 79 q 1050 109 1067 109 l 1043 109 q 1038 114 1040 109 l 1038 117 q 1044 124 1038 120 l 1050 124 q 1057 112 1054 124 l 1060 114 l 1070 114 l 1074 112 l 1076 116 l 1076 126 q 1055 143 1076 143 l 1038 143 q 1017 121 1017 143 q 1012 119 1014 119 m 278 124 l 279 124 q 285 119 282 124 l 285 78 q 279 73 285 75 l 273 73 q 267 78 270 73 l 267 119 q 278 124 269 124 m 353 124 l 355 124 q 360 119 357 124 l 360 78 q 355 73 360 75 l 348 73 q 343 78 346 73 l 343 119 q 353 124 345 124 m 857 124 l 866 124 q 871 119 868 124 l 871 105 q 866 100 871 103 l 857 100 q 854 104 854 100 l 854 121 q 857 124 854 124 m 426 123 l 436 123 q 439 119 439 122 l 439 78 q 434 73 439 75 l 426 73 q 422 76 422 73 l 422 119 q 426 123 422 123 m 907 62 q 912 54 908 54 l 922 54 q 926 57 926 54 l 926 68 q 921 73 926 70 l 918 73 q 907 62 907 73 m 208 2 q 221 -3 221 -2 q 238 2 235 2 q 256 -8 250 2 l 254 -18 l 281 -77 q 309 -15 290 -66 q 326 2 311 2 q 341 -1 339 -1 q 362 2 353 2 q 374 -5 374 -1 l 374 -14 q 366 -28 366 -22 l 366 -66 q 385 -85 366 -77 l 386 -94 q 369 -111 386 -98 q 366 -121 366 -117 l 366 -149 q 372 -176 372 -175 q 366 -184 372 -179 l 355 -184 q 343 -180 343 -184 q 330 -184 337 -184 l 322 -184 q 311 -176 313 -184 l 311 -172 q 317 -149 317 -151 l 317 -113 l 305 -136 q 296 -139 305 -139 q 283 -137 290 -139 q 269 -139 276 -139 l 267 -139 q 248 -115 256 -139 l 247 -115 l 247 -151 q 254 -172 247 -153 l 254 -176 q 240 -184 252 -184 q 222 -182 232 -184 q 202 -184 214 -184 q 192 -172 192 -184 q 199 -151 192 -170 l 199 -110 q 178 -96 186 -106 q 197 -73 178 -88 l 197 -68 q 199 -28 197 -60 q 190 -8 190 -9 q 208 2 190 1 m 420 2 l 434 -3 q 452 2 448 2 q 469 -10 469 -1 q 467 -20 467 -19 l 494 -77 q 520 -17 502 -73 l 529 -1 q 539 2 529 2 q 555 -1 552 -1 q 574 2 567 2 q 587 -6 583 2 l 587 -14 l 578 -24 l 578 -66 q 597 -85 578 -77 q 600 -92 597 -90 q 582 -111 600 -98 q 578 -121 578 -117 l 578 -153 q 585 -175 585 -173 q 574 -184 583 -184 l 568 -184 q 556 -180 556 -184 q 543 -184 550 -184 l 536 -184 q 524 -176 526 -184 l 524 -173 q 529 -153 524 -169 l 529 -115 l 527 -115 q 510 -139 524 -139 q 496 -137 503 -139 q 482 -139 490 -139 l 481 -139 q 463 -117 467 -139 l 460 -115 l 460 -153 q 467 -168 460 -159 l 467 -176 q 453 -184 465 -184 q 436 -182 445 -184 q 415 -184 427 -184 l 412 -184 q 405 -176 409 -184 l 405 -166 q 412 -151 412 -157 q 410 -144 412 -147 q 412 -125 412 -132 l 412 -110 q 391 -96 404 -110 q 410 -73 391 -87 l 410 -58 q 412 -31 410 -48 q 404 -12 407 -16 l 404 -6 q 420 2 408 2 m 623 2 q 639 -3 636 -3 l 651 2 q 670 -8 662 2 l 668 -17 q 682 -44 679 -44 q 696 -3 694 -20 l 707 2 q 725 -3 711 2 q 742 2 739 2 q 755 -6 755 -3 l 755 -14 q 718 -77 718 -65 q 732 -94 732 -87 q 722 -108 732 -99 q 759 -170 737 -146 l 759 -176 q 744 -185 754 -185 l 728 -184 q 709 -185 716 -185 q 696 -176 701 -185 l 696 -175 q 697 -168 696 -171 q 680 -137 684 -137 l 678 -137 q 667 -159 678 -141 l 665 -166 l 667 -176 q 651 -185 660 -182 q 633 -184 649 -185 q 614 -185 618 -185 q 603 -178 603 -183 l 603 -172 q 641 -106 641 -119 q 630 -92 635 -104 q 646 -79 638 -79 q 604 -12 618 -26 l 604 -8 q 623 2 608 2 m 780 2 l 799 -3 q 811 2 807 2 q 828 -15 828 2 q 838 -43 828 -20 l 840 -43 l 854 -18 l 852 -10 l 852 -8 q 866 2 859 2 q 883 -3 883 -1 q 902 2 899 2 q 916 -12 916 -1 q 876 -77 897 -35 q 892 -91 891 -87 l 892 -96 q 880 -110 880 -107 q 919 -172 904 -154 l 919 -176 q 903 -185 919 -181 q 890 -184 899 -185 q 866 -185 876 -185 q 854 -159 855 -185 q 840 -137 842 -137 l 838 -137 q 825 -165 825 -161 l 825 -176 q 807 -185 825 -182 q 793 -184 795 -184 l 773 -185 q 763 -178 763 -182 l 763 -175 q 789 -132 763 -172 q 800 -106 800 -111 q 790 -91 790 -100 q 804 -80 797 -80 l 804 -79 q 764 -14 785 -35 l 764 -6 q 780 2 764 -2 m 977 2 q 993 -12 993 0 q 986 -33 986 -23 l 986 -54 q 985 -70 986 -61 q 1003 -91 985 -73 l 1003 -92 q 988 -110 1003 -102 l 985 -123 q 986 -147 986 -138 l 986 -155 q 993 -176 993 -174 q 977 -184 986 -184 q 960 -180 960 -184 q 947 -184 954 -184 l 941 -184 q 929 -172 929 -184 q 938 -149 938 -153 l 938 -134 q 921 -92 938 -110 l 921 -91 q 937 -68 937 -77 l 937 -31 q 929 -10 929 -12 l 929 -6 q 947 1 929 -1 q 960 -3 960 0 l 977 2 z "},"$":{"ha":1186,"x_min":61,"x_max":1134,"o":"m 64 1118 l 1131 1118 q 1134 1115 1134 1118 l 1134 -237 q 1131 -240 1134 -240 l 64 -240 q 61 -237 61 -240 l 61 1115 q 64 1118 62 1118 m 77 1097 l 77 -220 l 1118 -220 l 1118 1097 l 77 1097 m 761 1074 l 778 1074 q 787 1056 783 1074 l 789 1056 l 797 1058 q 816 1051 810 1057 q 828 1058 816 1058 l 828 1056 l 831 1058 l 844 1056 l 844 1061 q 859 1074 844 1074 l 874 1074 q 883 1056 879 1074 l 893 1058 q 911 1051 911 1056 l 911 1008 q 902 1000 911 1006 l 881 1000 l 881 903 q 878 878 881 878 q 881 855 880 876 q 876 848 879 848 l 873 848 q 867 878 867 848 l 866 878 q 861 867 866 867 q 855 878 855 869 l 855 889 l 852 889 l 852 863 q 854 838 852 855 l 850 836 l 847 836 q 844 840 844 836 l 844 848 q 845 867 844 861 l 842 934 q 844 965 844 947 l 844 1000 l 823 1000 q 814 1008 822 1000 q 806 1000 814 1006 l 785 1000 l 785 955 q 787 948 785 951 l 785 945 q 787 903 787 920 q 783 879 787 896 q 785 852 785 861 l 780 848 l 778 848 q 771 878 771 848 l 770 878 q 766 867 770 867 q 759 889 761 867 l 758 889 l 755 879 q 758 838 758 840 q 752 834 753 834 q 747 842 750 834 q 749 863 747 852 q 747 922 747 897 q 745 932 747 930 q 747 948 747 942 l 747 1000 l 728 1000 q 718 1015 718 1006 l 718 1046 q 733 1058 718 1058 l 735 1058 l 747 1056 q 761 1074 747 1074 m 684 1070 l 707 1070 q 715 1058 715 1067 l 715 1041 q 716 1010 715 1026 l 715 1001 q 716 977 716 987 q 715 972 716 975 l 716 962 l 716 953 q 715 941 716 943 q 716 926 716 932 l 716 920 q 706 886 716 886 q 694 874 703 886 l 687 874 l 687 869 q 685 863 687 863 l 687 855 l 687 842 q 682 836 687 839 l 680 836 q 675 846 675 838 l 675 860 q 670 881 675 879 q 659 878 664 878 q 654 884 655 878 l 652 884 l 652 863 q 648 859 652 861 q 644 862 644 859 l 646 879 q 644 897 644 888 q 630 888 637 888 q 620 922 620 897 q 622 987 622 964 l 622 1046 q 630 1063 622 1059 l 644 1063 q 661 1042 661 1063 l 661 926 q 665 922 662 922 l 671 922 q 677 936 677 923 l 677 1058 q 684 1070 677 1067 m 149 1068 l 151 1068 q 174 1053 174 1068 q 182 1003 182 1010 l 183 1003 q 202 1061 188 1061 q 212 1060 203 1061 q 222 1061 221 1061 q 230 1056 230 1059 q 204 889 208 928 l 200 888 l 199 888 l 192 893 q 185 889 188 889 l 185 871 q 180 865 185 868 q 171 908 175 865 q 159 951 163 908 l 157 951 q 147 882 154 899 q 144 878 147 878 l 142 878 q 138 881 138 878 l 138 901 q 135 922 138 910 l 134 922 q 121 891 126 891 l 119 891 q 109 941 113 891 q 89 1061 100 970 l 94 1065 l 118 1065 q 135 1008 126 1065 l 137 1008 q 149 1068 142 1068 m 460 1068 q 511 1039 504 1068 q 513 1020 513 1027 l 513 955 q 511 878 513 930 l 508 876 l 503 879 l 505 897 l 505 907 q 496 895 499 907 l 498 884 l 498 876 q 492 871 498 873 l 491 871 q 488 874 488 871 l 488 895 q 484 898 488 898 q 479 893 484 896 l 475 893 l 467 898 l 463 893 l 463 876 q 458 871 463 873 l 456 871 q 452 878 455 871 l 453 886 q 452 900 452 898 l 443 898 l 439 905 q 441 924 441 917 l 441 926 q 437 922 437 925 l 437 911 q 439 878 437 897 q 433 862 437 862 q 427 867 430 862 q 426 943 426 926 q 427 958 426 949 q 426 968 426 967 q 427 1053 427 1017 l 427 1055 q 453 1068 427 1068 l 460 1068 m 274 1067 l 285 1067 q 319 1032 304 1067 q 321 977 319 1010 q 319 937 321 969 q 321 897 321 907 q 319 857 319 869 l 315 855 q 309 888 311 855 q 300 907 300 895 l 298 907 q 292 889 298 889 l 288 891 q 281 889 285 889 q 276 900 276 896 q 271 878 271 900 l 273 871 q 267 862 271 862 l 264 869 l 266 886 q 260 900 264 900 q 252 872 256 895 l 248 871 q 241 897 245 871 q 233 913 237 897 l 233 1010 q 274 1067 233 1067 m 367 1067 l 381 1067 q 415 1032 401 1067 q 417 1012 415 1017 q 415 1010 417 1010 l 417 989 l 417 876 q 415 869 417 872 q 417 862 417 866 q 412 855 414 855 q 405 889 407 855 q 398 905 398 892 l 396 905 q 388 889 396 890 l 385 891 q 378 889 381 889 q 370 900 374 900 q 367 882 367 885 q 369 869 369 873 q 363 862 366 862 q 360 869 362 869 l 362 881 l 362 886 q 357 900 362 899 q 348 872 352 895 l 345 872 q 336 900 342 872 q 330 916 330 907 l 330 1000 q 367 1067 330 1067 m 578 1065 q 611 1025 611 1052 l 611 984 q 596 977 609 977 q 577 982 577 977 l 577 1003 l 575 1012 l 565 1012 q 559 967 559 1012 l 559 926 l 562 917 l 572 917 q 578 941 576 917 l 584 945 l 597 945 q 611 939 610 945 l 611 922 q 606 907 611 919 q 608 876 608 883 l 604 874 q 597 889 600 874 l 594 888 q 591 891 591 888 l 591 911 l 589 911 q 582 881 584 899 l 581 881 q 574 898 576 881 l 565 900 l 562 895 l 562 879 q 551 871 562 876 l 549 871 l 545 874 q 546 900 546 891 l 546 905 q 536 916 536 905 l 534 916 l 532 907 l 532 881 q 529 878 532 878 q 526 881 526 878 q 524 949 526 899 q 526 1029 526 1004 q 556 1065 526 1049 l 578 1065 m 922 1065 l 998 1065 q 1005 1058 1001 1065 l 1005 1022 q 991 1008 1005 1008 l 955 1008 l 955 970 l 979 970 q 986 964 982 970 l 986 939 q 974 927 986 927 l 955 927 l 955 913 l 959 916 q 1002 913 987 913 q 1007 901 1007 907 l 1007 884 q 1003 881 1007 881 l 1002 881 q 996 886 999 881 l 996 895 l 993 895 l 986 882 l 985 882 q 979 889 980 882 l 977 889 q 972 876 977 876 l 969 876 q 962 898 964 876 l 960 898 q 950 869 955 869 l 947 869 q 931 879 939 878 q 929 891 929 886 l 928 891 q 921 881 928 884 q 916 886 920 881 q 918 911 918 903 l 918 919 q 916 932 918 930 q 918 951 918 944 l 918 1051 q 922 1065 918 1064 m 1022 1065 l 1070 1065 q 1103 1017 1103 1057 l 1103 960 q 1093 924 1103 947 q 1107 893 1107 898 l 1107 888 l 1101 869 q 1103 855 1101 867 q 1095 848 1102 855 q 1089 853 1092 848 l 1089 878 l 1086 878 l 1084 869 q 1086 846 1086 848 q 1081 840 1083 840 q 1074 846 1079 840 l 1076 859 l 1076 862 q 1057 916 1076 880 l 1051 916 l 1051 900 q 1048 881 1048 883 l 1050 865 q 1044 857 1048 857 l 1043 857 q 1038 865 1039 857 q 1040 888 1040 880 l 1036 889 q 1033 886 1036 886 l 1031 886 q 1027 893 1027 886 l 1025 893 q 1024 881 1025 883 q 1027 853 1025 881 q 1022 846 1025 846 l 1019 846 q 1014 857 1015 846 q 1017 888 1014 861 q 1014 898 1016 898 q 1015 962 1015 941 l 1015 1044 q 1022 1065 1015 1065 m 267 1010 l 267 929 l 269 920 l 279 920 q 285 930 285 922 l 285 996 q 276 1015 285 1015 l 273 1015 q 267 1010 270 1015 m 363 1004 l 363 996 q 366 960 363 977 q 363 929 363 950 q 369 920 365 920 l 376 920 q 381 926 378 920 l 381 1004 q 376 1015 381 1014 l 374 1015 q 363 1004 363 1015 m 463 1015 q 462 1010 463 1013 l 463 1006 l 462 1003 q 463 998 463 1000 l 462 994 q 463 987 463 991 l 462 984 q 463 982 462 982 l 462 974 l 462 920 l 463 911 q 471 913 467 913 l 471 998 l 472 1015 l 463 1015 m 1051 1012 l 1051 956 l 1053 956 l 1062 958 l 1062 1008 q 1059 1012 1062 1012 l 1051 1012 m 352 860 q 424 812 401 860 q 441 731 441 789 q 439 718 439 724 q 448 712 448 716 l 448 705 q 443 682 443 690 q 456 666 445 682 l 456 661 l 453 661 l 453 652 q 458 623 453 644 q 453 621 455 621 q 460 601 453 621 l 456 599 l 455 599 l 452 601 q 444 563 452 593 l 439 563 q 434 580 439 580 q 431 557 431 564 l 431 553 l 426 553 q 422 557 426 557 l 420 557 q 408 537 420 539 q 401 518 407 518 l 395 523 q 391 492 391 499 l 389 492 q 381 503 381 497 q 372 487 378 500 l 369 487 q 363 500 369 500 q 355 486 359 486 q 350 494 350 491 l 348 494 l 343 484 l 338 484 q 333 496 336 496 q 324 484 328 485 q 317 492 321 492 l 311 487 l 309 487 q 296 503 306 487 q 293 497 296 497 l 290 497 q 283 527 283 524 l 276 518 q 269 553 271 518 l 267 553 l 267 549 l 262 549 l 256 587 l 247 580 q 243 583 243 580 q 247 602 247 598 q 243 628 247 609 l 237 625 q 235 627 237 627 q 237 652 237 644 l 237 664 q 248 688 237 667 l 248 693 q 243 718 243 709 q 252 730 243 719 l 252 747 q 296 840 252 800 q 352 860 316 855 m 260 752 l 260 726 q 267 718 267 718 q 264 667 267 707 q 267 664 267 667 l 267 652 l 273 652 l 273 638 l 274 638 q 278 645 274 645 q 281 642 281 645 l 281 627 q 285 619 285 622 l 288 619 q 309 652 288 641 q 312 649 312 652 q 302 633 312 647 l 302 631 q 312 635 307 635 l 317 635 l 315 644 l 315 654 q 321 659 315 656 q 324 656 324 659 q 322 650 322 652 q 326 642 326 645 l 330 644 l 333 644 q 347 635 340 635 l 348 635 l 359 644 l 360 644 l 369 642 l 370 650 l 370 652 l 369 652 q 363 650 366 650 l 362 654 q 367 656 366 656 l 367 657 l 362 666 l 366 667 q 378 647 378 661 l 378 644 l 376 640 l 382 638 l 382 647 q 386 650 383 650 q 410 616 388 641 l 412 616 l 412 625 q 415 628 412 628 l 418 627 l 418 631 l 417 644 q 418 645 418 644 l 422 644 l 426 644 q 429 675 426 666 l 426 707 q 434 731 434 709 q 385 846 434 818 l 382 846 q 369 826 378 845 q 376 821 376 825 l 376 819 l 333 759 q 331 764 331 762 q 348 808 348 804 q 333 817 333 812 l 348 852 l 347 852 q 274 804 310 852 q 260 752 260 770 m 214 834 l 216 831 q 214 753 214 779 l 208 749 q 195 802 205 749 q 190 805 191 805 l 149 805 l 147 788 l 147 685 l 185 685 q 199 724 193 685 l 202 724 q 208 719 205 724 l 208 678 q 205 676 208 676 l 208 673 l 208 619 q 200 612 208 616 q 190 652 197 615 l 186 654 q 147 656 155 656 l 147 580 q 161 535 147 535 q 173 528 170 535 l 173 518 q 170 513 173 517 l 152 515 l 111 515 l 99 513 q 96 527 96 519 q 115 541 96 530 q 118 576 118 549 l 118 767 q 109 810 118 810 q 96 824 96 812 l 96 829 l 97 833 q 149 831 132 831 l 185 831 q 214 834 200 831 m 703 824 q 881 819 720 824 l 883 815 q 881 755 883 795 q 880 753 880 755 q 850 755 859 755 l 831 755 q 825 506 825 550 q 823 500 823 503 q 825 499 825 500 l 821 497 q 742 499 773 499 l 739 500 l 741 505 q 747 759 741 543 l 701 759 q 697 764 697 759 l 699 823 l 703 824 m 678 812 q 689 795 687 812 q 687 764 687 774 l 685 764 q 689 753 689 758 l 689 734 q 663 715 689 721 l 663 712 l 667 712 q 689 701 689 712 q 692 637 690 686 l 690 619 l 694 578 q 689 556 692 556 l 675 556 l 616 602 q 548 663 600 621 l 549 645 l 549 623 q 548 621 549 621 q 551 602 551 614 l 551 575 q 536 553 551 565 q 503 557 503 553 l 491 556 l 484 556 q 479 583 479 556 l 479 627 q 477 650 479 636 l 479 654 q 477 669 477 663 l 477 680 q 479 695 477 689 q 477 709 477 705 q 475 808 475 786 l 479 810 l 489 810 q 549 762 500 810 l 549 745 l 545 738 q 553 736 547 736 q 559 743 553 739 l 568 743 q 613 711 576 743 l 616 709 l 616 749 q 614 802 616 770 q 665 812 614 812 l 678 812 m 955 781 q 1072 760 1072 770 q 1098 721 1098 744 l 1098 718 q 1089 666 1098 691 q 1021 678 1025 676 q 1022 704 1021 682 q 979 714 1022 710 q 966 682 968 714 q 1031 664 966 667 q 1081 612 1081 648 l 1081 611 q 1078 585 1081 600 l 1095 561 l 1095 559 q 1069 532 1069 543 q 1014 492 1053 492 q 905 515 905 502 q 883 556 892 515 q 886 601 886 579 q 892 602 890 602 q 957 595 945 599 q 954 573 955 577 q 995 559 954 562 q 1007 597 1007 559 q 933 611 1007 603 q 893 657 893 629 l 893 685 l 873 707 q 900 745 900 723 q 955 781 918 781 m 281 774 l 283 774 l 283 772 q 285 752 283 770 q 279 745 282 745 l 276 747 l 278 755 l 278 771 q 281 774 278 774 m 422 766 l 424 762 l 424 760 q 422 745 424 754 q 424 740 424 742 l 420 738 q 417 741 417 738 l 417 743 q 422 766 417 766 m 292 749 l 302 749 q 326 740 307 745 l 326 736 q 293 743 314 736 q 288 747 288 743 l 292 749 m 396 741 q 407 736 407 740 q 381 728 400 736 l 379 731 q 396 741 389 741 m 286 736 l 288 736 q 322 721 294 736 l 322 715 l 314 715 l 314 714 q 324 705 319 714 l 324 704 q 322 702 324 702 l 324 699 q 302 688 317 688 l 300 688 q 278 705 278 690 q 293 718 278 718 l 293 719 l 288 719 q 271 714 279 714 l 269 714 l 269 721 q 286 736 269 734 m 340 734 q 345 723 345 728 l 345 721 q 340 715 345 718 l 338 719 l 340 723 q 336 733 336 730 l 340 734 m 350 734 q 353 712 353 725 l 350 711 q 347 724 347 717 l 347 731 q 350 734 347 734 m 415 733 l 427 719 l 427 718 q 424 714 427 714 l 420 714 q 417 718 417 714 q 398 714 414 718 l 398 712 q 414 701 414 708 q 391 683 408 683 q 385 688 385 686 l 386 692 q 367 701 367 694 l 367 702 q 376 709 371 709 l 372 714 l 372 715 q 415 733 372 724 m 254 721 q 257 718 254 718 l 259 718 l 259 721 l 254 721 m 324 715 q 334 709 334 712 q 330 701 332 701 q 326 704 326 701 l 328 707 q 321 711 323 711 l 321 712 q 324 715 321 715 m 252 711 l 256 690 l 259 690 l 257 699 l 257 712 l 256 712 l 252 711 m 286 709 q 293 702 286 706 l 295 702 l 293 705 l 293 709 l 295 712 l 290 712 q 286 709 286 712 m 311 711 l 311 701 q 319 704 316 704 q 311 711 318 707 m 436 711 l 436 707 q 441 709 439 709 l 441 711 l 436 711 m 396 707 q 398 702 398 704 q 396 697 396 699 q 405 704 404 700 q 396 707 399 707 m 374 701 l 378 699 l 381 699 l 381 705 q 374 701 374 703 m 436 702 l 436 697 l 437 697 l 437 702 l 436 702 m 355 699 q 370 669 363 696 q 369 667 369 669 q 353 682 353 667 l 355 699 m 338 697 l 340 693 l 340 683 q 341 659 340 673 q 334 649 338 649 l 331 650 q 333 657 333 656 l 331 675 q 338 697 334 697 m 321 693 l 324 693 l 328 692 q 330 693 328 693 l 331 690 l 331 683 q 322 673 325 673 q 321 678 321 676 q 326 688 326 686 l 326 690 l 324 690 q 302 675 324 677 l 295 675 q 278 686 286 675 l 278 688 q 281 692 278 692 q 296 682 287 682 l 305 682 q 321 693 321 684 m 369 693 q 395 680 381 680 q 417 688 408 680 l 418 685 q 395 671 418 675 q 366 692 376 671 l 369 693 m 353 601 l 350 602 q 331 601 338 601 l 326 601 q 322 597 322 600 q 340 593 338 593 l 370 602 l 370 604 l 367 604 q 353 601 362 604 m 386 604 q 374 580 386 594 q 381 571 377 572 q 393 593 387 571 l 393 599 q 386 604 393 602 m 302 589 q 315 563 302 569 q 322 576 320 563 l 322 578 q 314 595 314 578 l 314 599 q 302 589 305 599 m 300 477 q 312 412 304 477 q 338 444 331 441 q 374 429 372 433 l 372 404 q 381 360 372 396 l 381 358 q 340 329 374 348 q 285 339 285 335 l 288 360 q 264 470 276 448 l 269 473 l 281 473 q 300 477 283 473 m 733 477 l 768 477 q 771 471 771 477 q 766 451 766 456 l 766 446 l 780 446 q 783 442 783 446 l 783 441 q 777 427 783 427 l 764 429 q 763 423 763 425 q 761 374 761 400 q 774 363 774 366 q 758 341 767 348 q 720 367 720 363 q 730 432 730 386 q 720 437 720 432 l 720 441 q 725 451 721 451 q 730 449 728 449 q 732 454 732 452 q 730 475 730 472 l 733 477 m 574 461 l 575 461 q 593 434 593 441 q 577 408 581 410 l 575 408 q 565 427 572 408 l 559 427 q 555 408 556 408 q 565 378 555 378 q 589 370 589 376 q 574 348 578 349 l 572 348 l 522 360 q 520 365 520 363 l 526 384 q 508 432 526 432 q 507 434 507 432 q 520 460 508 446 q 555 432 555 450 l 556 432 q 574 461 570 460 m 649 460 q 697 441 678 444 l 699 437 q 692 387 692 408 q 706 368 692 378 l 706 367 q 687 346 693 346 q 661 372 661 359 l 659 372 q 630 348 632 348 q 603 377 603 361 q 614 408 603 408 q 625 410 624 410 l 625 413 l 611 429 l 611 431 q 649 460 640 460 m 437 454 l 439 454 q 489 441 465 446 q 491 439 489 439 q 489 420 489 427 q 494 365 489 386 q 452 339 472 355 q 404 353 425 349 l 401 357 q 404 368 401 361 q 393 425 401 397 l 393 427 q 426 444 395 431 q 437 454 426 447 m 847 446 q 893 420 858 437 l 893 416 q 880 353 887 416 q 881 348 881 350 l 831 330 q 789 353 806 348 l 789 357 q 795 412 795 385 q 793 425 795 416 q 826 437 793 433 q 847 446 841 446 m 119 437 q 123 434 123 437 l 123 427 q 154 319 145 319 q 163 312 159 319 l 163 310 q 156 288 161 288 l 152 288 q 118 298 118 296 q 85 420 118 323 q 83 422 83 420 l 83 429 q 119 437 89 429 m 625 435 l 625 429 q 661 401 645 401 q 663 408 663 404 l 663 420 q 625 435 645 435 m 429 431 l 429 429 q 439 372 433 372 q 462 367 460 367 l 460 378 l 460 396 q 434 429 460 429 q 429 431 433 429 m 928 432 q 954 404 954 416 l 954 397 l 955 397 q 977 422 975 422 l 979 422 q 991 393 991 404 l 991 391 q 970 368 972 368 q 962 391 966 368 l 959 391 q 945 351 952 391 q 974 334 945 345 l 974 330 q 955 312 974 328 l 954 312 q 905 336 951 312 q 919 396 919 368 q 905 408 919 404 q 928 432 905 416 m 829 423 l 829 422 q 826 367 826 402 q 848 357 842 357 q 855 403 855 394 l 855 406 q 829 423 848 416 m 314 397 q 322 360 319 360 q 348 357 338 357 q 338 413 339 413 l 328 415 l 326 415 q 314 397 322 415 m 197 415 q 238 408 224 408 l 241 410 q 250 404 250 408 l 250 393 q 269 342 253 342 q 274 339 274 342 q 262 315 274 330 l 260 315 q 230 332 230 321 l 228 332 q 204 301 208 301 q 170 336 170 308 q 166 349 166 347 q 185 360 179 360 l 185 361 q 166 377 185 363 q 197 415 189 415 m 1019 412 q 1048 391 1029 412 l 1048 387 q 1031 327 1031 345 q 1043 319 1041 319 q 1067 368 1058 319 q 1070 380 1070 368 l 1070 393 l 1072 396 q 1110 382 1110 388 q 1070 260 1094 354 l 1067 258 l 1040 258 q 1036 264 1036 258 q 1051 313 1043 274 l 1050 313 l 1024 294 q 991 322 991 318 q 1010 380 1002 336 l 1003 393 l 1003 394 q 1019 412 1003 408 m 635 403 q 633 396 633 400 l 633 389 q 642 372 633 376 l 648 372 q 661 391 661 382 q 635 403 644 403 m 178 384 q 219 358 183 370 l 221 358 l 222 361 q 200 386 222 386 q 186 387 188 387 l 178 384 m 197 358 l 197 351 q 214 327 197 327 q 226 349 226 341 q 197 358 220 353 m 355 322 q 415 282 385 322 q 420 277 418 282 q 412 255 420 267 q 398 258 406 258 q 422 222 422 235 q 391 195 422 199 l 381 195 q 340 219 356 195 q 321 243 321 233 l 321 258 q 326 262 321 262 q 347 255 331 258 l 347 256 q 321 296 321 279 q 355 322 321 317 m 566 320 l 591 320 q 637 277 602 320 l 663 197 l 659 195 l 633 195 q 608 210 619 210 q 601 195 604 195 l 574 195 q 536 233 571 195 q 566 320 562 320 m 665 320 l 671 319 l 684 320 q 725 281 688 320 l 725 252 q 726 212 725 235 q 725 195 725 206 l 697 195 q 661 236 661 227 l 661 294 l 659 315 q 665 320 662 315 m 742 320 q 758 319 748 320 q 764 320 760 320 q 793 296 770 320 l 793 315 q 807 320 793 319 l 807 319 l 811 320 q 812 319 812 320 l 816 320 q 857 279 822 320 l 857 198 q 854 195 857 195 l 823 195 l 799 217 l 799 198 q 795 195 799 195 l 773 195 q 735 234 735 230 l 735 313 q 742 320 735 316 m 326 293 q 359 264 326 276 l 360 260 l 360 255 q 348 250 359 250 q 326 255 342 250 l 326 241 q 350 234 326 237 q 379 256 379 239 l 379 264 q 353 286 379 277 q 345 294 345 293 q 350 301 347 301 l 357 301 q 374 298 360 301 q 378 312 378 302 q 355 317 368 315 q 326 293 326 314 m 433 319 l 465 319 q 524 272 484 319 q 532 252 532 264 q 494 220 532 224 l 494 198 q 491 195 494 195 l 471 195 q 441 220 462 195 q 429 233 439 220 l 429 315 q 433 319 429 319 m 434 313 l 433 293 l 433 239 q 436 236 433 236 l 453 236 l 453 258 q 477 265 453 261 q 489 284 489 274 l 489 291 q 465 313 489 313 l 434 313 m 566 313 l 543 236 l 563 236 q 570 252 566 252 l 593 252 q 600 236 597 252 l 620 236 l 620 238 q 596 313 596 310 l 566 313 m 665 313 l 665 236 l 684 236 l 684 313 l 665 313 m 741 313 l 741 236 l 758 236 l 758 269 l 755 290 l 759 291 q 790 236 788 237 l 816 236 l 816 313 l 799 313 l 799 260 l 797 260 q 768 313 794 260 l 741 313 m 582 301 q 591 269 585 296 q 587 265 591 265 l 575 265 q 572 269 572 265 q 582 301 578 301 m 458 300 q 471 293 471 297 l 471 290 q 458 277 471 277 l 456 277 q 453 281 453 277 l 453 296 q 458 300 453 300 m 116 182 l 1079 182 q 1103 162 1103 180 l 1103 52 q 1079 31 1103 34 l 116 31 q 92 52 92 34 l 92 162 q 116 182 92 180 m 135 143 l 135 104 l 130 97 l 135 90 l 135 75 q 156 54 135 72 l 173 54 l 182 60 l 183 60 l 192 54 l 209 54 q 230 75 212 54 l 230 90 l 235 97 l 230 104 l 230 143 l 209 143 l 209 81 q 205 78 209 78 l 195 78 q 192 81 192 78 l 192 90 l 199 98 q 192 105 196 98 l 192 143 l 173 143 l 173 105 l 166 97 q 173 90 169 97 l 173 81 q 170 78 173 78 l 159 78 q 156 81 156 78 l 156 143 l 135 143 m 248 127 l 248 105 q 241 97 248 104 l 248 88 l 248 64 q 264 54 254 54 l 288 54 q 305 79 305 54 l 305 90 l 311 97 l 305 104 l 305 117 q 285 143 305 143 l 267 143 q 248 127 248 143 m 324 127 l 324 105 l 317 97 l 324 88 l 324 69 q 340 54 326 54 l 363 54 q 381 79 381 54 l 381 90 l 386 97 l 381 104 l 381 114 q 363 143 381 143 l 343 143 q 324 127 324 143 m 401 143 l 401 105 l 396 98 l 401 92 l 401 57 q 405 54 402 54 l 443 54 q 460 83 460 54 l 460 92 l 465 98 l 460 105 l 460 116 q 439 143 460 143 l 401 143 m 481 127 l 481 111 q 474 100 481 100 l 474 98 q 481 90 481 91 l 481 69 q 496 54 483 54 l 520 54 q 537 75 537 54 l 537 85 l 517 85 q 511 73 517 73 l 505 73 q 500 78 503 73 l 500 90 l 507 98 l 500 107 l 500 119 q 510 124 501 124 l 511 124 q 517 112 517 124 l 537 112 l 537 117 q 517 143 537 143 l 500 143 q 481 127 481 143 m 551 143 l 551 105 l 545 97 q 551 90 547 97 l 551 73 q 570 54 551 54 l 593 54 q 608 69 608 56 l 608 90 l 614 98 q 608 105 612 98 l 608 143 l 589 143 l 589 78 q 584 73 589 75 l 575 73 q 572 76 572 73 l 572 143 l 551 143 m 622 143 l 622 124 l 639 124 q 642 121 642 123 l 642 105 l 637 98 l 637 97 l 642 90 l 642 54 l 663 54 l 663 90 l 668 97 l 663 104 l 663 121 q 667 124 663 124 l 684 124 l 684 143 l 622 143 m 689 143 l 689 124 l 707 124 q 711 121 711 123 l 711 105 l 704 97 q 711 85 711 94 l 711 54 l 730 54 l 730 90 l 736 98 q 730 105 734 98 l 730 121 q 733 124 730 124 l 751 124 l 751 143 l 689 143 m 764 143 l 764 105 l 758 97 q 764 90 760 97 l 764 54 l 819 54 l 819 73 l 787 73 q 783 76 783 73 l 783 85 q 787 88 784 88 l 809 88 l 809 109 l 787 109 q 783 112 783 109 l 783 121 q 787 124 784 124 l 819 124 l 819 143 l 764 143 m 835 143 l 835 105 l 828 97 q 835 90 831 97 l 835 54 l 854 54 l 854 79 l 857 79 q 869 54 869 56 l 892 54 l 892 56 l 878 83 q 890 98 890 88 l 890 127 q 871 143 890 143 l 835 143 m 948 143 l 948 105 q 941 97 948 104 q 948 90 944 97 l 948 54 l 1005 54 l 1005 73 l 970 73 q 967 76 967 73 l 967 85 q 970 88 968 88 l 993 88 l 993 109 l 970 109 q 967 112 967 109 l 967 121 q 970 124 968 124 l 1005 124 l 1005 143 l 948 143 m 1012 119 l 1012 117 q 1022 94 1018 111 q 1043 88 1028 88 l 1051 88 q 1055 85 1055 87 l 1055 76 q 1051 73 1055 73 l 1043 73 q 1038 83 1038 73 l 1019 83 l 1019 69 q 1038 54 1019 54 l 1057 54 q 1076 73 1076 54 q 1082 79 1078 73 q 1074 100 1076 79 q 1050 109 1067 109 l 1043 109 q 1038 114 1040 109 l 1038 117 q 1044 124 1038 120 l 1050 124 q 1057 112 1054 124 l 1060 114 l 1070 114 l 1074 112 l 1076 116 l 1076 126 q 1055 143 1076 143 l 1038 143 q 1017 121 1017 143 q 1012 119 1014 119 m 278 124 l 279 124 q 285 119 282 124 l 285 78 q 279 73 285 75 l 273 73 q 267 78 270 73 l 267 119 q 278 124 269 124 m 353 124 l 355 124 q 360 119 357 124 l 360 78 q 355 73 360 75 l 348 73 q 343 78 346 73 l 343 119 q 353 124 345 124 m 857 124 l 866 124 q 871 119 868 124 l 871 105 q 866 100 871 103 l 857 100 q 854 104 854 100 l 854 121 q 857 124 854 124 m 426 123 l 436 123 q 439 119 439 122 l 439 78 q 434 73 439 75 l 426 73 q 422 76 422 73 l 422 119 q 426 123 422 123 m 907 62 q 912 54 908 54 l 922 54 q 926 57 926 54 l 926 68 q 921 73 926 70 l 918 73 q 907 62 907 73 m 208 2 q 221 -3 221 -2 q 238 2 235 2 q 256 -8 250 2 l 254 -18 l 281 -77 q 309 -15 290 -66 q 326 2 311 2 q 341 -1 339 -1 q 362 2 353 2 q 374 -5 374 -1 l 374 -14 q 366 -28 366 -22 l 366 -66 q 385 -85 366 -77 l 386 -94 q 369 -111 386 -98 q 366 -121 366 -117 l 366 -149 q 372 -176 372 -175 q 366 -184 372 -179 l 355 -184 q 343 -180 343 -184 q 330 -184 337 -184 l 322 -184 q 311 -176 313 -184 l 311 -172 q 317 -149 317 -151 l 317 -113 l 305 -136 q 296 -139 305 -139 q 283 -137 290 -139 q 269 -139 276 -139 l 267 -139 q 248 -115 256 -139 l 247 -115 l 247 -151 q 254 -172 247 -153 l 254 -176 q 240 -184 252 -184 q 222 -182 232 -184 q 202 -184 214 -184 q 192 -172 192 -184 q 199 -151 192 -170 l 199 -110 q 178 -96 186 -106 q 197 -73 178 -88 l 197 -68 q 199 -28 197 -60 q 190 -8 190 -9 q 208 2 190 1 m 420 2 l 434 -3 q 452 2 448 2 q 469 -10 469 -1 q 467 -20 467 -19 l 494 -77 q 520 -17 502 -73 l 529 -1 q 539 2 529 2 q 555 -1 552 -1 q 574 2 567 2 q 587 -6 583 2 l 587 -14 l 578 -24 l 578 -66 q 597 -85 578 -77 q 600 -92 597 -90 q 582 -111 600 -98 q 578 -121 578 -117 l 578 -153 q 585 -175 585 -173 q 574 -184 583 -184 l 568 -184 q 556 -180 556 -184 q 543 -184 550 -184 l 536 -184 q 524 -176 526 -184 l 524 -173 q 529 -153 524 -169 l 529 -115 l 527 -115 q 510 -139 524 -139 q 496 -137 503 -139 q 482 -139 490 -139 l 481 -139 q 463 -117 467 -139 l 460 -115 l 460 -153 q 467 -168 460 -159 l 467 -176 q 453 -184 465 -184 q 436 -182 445 -184 q 415 -184 427 -184 l 412 -184 q 405 -176 409 -184 l 405 -166 q 412 -151 412 -157 q 410 -144 412 -147 q 412 -125 412 -132 l 412 -110 q 391 -96 404 -110 q 410 -73 391 -87 l 410 -58 q 412 -31 410 -48 q 404 -12 407 -16 l 404 -6 q 420 2 408 2 m 623 2 q 639 -3 636 -3 l 651 2 q 670 -8 662 2 l 668 -17 q 682 -44 679 -44 q 696 -3 694 -20 l 707 2 q 725 -3 711 2 q 742 2 739 2 q 755 -6 755 -3 l 755 -14 q 718 -77 718 -65 q 732 -94 732 -87 q 722 -108 732 -99 q 759 -170 737 -146 l 759 -176 q 744 -185 754 -185 l 728 -184 q 709 -185 716 -185 q 696 -176 701 -185 l 696 -175 q 697 -168 696 -171 q 680 -137 684 -137 l 678 -137 q 667 -159 678 -141 l 665 -166 l 667 -176 q 651 -185 660 -182 q 633 -184 649 -185 q 614 -185 618 -185 q 603 -178 603 -183 l 603 -172 q 641 -106 641 -119 q 630 -92 635 -104 q 646 -79 638 -79 q 604 -12 618 -26 l 604 -8 q 623 2 608 2 m 780 2 l 799 -3 q 811 2 807 2 q 828 -15 828 2 q 838 -43 828 -20 l 840 -43 l 854 -18 l 852 -10 l 852 -8 q 866 2 859 2 q 883 -3 883 -1 q 902 2 899 2 q 916 -12 916 -1 q 876 -77 897 -35 q 892 -91 891 -87 l 892 -96 q 880 -110 880 -107 q 919 -172 904 -154 l 919 -176 q 903 -185 919 -181 q 890 -184 899 -185 q 866 -185 876 -185 q 854 -159 855 -185 q 840 -137 842 -137 l 838 -137 q 825 -165 825 -161 l 825 -176 q 807 -185 825 -182 q 793 -184 795 -184 l 773 -185 q 763 -178 763 -182 l 763 -175 q 789 -132 763 -172 q 800 -106 800 -111 q 790 -91 790 -100 q 804 -80 797 -80 l 804 -79 q 764 -14 785 -35 l 764 -6 q 780 2 764 -2 m 977 2 q 993 -12 993 0 q 986 -33 986 -23 l 986 -54 q 985 -70 986 -61 q 1003 -91 985 -73 l 1003 -92 q 988 -110 1003 -102 l 985 -123 q 986 -147 986 -138 l 986 -155 q 993 -176 993 -174 q 977 -184 986 -184 q 960 -180 960 -184 q 947 -184 954 -184 l 941 -184 q 929 -172 929 -184 q 938 -149 938 -153 l 938 -134 q 921 -92 938 -110 l 921 -91 q 937 -68 937 -77 l 937 -31 q 929 -10 929 -12 l 929 -6 q 947 1 929 -1 q 960 -3 960 0 l 977 2 z "},"%":{"ha":1141,"x_min":0,"x_max":1104,"o":"m 599 990 q 891 861 644 990 l 993 795 q 1000 772 1000 779 q 916 546 966 652 q 901 503 901 514 l 987 470 q 1104 274 1104 401 q 1072 150 1104 210 q 947 81 1036 104 q 924 79 933 79 q 774 119 825 91 l 718 153 q 668 23 701 134 q 523 0 646 0 l 460 0 q 378 45 455 0 q 267 137 368 45 l 165 216 q 122 267 122 237 l 122 279 q 175 373 122 304 q 213 460 213 449 l 213 465 q 54 564 203 475 q 0 658 0 607 l 0 698 q 140 891 0 804 q 216 904 160 896 q 358 846 318 860 l 393 820 q 421 884 404 820 q 465 962 461 962 q 599 990 571 990 m 505 56 q 513 54 510 54 q 635 79 635 54 q 713 269 676 166 q 764 381 735 302 q 896 637 851 513 q 937 749 937 731 l 935 754 q 843 739 843 754 q 772 597 833 725 q 635 310 701 490 l 556 142 q 505 56 505 64 m 355 528 q 454 401 355 448 q 482 391 465 391 l 508 391 q 609 465 549 391 q 632 551 625 492 q 594 635 621 608 q 510 680 563 660 q 381 604 463 680 q 355 528 355 568 m 498 619 q 579 556 560 619 l 579 551 q 500 477 579 490 q 421 536 442 477 l 419 551 q 485 617 428 617 l 498 619 m 810 249 q 884 142 810 204 q 926 132 902 134 q 1028 180 963 132 q 1051 277 1051 239 q 975 414 1051 361 l 972 414 q 843 338 882 393 q 810 249 827 338 m 960 361 q 1015 300 1000 361 l 1015 287 q 957 205 1015 222 q 939 203 947 203 q 871 267 871 215 l 871 272 q 960 361 871 322 z "},"&":{"ha":983,"x_min":0,"x_max":974,"o":"m 350 1001 q 578 920 450 979 q 751 854 715 876 q 841 784 816 829 q 865 708 865 730 q 836 586 865 651 q 898 518 836 570 l 968 442 q 974 426 974 433 l 974 420 q 892 304 974 395 l 892 298 q 974 212 974 243 q 892 127 974 189 q 841 79 863 79 q 768 114 834 79 q 692 41 760 114 q 529 0 629 0 q 388 41 477 0 q 312 76 349 41 q 184 146 277 100 q 84 222 93 212 q 0 412 0 334 q 109 618 0 494 q 130 635 115 618 l 130 637 l 98 708 l 92 776 q 190 958 92 863 q 350 1001 269 1001 m 426 605 q 502 502 426 579 q 505 491 505 497 l 505 486 q 450 439 505 466 q 339 236 339 345 q 404 95 339 150 q 513 54 488 54 l 553 54 q 700 127 651 54 q 760 171 743 171 l 765 171 q 836 144 775 171 q 909 212 858 169 l 909 217 q 827 277 886 238 q 822 290 827 281 q 914 415 822 307 l 914 423 q 863 467 878 467 q 768 410 827 452 q 760 407 765 410 q 711 480 730 407 l 711 496 q 768 581 711 509 q 811 705 811 640 q 757 792 811 755 q 670 819 729 808 q 496 738 546 787 q 426 605 426 653 m 621 716 l 637 716 q 697 643 682 716 q 618 515 657 515 l 616 515 q 570 562 593 515 q 556 624 562 579 q 621 716 556 690 m 586 372 q 670 258 621 366 q 673 247 673 253 q 586 193 652 193 q 515 269 528 193 q 572 372 515 310 l 586 372 z "},"'":{"ha":235,"x_min":0,"x_max":0,"o":""},"(":{"ha":623,"x_min":0,"x_max":585,"o":"m 193 1074 q 533 964 465 1017 l 585 907 l 585 900 q 489 687 541 785 q 445 501 445 559 q 562 108 445 310 q 570 90 566 108 q 487 15 570 73 q 425 0 487 3 q 276 88 384 0 q 142 205 225 117 q 52 374 52 343 q 0 606 15 478 q 59 868 0 701 q 159 1044 123 996 q 193 1074 180 1074 m 484 934 q 379 753 416 823 q 320 572 320 685 q 313 450 313 526 l 313 437 q 391 171 313 324 q 460 59 401 125 q 511 98 485 67 q 396 496 396 313 q 465 751 396 591 q 528 895 490 781 q 484 934 497 934 z "},")":{"ha":627,"x_min":0,"x_max":584,"o":"m 118 1112 l 123 1112 q 340 1039 160 1112 q 453 949 413 1015 q 559 697 559 752 q 584 521 584 600 l 584 513 q 536 189 567 237 q 446 22 456 37 q 395 0 432 0 q 347 5 362 5 q 284 3 338 5 q 161 106 271 3 q 85 166 156 106 q 10 219 60 186 l 5 237 q 91 385 5 248 q 128 602 128 496 q 81 901 128 802 q 20 986 41 949 q 0 1009 5 986 l 0 1014 q 81 1095 1 1037 q 118 1112 105 1112 m 345 896 l 345 888 q 440 702 413 813 q 468 564 468 636 l 468 561 q 422 241 468 328 q 332 68 381 127 l 332 60 q 340 56 332 56 q 390 53 356 56 q 425 85 415 53 q 511 272 511 243 q 534 491 521 348 l 534 538 q 488 772 534 618 q 413 921 439 861 l 397 936 l 393 936 q 345 896 353 907 z "},"*":{"ha":694,"x_min":0,"x_max":0,"o":""},"+":{"ha":920,"x_min":13,"x_max":867,"o":"m 360 943 l 371 943 q 504 888 393 943 q 664 802 664 833 q 688 745 688 791 q 705 666 688 666 q 821 614 738 643 q 865 568 865 577 q 867 484 867 518 l 867 481 q 835 419 867 429 q 707 395 798 406 q 696 362 696 389 l 696 354 q 659 167 696 167 q 542 142 626 156 q 504 180 526 142 q 382 248 498 181 q 279 302 299 283 q 216 357 216 309 l 216 392 q 140 427 212 399 q 13 509 23 486 l 13 517 q 37 633 33 618 q 170 650 37 642 q 216 669 216 654 l 216 674 q 214 715 216 699 l 216 747 q 214 793 216 756 q 216 829 214 795 l 211 867 q 360 943 211 916 m 564 712 l 564 530 q 496 490 564 490 q 330 446 330 462 q 344 378 330 378 q 534 400 444 387 l 536 400 q 566 365 566 400 q 561 213 566 345 q 569 202 565 202 q 634 227 634 209 q 645 378 645 291 l 645 403 q 721 452 645 442 q 813 476 813 460 l 813 522 q 805 528 813 528 q 677 506 715 516 l 672 506 q 640 560 640 506 l 640 590 q 634 731 640 667 q 626 734 631 731 q 566 723 566 728 q 564 712 564 718 z "},",":{"ha":525,"x_min":30,"x_max":441,"o":"m 237 261 l 328 217 q 441 146 441 169 l 404 -22 q 357 -176 381 -82 q 237 -194 357 -189 q 191 -165 234 -194 q 125 -141 169 -152 q 30 -73 30 -88 l 30 -41 q 65 131 30 -7 q 98 219 92 212 q 189 252 107 235 q 237 261 211 261 m 267 -143 l 267 -145 q 273 -148 269 -145 q 317 -145 302 -145 q 348 -43 323 -138 q 383 109 383 58 q 377 111 379 111 q 299 75 299 102 q 267 -143 299 58 z "},"-":{"ha":665,"x_min":0,"x_max":610,"o":"m 252 757 q 369 689 280 750 l 486 627 q 586 581 536 601 q 610 450 610 566 l 610 448 q 572 410 602 410 q 326 382 525 410 l 309 382 q 184 448 298 382 q 14 556 157 456 q 0 591 3 570 q 35 741 6 741 l 228 754 l 241 754 q 252 757 248 754 m 334 483 q 347 439 334 439 q 553 464 530 464 l 556 469 l 556 483 q 543 529 556 529 q 339 494 374 505 q 334 483 334 487 z "},".":{"ha":561,"x_min":12,"x_max":503,"o":"m 148 397 q 335 281 186 393 q 406 251 373 258 q 503 142 487 193 l 503 134 q 411 37 503 119 q 354 -7 380 -7 l 351 -7 q 121 132 306 9 q 18 221 22 212 q 12 243 12 241 q 99 359 12 261 q 148 397 125 397 m 305 104 q 359 61 305 85 q 441 142 441 138 q 389 191 410 191 l 384 191 q 305 104 323 144 z "},"/":{"ha":386,"x_min":0,"x_max":0,"o":""},":":{"ha":378,"x_min":0,"x_max":0,"o":""},";":{"ha":591,"x_min":32,"x_max":536,"o":"m 181 912 q 368 795 220 907 q 439 766 406 772 q 536 657 520 708 l 536 649 q 444 551 536 634 q 387 508 413 508 l 385 508 q 154 646 339 524 q 51 736 55 726 q 45 758 45 756 q 132 874 45 776 q 181 912 158 912 m 338 619 q 393 576 338 600 q 474 657 474 652 q 422 706 443 706 l 417 706 q 338 619 356 659 m 287 451 l 398 397 q 536 310 536 338 l 490 104 q 433 -86 463 30 q 287 -108 433 -102 q 235 -75 281 -108 q 149 -43 203 -56 q 32 41 32 22 l 32 79 q 75 291 32 121 q 116 399 108 390 q 227 440 127 418 q 287 451 254 451 m 322 -45 l 322 -48 q 330 -51 325 -48 q 385 -48 367 -48 q 422 77 393 -40 q 466 264 466 202 q 458 267 460 267 q 363 223 363 256 q 322 -45 363 202 z "},"<":{"ha":857,"x_min":0,"x_max":825,"o":"m 499 888 l 507 888 q 722 769 589 850 q 817 728 783 739 q 825 707 825 709 q 822 704 825 704 l 825 685 q 806 566 818 566 q 681 463 778 534 q 594 403 595 408 q 700 357 655 383 q 789 311 789 323 q 795 294 792 294 q 792 286 795 292 q 795 232 795 246 q 754 151 790 151 l 751 151 q 361 262 593 183 q 68 370 89 354 q 0 441 0 405 l 0 528 q 38 606 11 606 q 298 766 133 644 q 407 837 329 793 q 499 888 429 858 m 369 370 q 401 308 369 308 q 730 208 500 267 q 741 224 741 210 q 722 289 741 289 q 618 338 718 289 q 507 387 507 372 l 507 400 q 616 481 507 428 q 762 598 671 517 q 768 620 768 608 l 768 644 q 762 650 768 650 l 757 650 q 461 454 669 589 l 372 376 l 369 370 z "},"=":{"ha":688,"x_min":0,"x_max":0,"o":""},">":{"ha":863,"x_min":9,"x_max":826,"o":"m 56 863 q 194 808 63 863 q 340 757 280 781 q 427 735 353 757 l 731 643 q 823 589 823 611 q 826 578 826 584 l 826 548 q 793 439 826 439 l 387 168 q 340 144 354 144 l 338 144 q 148 233 316 144 q 26 312 102 269 q 9 345 9 325 l 9 399 q 80 494 9 471 q 245 602 154 531 l 245 610 q 31 716 81 688 q 23 773 23 745 q 26 822 26 811 l 23 836 q 56 863 34 863 m 365 694 l 362 689 l 362 613 q 526 572 362 596 q 690 521 690 547 l 690 515 q 553 404 690 483 q 376 307 416 325 q 365 225 365 296 q 368 222 368 225 q 576 355 383 231 q 769 499 769 479 q 772 548 772 525 q 736 581 772 581 q 365 694 671 611 z "},"?":{"ha":863,"x_min":-34,"x_max":821,"o":"m 258 1017 q 561 946 371 1013 q 739 861 648 918 q 821 674 821 750 l 821 654 q 728 450 821 577 q 631 351 631 384 q 572 303 631 303 l 572 300 q 691 159 691 188 l 691 153 q 583 57 688 123 q 507 0 534 0 q 431 60 488 0 q 317 133 383 74 q 77 292 265 174 q 62 326 62 314 q 144 414 62 348 q 150 422 147 422 q 96 448 150 430 q 77 507 77 465 l 77 524 q 181 699 77 637 l 181 703 q -8 798 181 712 q -34 838 -34 824 q 57 971 -34 902 q 195 1011 98 1000 q 258 1017 246 1017 m 354 691 l 354 682 q 453 629 404 639 q 547 671 507 671 l 555 671 q 600 623 591 671 l 600 600 q 510 473 600 530 q 465 414 465 429 q 481 349 473 359 q 583 388 583 349 q 688 490 603 432 q 764 651 764 597 l 764 677 q 691 827 757 755 q 603 838 672 836 q 436 779 515 838 q 354 691 404 772 m 436 130 l 436 119 q 507 65 456 116 l 510 65 q 626 156 558 108 l 626 159 q 589 204 626 171 q 535 252 553 245 q 459 156 516 243 q 436 130 456 156 z "},"@":{"ha":1369,"x_min":0,"x_max":0,"o":""},"A":{"ha":991,"x_min":0,"x_max":990,"o":"m 480 1001 q 591 955 508 983 q 757 901 698 926 q 879 622 808 901 q 990 157 949 343 q 890 95 990 119 q 770 52 817 78 l 751 52 q 716 171 730 52 q 708 174 711 174 q 589 136 589 161 q 545 5 582 5 q 491 0 507 0 q 385 8 453 5 q 339 5 357 5 q 217 52 262 5 q 122 125 212 52 q 30 190 89 143 q 0 222 0 206 q 57 477 27 371 q 171 833 146 743 q 209 949 209 947 q 304 968 209 961 q 480 1001 429 1001 m 361 60 q 366 54 361 54 l 377 54 q 429 60 382 54 q 507 57 450 60 q 532 92 532 57 q 553 195 540 115 q 732 231 622 220 q 776 127 776 231 q 784 117 781 117 l 795 117 q 928 163 922 163 l 933 171 q 749 827 761 827 q 556 784 621 808 q 521 705 532 784 q 399 250 461 515 q 361 60 385 171 m 648 600 l 659 600 q 719 496 682 592 q 751 366 724 458 q 675 328 751 328 q 608 326 660 328 q 572 355 572 332 q 610 556 572 368 q 648 600 623 600 z "},"B":{"ha":964,"x_min":0,"x_max":882,"o":"m 353 1017 q 651 903 459 1017 l 798 808 q 865 681 852 751 q 873 643 871 681 q 817 524 873 576 l 808 513 l 808 507 q 882 296 882 439 q 814 117 882 241 q 572 35 709 35 q 355 0 426 0 q 144 122 268 31 q 27 206 27 177 l 27 217 q 0 735 27 440 q 24 949 7 945 q 350 1017 195 1017 l 353 1017 m 347 765 q 361 477 347 640 q 358 233 358 307 q 372 57 358 57 l 396 57 q 567 87 417 57 q 730 125 680 98 q 789 187 789 157 q 830 307 817 231 q 798 439 820 400 q 735 486 767 472 q 730 505 730 503 q 798 581 730 511 q 819 635 816 603 l 819 646 q 754 773 796 746 q 656 795 721 795 l 524 795 q 350 770 452 795 l 347 765 m 559 684 q 665 608 665 684 l 665 586 q 591 513 656 529 q 567 510 576 510 l 551 510 q 524 553 524 510 l 524 621 q 559 684 524 684 m 556 415 q 675 342 654 415 q 686 298 686 315 q 646 217 677 245 q 583 198 614 198 l 581 198 q 534 260 534 198 q 529 385 534 316 q 556 415 535 415 z "},"C":{"ha":922,"x_min":-20,"x_max":850,"o":"m 463 1012 q 688 955 555 1010 q 826 873 749 935 q 831 857 831 865 l 831 827 q 850 686 850 738 l 850 640 q 812 608 850 610 q 734 627 781 627 q 601 553 703 627 q 574 486 574 500 q 734 399 623 443 q 812 350 750 384 q 823 307 823 325 q 818 233 818 264 l 818 149 q 823 35 818 121 q 693 -27 823 7 l 677 -27 q 495 19 629 -27 q 343 106 391 69 q 88 271 277 123 q 9 388 18 332 q -20 510 -9 429 q 15 703 -7 692 q 167 911 67 799 q 294 982 175 941 q 463 1012 410 1012 m 319 326 q 357 203 319 264 q 509 73 397 117 q 682 24 637 24 q 769 62 769 49 q 764 155 764 135 l 766 171 q 764 206 764 189 l 764 250 q 758 255 764 255 q 639 239 732 239 q 528 317 592 239 q 500 420 500 362 q 533 534 500 475 q 601 621 541 574 q 688 670 685 670 q 728 681 720 681 l 742 681 q 793 675 788 675 q 796 684 796 681 q 774 822 796 761 l 766 822 q 395 597 567 822 q 319 396 358 547 l 319 326 z "},"D":{"ha":1003,"x_min":0,"x_max":952,"o":"m 298 979 l 369 979 q 686 933 498 979 q 808 846 789 867 q 882 730 860 779 q 952 488 952 630 q 903 274 935 310 q 670 68 832 144 q 426 3 636 42 l 410 3 l 382 5 q 355 0 359 0 l 304 30 q 136 136 215 62 q 38 239 38 201 q 0 713 38 286 l 0 738 q 16 898 0 751 q 14 922 16 907 q 81 968 27 968 q 298 979 133 974 m 377 825 l 377 738 l 388 496 q 382 160 382 256 q 385 119 382 153 q 382 71 382 109 l 382 65 q 399 57 385 57 l 412 57 q 640 111 473 57 q 803 228 756 169 q 887 393 878 307 q 898 486 898 476 q 779 773 898 659 q 407 849 718 849 l 401 849 q 377 825 377 849 m 602 624 q 708 575 670 610 q 743 472 743 527 q 608 263 743 345 l 591 260 l 586 260 q 548 353 548 260 q 545 404 545 367 l 545 469 q 586 621 545 621 l 602 624 z "},"E":{"ha":842,"x_min":0,"x_max":822,"o":"m 415 1009 q 608 949 435 996 q 743 879 743 910 q 773 730 760 861 q 781 686 781 718 l 781 675 q 727 621 781 621 q 635 613 727 616 l 629 605 l 629 602 q 640 594 629 594 l 667 597 q 722 545 722 597 q 741 369 724 369 q 819 320 819 332 l 822 304 q 800 73 822 73 q 461 8 631 49 q 380 0 433 3 q 290 49 361 0 q 46 184 153 109 q 14 233 14 206 q 16 369 14 310 q 14 589 14 474 l 0 732 q 19 936 6 929 q 95 955 30 945 q 274 982 135 965 q 396 1004 309 993 q 415 1009 396 1008 m 374 770 q 391 57 374 57 l 410 57 q 659 106 445 57 q 762 133 762 115 l 770 279 q 765 288 768 288 q 600 266 648 274 q 562 328 562 266 q 556 372 562 333 q 602 412 556 404 q 670 410 643 410 l 673 415 q 667 537 667 500 l 662 540 l 656 540 q 605 534 637 540 q 575 567 575 544 l 575 572 l 578 589 l 567 627 q 722 673 567 673 l 727 681 l 727 684 q 705 833 713 757 l 703 833 q 377 776 654 833 l 374 770 z "},"F":{"ha":806,"x_min":0,"x_max":770,"o":"m 385 998 q 564 939 442 998 q 757 857 757 895 q 770 713 770 779 l 770 659 q 697 616 770 616 q 610 600 610 610 q 716 540 716 559 q 722 507 716 537 q 697 342 722 342 q 600 317 697 333 q 589 298 589 310 l 589 157 q 591 60 589 120 q 450 22 591 30 q 334 0 430 22 q 258 46 302 0 q 117 141 205 71 q 3 212 3 193 q 0 241 0 230 l 0 317 q 14 564 0 365 q 11 608 11 592 l 11 675 q 14 922 11 764 q 111 966 14 956 q 385 998 261 998 m 347 765 l 347 749 q 345 667 347 699 q 372 68 353 405 l 377 65 l 534 87 l 537 100 l 537 290 q 532 342 532 336 q 648 380 532 368 q 665 439 665 380 q 667 480 665 453 q 659 483 662 483 q 572 475 604 475 q 545 502 545 482 q 551 534 551 521 l 551 575 q 572 651 551 651 q 713 673 595 659 l 719 681 l 719 722 q 705 825 710 812 q 697 830 699 830 q 442 789 545 798 q 347 765 347 772 z "},"G":{"ha":1013,"x_min":-14,"x_max":960,"o":"m 412 1012 l 429 1012 q 746 914 507 1012 q 944 773 944 853 q 863 594 924 711 l 863 589 q 930 532 928 543 q 960 206 960 229 q 936 95 960 95 q 703 5 936 71 q 616 0 631 0 q 304 125 500 0 q 149 222 256 145 q 30 315 86 248 q -14 540 -14 355 q 73 811 -14 661 q 195 928 151 904 q 412 1012 351 1012 m 347 415 q 415 127 347 210 q 551 62 471 85 l 618 52 q 784 84 682 52 q 903 146 903 119 q 906 179 906 161 l 906 222 q 879 496 884 460 q 871 499 873 499 q 705 480 705 494 l 659 382 q 662 374 662 377 l 716 374 q 765 342 765 372 l 762 328 l 762 296 q 689 239 762 239 l 648 239 q 513 323 572 239 q 499 415 499 378 q 637 608 499 539 q 762 629 677 629 l 770 629 q 781 632 777 629 q 811 627 811 629 q 865 722 826 630 q 882 768 880 746 q 854 779 882 777 q 526 711 606 779 q 429 621 493 697 q 347 415 353 517 z "},"H":{"ha":977,"x_min":0,"x_max":909,"o":"m 567 1004 q 817 911 729 960 q 892 873 852 911 q 903 844 903 850 l 909 515 q 903 274 903 352 l 903 184 q 882 92 900 92 l 865 90 l 857 90 q 681 62 753 90 q 597 92 670 62 l 591 92 q 526 35 591 35 q 355 0 471 14 l 334 0 q 190 73 287 13 q 90 133 176 73 q 3 201 3 180 q 0 247 3 210 q 16 559 0 290 l 16 700 q 22 863 16 789 q 19 901 19 880 q 136 949 19 931 q 236 971 200 971 q 315 933 248 971 l 328 933 q 401 979 328 979 q 567 1004 467 985 m 703 776 q 713 556 703 730 q 594 526 713 526 l 562 526 q 521 618 521 526 l 521 735 q 510 773 521 773 l 483 773 q 301 743 301 753 l 301 640 q 326 391 301 584 q 331 225 326 377 q 328 176 331 220 q 342 54 332 54 l 345 54 q 534 95 421 54 l 534 309 q 659 355 534 355 q 703 282 703 355 q 716 130 703 196 l 722 130 l 844 146 q 849 176 849 157 l 849 274 q 854 524 849 343 q 846 817 854 621 q 838 819 841 819 q 703 776 832 819 z "},"I":{"ha":671,"x_min":0,"x_max":591,"o":"m 222 990 l 231 990 q 445 911 239 990 q 572 868 481 911 q 591 803 583 868 l 583 469 q 586 429 586 435 q 578 165 583 267 l 583 62 q 505 14 561 14 q 404 0 493 9 q 279 24 297 0 q 127 98 201 68 q 19 184 89 136 q 11 209 11 203 q 14 401 11 277 q 0 784 14 470 l 0 884 q 68 955 0 937 q 222 990 112 976 m 374 760 l 374 505 q 358 149 358 237 q 361 62 361 91 q 380 54 371 54 l 391 54 q 529 79 529 62 l 526 92 l 526 109 q 524 165 526 147 q 532 434 528 243 q 529 469 529 468 q 540 792 534 734 q 529 806 534 804 q 374 760 378 770 z "},"J":{"ha":767,"x_min":0,"x_max":722,"o":"m 342 1015 q 524 968 412 993 q 648 928 552 947 q 722 876 722 902 q 694 350 708 749 q 613 92 694 193 q 483 22 549 42 q 393 0 448 11 q 304 49 366 0 q 117 155 183 105 q 33 250 33 214 q 0 418 0 414 q 79 450 0 450 q 114 486 114 461 l 114 724 q 136 949 119 949 q 312 1009 160 969 q 342 1015 336 1013 m 486 798 l 486 727 q 483 597 486 669 l 488 532 q 486 377 486 444 l 486 358 q 431 241 486 241 q 377 231 431 237 q 412 84 377 195 q 423 62 412 62 q 564 110 543 92 q 610 187 585 128 q 643 353 643 280 q 662 825 654 747 l 656 827 q 486 798 486 811 z "},"K":{"ha":926,"x_min":0,"x_max":890,"o":"m 510 1034 q 640 982 570 1023 q 836 879 787 921 q 865 822 865 864 q 762 507 863 799 q 830 315 800 393 q 890 133 890 180 q 806 95 890 101 l 648 68 l 646 68 q 564 95 635 68 q 556 90 556 92 q 524 11 556 11 l 515 11 q 391 0 452 11 l 307 0 q 127 111 272 0 q 27 168 93 134 q 11 209 14 184 q 14 274 14 272 q 3 532 14 311 q 5 643 5 594 q 0 865 0 822 l 3 865 q 0 873 0 871 q 49 925 0 925 l 98 925 q 206 952 106 925 q 225 955 210 955 q 293 933 286 933 l 296 933 q 320 979 302 935 q 464 1023 355 1004 q 510 1034 494 1034 m 524 475 q 494 540 494 475 q 486 637 486 590 l 486 681 q 488 749 486 704 l 483 751 l 480 751 l 339 713 q 334 705 336 705 q 336 564 336 607 l 336 339 q 328 171 336 271 q 336 60 336 106 l 336 57 l 350 54 l 380 54 q 499 71 499 65 l 502 87 l 502 206 q 524 366 502 366 l 537 369 l 543 369 q 608 244 578 369 q 654 125 629 196 l 659 125 q 830 155 744 138 l 830 160 q 749 380 830 175 q 708 510 708 500 q 806 803 708 517 q 800 808 806 808 q 648 784 648 808 q 575 559 617 639 q 532 475 546 476 l 524 475 z "},"L":{"ha":791,"x_min":0,"x_max":781,"o":"m 239 993 q 424 923 269 993 q 578 830 578 853 q 583 811 581 811 q 581 716 581 747 l 581 461 q 713 385 621 425 q 779 309 755 385 l 776 296 l 776 231 q 781 136 776 205 q 732 71 781 71 q 426 14 530 35 q 353 0 364 0 q 250 41 294 14 l 152 100 q 35 179 52 179 q 5 244 5 199 q 0 350 5 307 q 3 548 3 468 l 3 648 q 0 741 3 688 q 5 882 3 746 l 3 906 q 68 958 17 958 q 239 993 222 993 m 363 741 l 363 363 q 366 68 363 262 q 372 60 369 60 q 515 87 395 60 q 694 125 694 113 q 727 144 727 138 q 722 233 722 194 l 722 282 q 716 290 716 289 q 575 277 701 290 q 524 304 524 279 l 526 331 l 526 694 q 529 789 526 726 l 524 792 l 507 792 q 401 751 412 751 q 363 741 363 751 z "},"M":{"ha":1081,"x_min":0,"x_max":1028,"o":"m 594 1028 l 798 968 q 987 898 987 920 q 1028 155 1009 614 q 996 117 1028 127 l 817 73 l 814 73 q 770 109 802 73 q 719 141 732 141 q 659 43 692 43 q 540 111 611 62 l 537 111 l 532 103 l 532 38 q 496 8 532 16 q 307 0 340 5 q 201 54 273 13 q 71 138 156 72 q 0 198 0 167 q 46 876 0 219 q 122 930 83 930 q 228 955 157 943 q 260 963 228 958 l 263 963 q 401 920 390 920 l 404 920 q 423 971 408 920 q 594 1028 491 1017 m 681 532 l 667 532 q 600 716 644 532 q 575 773 582 773 l 567 773 q 393 732 447 741 q 369 494 387 732 q 328 62 328 230 q 334 57 334 62 l 472 62 q 477 76 477 71 q 475 81 477 81 q 529 353 492 349 l 540 353 q 635 187 577 353 l 659 152 l 665 152 q 724 298 675 216 q 757 388 734 320 q 789 412 770 412 q 814 350 814 412 q 836 184 836 201 l 836 155 l 838 136 l 846 136 q 971 165 904 152 l 974 179 q 966 417 974 213 q 933 817 958 621 q 925 819 928 819 q 792 792 792 806 q 727 616 792 783 q 681 532 709 532 z "},"N":{"ha":1013,"x_min":0,"x_max":930,"o":"m 583 1015 q 727 958 597 1015 q 906 898 753 958 q 930 865 930 884 l 922 363 q 920 136 922 280 q 884 117 911 117 l 868 117 q 692 100 808 117 q 578 138 671 100 q 570 133 570 136 q 534 33 570 33 l 339 0 l 323 0 q 168 90 279 0 q 11 198 123 99 q 0 250 3 220 q 3 350 0 306 q 0 719 0 553 l 0 776 q 19 901 0 901 q 106 933 19 927 q 241 949 203 941 q 339 906 294 931 q 377 892 366 892 l 380 898 l 380 911 q 442 979 380 960 q 583 1015 497 987 m 732 532 q 735 496 732 530 q 705 469 727 469 q 640 551 674 469 q 534 741 611 589 q 513 760 518 760 q 372 735 431 743 q 363 719 363 728 l 363 713 q 358 559 363 652 q 361 214 361 262 q 358 62 358 92 q 363 57 363 62 q 507 81 436 73 q 515 119 515 92 l 515 187 q 496 396 515 260 q 521 418 505 418 q 648 247 570 418 q 713 160 678 214 q 722 157 719 157 q 860 171 800 171 l 863 171 q 868 258 868 199 q 879 762 879 728 l 879 776 q 871 825 879 825 q 738 792 738 806 q 732 532 732 644 z "},"O":{"ha":1099,"x_min":-20,"x_max":1043,"o":"m 389 1004 l 403 1004 q 631 936 463 1004 q 807 863 662 915 q 913 800 838 840 q 1043 543 1043 709 q 1040 453 1040 496 l 1040 448 q 1008 290 1032 340 q 818 68 964 176 q 693 11 777 25 q 614 0 637 0 l 612 0 q 481 30 575 0 q 370 79 466 30 l 292 149 q 213 209 288 149 q 104 296 187 222 q 15 391 66 313 q -20 502 -20 454 l -20 545 q 37 713 -20 591 q 153 898 52 775 q 281 979 245 979 q 389 1004 351 1004 m 319 401 l 319 380 q 387 171 319 298 q 522 73 465 91 q 614 54 579 54 q 764 90 680 54 q 932 258 892 193 q 989 545 989 329 q 823 787 989 718 q 739 827 764 827 l 701 827 q 457 703 583 827 q 354 534 376 604 q 319 401 319 462 m 701 640 l 704 640 q 807 600 807 621 q 842 469 827 600 l 842 458 q 799 323 842 391 q 671 241 727 241 l 669 241 q 541 355 564 241 q 538 401 538 376 l 538 437 q 609 608 538 498 q 701 640 652 640 z "},"P":{"ha":907,"x_min":0,"x_max":890,"o":"m 298 998 q 317 996 307 998 q 372 998 348 998 l 393 998 q 618 944 498 998 q 817 825 693 925 q 884 678 848 795 q 890 635 890 644 q 716 315 890 404 q 608 266 613 274 l 608 258 q 564 5 598 5 q 556 3 559 3 q 499 5 547 3 l 464 0 q 426 3 430 3 q 382 0 422 3 q 296 38 326 0 l 182 106 q 14 247 14 195 q 11 304 11 282 q 16 659 11 452 q 11 795 11 740 l 11 860 q 0 909 11 876 l 0 917 q 84 960 23 960 q 298 998 121 971 m 361 757 l 361 703 q 358 629 361 667 q 366 524 366 567 l 366 494 l 355 312 q 358 222 358 252 q 355 87 358 195 q 380 54 355 54 q 429 57 424 57 q 461 54 457 54 q 510 60 488 60 l 529 60 q 553 277 548 60 q 608 326 553 326 q 716 374 680 361 q 822 529 822 459 q 838 632 828 529 q 789 773 838 671 q 724 819 776 798 q 640 838 724 833 l 637 838 q 475 806 627 838 q 363 773 363 793 l 361 757 m 564 681 l 570 681 q 686 564 686 659 q 610 456 686 511 q 578 445 592 445 l 562 445 q 537 502 537 454 q 534 518 534 506 q 537 575 534 528 q 534 651 534 622 q 564 681 540 681 z "},"Q":{"ha":1162,"x_min":-20,"x_max":1095,"o":"m 411 1015 l 422 1015 q 620 971 477 1015 q 845 879 770 940 q 986 781 926 838 q 1081 627 1060 703 q 1095 502 1095 585 l 1095 472 q 997 233 1095 403 q 986 214 986 229 q 1029 152 1029 174 q 937 62 1029 117 q 856 0 882 0 q 774 52 836 0 l 769 52 q 636 5 696 5 q 609 0 636 1 q 446 54 541 0 q 302 168 307 168 q 194 233 271 178 q 56 331 56 300 q -20 494 -20 402 l -20 515 q 126 865 -20 720 q 232 952 168 931 q 411 1015 323 1015 m 335 396 l 335 385 q 397 168 335 317 q 612 54 507 54 l 614 54 q 747 103 708 68 q 772 111 760 111 q 853 60 789 111 l 856 60 q 948 133 937 133 q 967 152 967 149 l 967 155 q 924 195 967 158 q 918 203 918 202 l 918 222 q 975 304 965 279 q 1043 491 1043 427 l 1043 494 q 962 727 1043 648 q 788 827 918 794 q 753 833 776 833 l 745 833 q 544 776 717 833 q 411 627 484 746 q 335 396 335 504 m 693 643 l 712 643 q 804 591 755 640 q 850 458 850 525 q 726 258 850 294 q 685 252 700 252 q 536 372 577 252 q 528 426 530 381 q 639 632 528 537 q 693 643 668 643 z "},"R":{"ha":958,"x_min":0,"x_max":892,"o":"m 380 1001 q 757 906 669 943 q 860 784 860 844 q 890 624 890 713 l 890 602 q 787 426 890 498 q 781 415 781 419 q 865 217 787 367 q 892 130 892 149 q 798 92 892 102 q 673 68 756 92 q 643 65 654 65 l 578 79 l 575 79 q 556 49 561 52 q 401 16 520 38 q 342 0 401 13 l 334 0 q 214 49 303 9 q 16 201 156 64 q 11 250 13 246 q 14 342 14 307 l 14 510 q 3 798 3 758 l 3 917 q 0 928 3 923 q 68 963 0 963 q 336 998 189 974 l 380 1001 m 347 749 q 350 703 347 734 q 353 274 353 406 q 358 206 358 210 q 353 133 353 154 l 353 65 q 358 60 353 60 l 515 95 l 518 122 l 518 144 q 510 244 518 168 l 510 269 q 532 366 513 366 l 543 366 q 613 247 568 366 q 675 125 673 125 l 681 125 q 822 149 722 141 q 830 157 822 151 q 749 334 819 190 q 711 429 730 410 l 711 437 q 757 469 711 453 q 836 594 836 527 l 836 616 q 773 806 836 766 q 705 819 732 819 q 450 795 450 807 q 347 749 347 777 m 551 635 l 570 635 q 667 567 632 635 q 673 529 673 543 q 591 439 673 474 q 562 437 576 437 q 521 551 521 437 l 521 605 q 551 635 521 627 z "},"S":{"ha":907,"x_min":0,"x_max":852,"o":"m 347 1020 q 594 968 514 1004 q 779 922 675 944 q 825 903 786 916 q 849 854 849 888 q 836 656 841 805 q 803 608 829 608 l 765 608 q 670 613 677 613 l 654 613 q 586 583 586 596 l 586 575 q 654 537 599 551 q 819 458 755 515 q 852 399 852 430 l 852 361 q 795 168 852 279 q 618 24 727 60 q 461 -14 509 -14 l 415 -14 q 307 19 307 5 q 206 92 288 19 l 57 184 q 16 236 25 184 l 16 239 q 27 339 16 244 q 24 391 24 365 l 24 396 q 57 439 24 439 l 184 439 q 255 456 241 439 q 122 499 255 473 q 0 670 0 560 l 0 732 q 73 892 0 819 q 190 982 117 951 q 347 1020 285 1020 m 345 553 l 345 545 q 393 426 345 490 q 556 377 490 385 q 635 298 635 348 l 635 296 q 570 222 635 254 q 496 209 534 209 l 393 209 q 385 203 387 203 q 391 90 391 144 l 391 71 l 388 54 q 412 41 388 41 l 467 41 q 689 122 608 62 q 798 377 798 231 l 798 393 q 684 475 798 429 q 553 529 589 492 q 529 575 529 555 l 529 586 q 648 667 529 639 l 689 667 q 776 659 755 659 q 784 678 784 669 q 787 779 784 710 q 784 808 784 797 l 787 808 q 735 830 787 830 q 656 836 680 830 q 543 806 570 825 q 382 646 407 734 q 345 553 345 576 z "},"T":{"ha":833,"x_min":-27,"x_max":808,"o":"m 461 1009 q 591 952 510 997 q 792 849 662 927 q 803 817 798 841 q 800 803 803 808 q 808 627 808 644 l 808 624 q 751 581 808 581 q 681 562 681 570 q 667 345 670 477 q 670 187 670 273 l 670 179 q 646 54 670 54 q 505 16 593 30 q 461 0 476 0 l 453 0 q 312 84 376 34 q 179 163 219 122 q 114 231 114 195 q 106 426 114 283 l 106 494 q 117 583 106 518 q -14 670 44 647 q -27 697 -27 686 l -27 703 q 0 868 -27 715 q 22 944 0 944 q 155 968 22 954 q 363 998 180 968 q 461 1009 374 998 m 323 564 l 331 559 l 380 564 q 461 515 461 564 l 461 502 q 486 71 467 242 l 491 68 q 610 98 553 77 q 616 146 616 111 l 616 209 q 613 342 616 276 q 629 600 616 456 q 711 627 646 627 q 754 640 752 630 l 754 646 q 746 803 746 792 q 735 806 736 806 l 355 751 q 323 564 342 751 z "},"U":{"ha":935,"x_min":0,"x_max":882,"o":"m 491 1035 q 722 953 566 1029 q 879 821 879 877 l 882 557 q 841 148 869 193 q 686 1 814 66 q 518 -34 551 -34 l 477 -34 q 372 12 435 -34 q 160 132 192 91 q 90 191 160 136 q 11 308 11 291 q 0 381 0 345 q 3 734 0 498 q 0 872 0 823 q 212 935 0 909 q 239 943 219 941 q 296 921 243 943 q 345 989 314 989 q 491 1035 420 1017 m 684 747 q 686 555 686 623 l 686 495 q 692 422 692 429 l 692 387 q 651 205 692 237 l 591 186 l 578 186 q 537 338 537 186 q 532 403 532 372 l 532 449 q 545 720 545 672 q 540 726 540 720 l 358 685 l 355 680 q 358 568 355 665 q 355 473 358 528 q 358 378 358 419 q 353 218 353 245 q 431 37 353 138 q 475 20 458 20 l 529 20 q 741 102 705 49 q 806 237 806 151 q 827 560 827 423 l 827 571 l 822 783 q 817 788 817 783 q 686 753 695 762 l 684 747 z "},"V":{"ha":920,"x_min":-34,"x_max":932,"o":"m 617 1025 l 633 1025 q 755 974 647 1025 q 872 911 775 967 q 932 844 932 891 l 799 184 q 772 43 774 87 q 547 14 772 25 q 481 0 513 8 l 473 0 q 224 160 385 21 q 148 220 200 184 q -34 890 112 248 q 129 971 -34 929 q 224 1001 191 1001 q 278 971 234 1001 l 340 949 q 359 982 345 949 q 471 1012 384 1012 q 617 1025 541 1025 m 788 806 l 734 806 q 709 711 726 806 q 650 434 685 569 q 623 350 650 360 l 606 350 q 574 439 589 350 q 500 749 511 672 q 492 751 495 751 q 340 716 374 727 l 340 713 q 452 193 340 673 q 492 60 476 60 l 715 81 q 750 231 727 81 l 872 800 l 867 811 q 788 806 840 806 z "},"W":{"ha":1111,"x_min":-27,"x_max":1109,"o":"m 760 1020 l 762 1020 q 892 963 796 1020 q 1101 865 1088 884 q 1109 830 1109 852 q 990 209 1109 808 q 960 92 970 102 q 868 71 930 71 q 757 54 837 71 q 713 152 728 54 q 694 231 711 153 l 689 231 q 618 27 627 40 q 404 0 618 11 q 198 117 356 0 q 92 252 92 206 q 38 567 92 303 q -27 865 -11 814 l -27 868 q 92 930 -27 900 q 174 958 125 954 q 255 901 196 958 q 293 882 283 882 q 334 939 301 918 q 469 977 404 977 q 562 941 497 977 l 564 941 q 613 982 581 982 q 760 1020 677 1020 m 998 806 l 933 806 q 865 445 928 806 q 844 431 857 431 l 838 431 q 800 507 813 431 q 743 713 765 584 q 730 768 739 768 l 727 768 q 648 743 648 760 q 586 434 648 723 q 562 420 572 420 q 518 505 534 420 q 437 732 486 578 l 426 732 q 309 703 309 713 l 309 700 q 399 228 309 640 q 437 57 425 57 q 583 81 583 57 q 662 342 640 247 q 694 363 675 363 q 751 214 735 363 q 781 117 775 118 q 882 125 861 125 l 906 125 q 947 282 924 125 q 1002 546 955 312 q 1050 803 1050 781 q 1044 808 1044 803 q 998 806 1013 806 z "},"X":{"ha":953,"x_min":0,"x_max":936,"o":"m 548 1015 q 806 936 618 1015 q 922 868 922 907 q 825 616 922 819 q 760 450 766 477 q 836 328 785 405 q 914 195 836 321 q 936 144 936 155 q 849 100 936 116 q 678 65 826 87 l 673 65 l 583 106 q 548 27 573 106 q 475 5 534 5 l 393 5 q 323 0 368 5 q 269 46 316 0 q 127 130 217 82 q 0 233 0 203 l 0 239 q 138 524 0 282 q 163 572 163 557 l 163 575 q 117 662 163 587 q 22 892 62 774 l 22 898 q 73 939 33 939 q 266 968 246 968 l 350 947 q 404 1001 367 1001 q 548 1015 404 1010 m 716 817 q 678 746 705 817 q 621 605 647 605 q 581 708 594 605 q 543 776 557 776 l 540 776 q 372 754 457 776 l 372 749 q 426 618 372 738 q 494 442 445 549 l 494 437 q 407 184 494 404 q 363 68 387 151 q 366 60 366 62 l 496 60 q 551 206 509 63 q 616 312 602 312 l 624 312 q 697 127 668 312 q 705 122 705 125 q 868 165 849 147 q 787 301 860 184 l 708 431 l 705 448 q 770 624 705 475 q 852 814 852 804 l 846 817 q 800 819 829 817 q 716 817 750 817 z "},"Y":{"ha":887,"x_min":-47,"x_max":899,"o":"m 571 1020 q 707 966 596 1020 q 886 901 791 933 q 899 857 899 872 q 777 448 899 835 q 644 52 736 285 q 563 14 635 14 q 397 0 422 0 q 262 98 341 12 q 113 187 141 187 q 53 236 53 206 q 88 301 53 255 q 153 461 105 361 l 156 475 q -20 857 156 492 q -47 922 -47 897 q 34 958 -47 944 q 202 990 85 974 l 205 990 q 278 955 217 990 q 308 947 299 947 q 349 1004 328 1004 q 427 1017 386 1017 q 571 1020 517 1020 m 590 581 q 536 675 566 581 q 476 781 486 778 q 319 749 319 756 l 319 746 l 416 521 q 495 336 433 462 q 503 298 503 307 q 438 109 478 197 q 430 60 430 73 q 438 57 435 57 q 595 76 595 66 q 693 347 629 149 q 760 576 715 434 q 837 817 804 718 q 840 833 840 831 q 831 836 834 836 q 680 806 680 817 q 601 581 635 581 l 590 581 z "},"Z":{"ha":871,"x_min":0,"x_max":830,"o":"m 483 998 q 789 868 525 998 q 830 827 830 851 q 768 673 805 740 q 700 464 729 536 q 689 434 696 464 q 800 382 689 425 q 825 326 811 373 l 825 255 q 792 73 819 73 q 515 27 740 49 q 304 0 515 19 q 244 41 297 0 q 71 146 198 47 q 0 195 31 160 l 0 209 q 84 407 0 222 l 149 624 q 41 673 145 629 q 8 735 17 696 q 49 933 37 933 q 68 941 59 941 l 81 941 l 98 939 q 418 993 123 952 q 483 998 429 993 m 358 597 l 358 589 q 363 583 359 583 q 491 602 400 591 q 518 575 518 595 q 418 298 475 428 q 350 95 380 162 l 342 62 q 347 57 347 62 q 670 100 425 65 q 762 130 762 109 q 770 271 770 202 l 770 293 q 765 298 770 298 q 632 279 660 279 q 597 315 610 279 q 681 564 597 359 q 751 760 720 718 q 762 798 762 786 q 754 800 757 800 q 483 770 618 770 q 385 749 385 757 q 358 597 358 642 z "},"[":{"ha":514,"x_min":0,"x_max":0,"o":""},"\\":{"ha":386,"x_min":0,"x_max":0,"o":""},"]":{"ha":514,"x_min":0,"x_max":0,"o":""},"^":{"ha":688,"x_min":0,"x_max":0,"o":""},"_":{"ha":694,"x_min":0,"x_max":0,"o":""},"`":{"ha":694,"x_min":0,"x_max":0,"o":""},"a":{"ha":991,"x_min":0,"x_max":990,"o":"m 480 1001 q 591 955 508 983 q 757 901 698 926 q 879 622 808 901 q 990 157 949 343 q 890 95 990 119 q 770 52 817 78 l 751 52 q 716 171 730 52 q 708 174 711 174 q 589 136 589 161 q 545 5 582 5 q 491 0 507 0 q 385 8 453 5 q 339 5 357 5 q 217 52 262 5 q 122 125 212 52 q 30 190 89 143 q 0 222 0 206 q 57 477 27 371 q 171 833 146 743 q 209 949 209 947 q 304 968 209 961 q 480 1001 429 1001 m 361 60 q 366 54 361 54 l 377 54 q 429 60 382 54 q 507 57 450 60 q 532 92 532 57 q 553 195 540 115 q 732 231 622 220 q 776 127 776 231 q 784 117 781 117 l 795 117 q 928 163 922 163 l 933 171 q 749 827 761 827 q 556 784 621 808 q 521 705 532 784 q 399 250 461 515 q 361 60 385 171 m 648 600 l 659 600 q 719 496 682 592 q 751 366 724 458 q 675 328 751 328 q 608 326 660 328 q 572 355 572 332 q 610 556 572 368 q 648 600 623 600 z "},"b":{"ha":964,"x_min":0,"x_max":882,"o":"m 353 1017 q 651 903 459 1017 l 798 808 q 865 681 852 751 q 873 643 871 681 q 817 524 873 576 l 808 513 l 808 507 q 882 296 882 439 q 814 117 882 241 q 572 35 709 35 q 355 0 426 0 q 144 122 268 31 q 27 206 27 177 l 27 217 q 0 735 27 440 q 24 949 7 945 q 350 1017 195 1017 l 353 1017 m 347 765 q 361 477 347 640 q 358 233 358 307 q 372 57 358 57 l 396 57 q 567 87 417 57 q 730 125 680 98 q 789 187 789 157 q 830 307 817 231 q 798 439 820 400 q 735 486 767 472 q 730 505 730 503 q 798 581 730 511 q 819 635 816 603 l 819 646 q 754 773 796 746 q 656 795 721 795 l 524 795 q 350 770 452 795 l 347 765 m 559 684 q 665 608 665 684 l 665 586 q 591 513 656 529 q 567 510 576 510 l 551 510 q 524 553 524 510 l 524 621 q 559 684 524 684 m 556 415 q 675 342 654 415 q 686 298 686 315 q 646 217 677 245 q 583 198 614 198 l 581 198 q 534 260 534 198 q 529 385 534 316 q 556 415 535 415 z "},"c":{"ha":922,"x_min":-20,"x_max":850,"o":"m 463 1012 q 688 955 555 1010 q 826 873 749 935 q 831 857 831 865 l 831 827 q 850 686 850 738 l 850 640 q 812 608 850 610 q 734 627 781 627 q 601 553 703 627 q 574 486 574 500 q 734 399 623 443 q 812 350 750 384 q 823 307 823 325 q 818 233 818 264 l 818 149 q 823 35 818 121 q 693 -27 823 7 l 677 -27 q 495 19 629 -27 q 343 106 391 69 q 88 271 277 123 q 9 388 18 332 q -20 510 -9 429 q 15 703 -7 692 q 167 911 67 799 q 294 982 175 941 q 463 1012 410 1012 m 319 326 q 357 203 319 264 q 509 73 397 117 q 682 24 637 24 q 769 62 769 49 q 764 155 764 135 l 766 171 q 764 206 764 189 l 764 250 q 758 255 764 255 q 639 239 732 239 q 528 317 592 239 q 500 420 500 362 q 533 534 500 475 q 601 621 541 574 q 688 670 685 670 q 728 681 720 681 l 742 681 q 793 675 788 675 q 796 684 796 681 q 774 822 796 761 l 766 822 q 395 597 567 822 q 319 396 358 547 l 319 326 z "},"d":{"ha":1003,"x_min":0,"x_max":952,"o":"m 298 979 l 369 979 q 686 933 498 979 q 808 846 789 867 q 882 730 860 779 q 952 488 952 630 q 903 274 935 310 q 670 68 832 144 q 426 3 636 42 l 410 3 l 382 5 q 355 0 359 0 l 304 30 q 136 136 215 62 q 38 239 38 201 q 0 713 38 286 l 0 738 q 16 898 0 751 q 14 922 16 907 q 81 968 27 968 q 298 979 133 974 m 377 825 l 377 738 l 388 496 q 382 160 382 256 q 385 119 382 153 q 382 71 382 109 l 382 65 q 399 57 385 57 l 412 57 q 640 111 473 57 q 803 228 756 169 q 887 393 878 307 q 898 486 898 476 q 779 773 898 659 q 407 849 718 849 l 401 849 q 377 825 377 849 m 602 624 q 708 575 670 610 q 743 472 743 527 q 608 263 743 345 l 591 260 l 586 260 q 548 353 548 260 q 545 404 545 367 l 545 469 q 586 621 545 621 l 602 624 z "},"e":{"ha":842,"x_min":0,"x_max":822,"o":"m 415 1009 q 608 949 435 996 q 743 879 743 910 q 773 730 760 861 q 781 686 781 718 l 781 675 q 727 621 781 621 q 635 613 727 616 l 629 605 l 629 602 q 640 594 629 594 l 667 597 q 722 545 722 597 q 741 369 724 369 q 819 320 819 332 l 822 304 q 800 73 822 73 q 461 8 631 49 q 380 0 433 3 q 290 49 361 0 q 46 184 153 109 q 14 233 14 206 q 16 369 14 310 q 14 589 14 474 l 0 732 q 19 936 6 929 q 95 955 30 945 q 274 982 135 965 q 396 1004 309 993 q 415 1009 396 1008 m 374 770 q 391 57 374 57 l 410 57 q 659 106 445 57 q 762 133 762 115 l 770 279 q 765 288 768 288 q 600 266 648 274 q 562 328 562 266 q 556 372 562 333 q 602 412 556 404 q 670 410 643 410 l 673 415 q 667 537 667 500 l 662 540 l 656 540 q 605 534 637 540 q 575 567 575 544 l 575 572 l 578 589 l 567 627 q 722 673 567 673 l 727 681 l 727 684 q 705 833 713 757 l 703 833 q 377 776 654 833 l 374 770 z "},"f":{"ha":806,"x_min":0,"x_max":770,"o":"m 385 998 q 564 939 442 998 q 757 857 757 895 q 770 713 770 779 l 770 659 q 697 616 770 616 q 610 600 610 610 q 716 540 716 559 q 722 507 716 537 q 697 342 722 342 q 600 317 697 333 q 589 298 589 310 l 589 157 q 591 60 589 120 q 450 22 591 30 q 334 0 430 22 q 258 46 302 0 q 117 141 205 71 q 3 212 3 193 q 0 241 0 230 l 0 317 q 14 564 0 365 q 11 608 11 592 l 11 675 q 14 922 11 764 q 111 966 14 956 q 385 998 261 998 m 347 765 l 347 749 q 345 667 347 699 q 372 68 353 405 l 377 65 l 534 87 l 537 100 l 537 290 q 532 342 532 336 q 648 380 532 368 q 665 439 665 380 q 667 480 665 453 q 659 483 662 483 q 572 475 604 475 q 545 502 545 482 q 551 534 551 521 l 551 575 q 572 651 551 651 q 713 673 595 659 l 719 681 l 719 722 q 705 825 710 812 q 697 830 699 830 q 442 789 545 798 q 347 765 347 772 z "},"g":{"ha":1013,"x_min":-14,"x_max":960,"o":"m 412 1012 l 429 1012 q 746 914 507 1012 q 944 773 944 853 q 863 594 924 711 l 863 589 q 930 532 928 543 q 960 206 960 229 q 936 95 960 95 q 703 5 936 71 q 616 0 631 0 q 304 125 500 0 q 149 222 256 145 q 30 315 86 248 q -14 540 -14 355 q 73 811 -14 661 q 195 928 151 904 q 412 1012 351 1012 m 347 415 q 415 127 347 210 q 551 62 471 85 l 618 52 q 784 84 682 52 q 903 146 903 119 q 906 179 906 161 l 906 222 q 879 496 884 460 q 871 499 873 499 q 705 480 705 494 l 659 382 q 662 374 662 377 l 716 374 q 765 342 765 372 l 762 328 l 762 296 q 689 239 762 239 l 648 239 q 513 323 572 239 q 499 415 499 378 q 637 608 499 539 q 762 629 677 629 l 770 629 q 781 632 777 629 q 811 627 811 629 q 865 722 826 630 q 882 768 880 746 q 854 779 882 777 q 526 711 606 779 q 429 621 493 697 q 347 415 353 517 z "},"h":{"ha":977,"x_min":0,"x_max":909,"o":"m 567 1004 q 817 911 729 960 q 892 873 852 911 q 903 844 903 850 l 909 515 q 903 274 903 352 l 903 184 q 882 92 900 92 l 865 90 l 857 90 q 681 62 753 90 q 597 92 670 62 l 591 92 q 526 35 591 35 q 355 0 471 14 l 334 0 q 190 73 287 13 q 90 133 176 73 q 3 201 3 180 q 0 247 3 210 q 16 559 0 290 l 16 700 q 22 863 16 789 q 19 901 19 880 q 136 949 19 931 q 236 971 200 971 q 315 933 248 971 l 328 933 q 401 979 328 979 q 567 1004 467 985 m 703 776 q 713 556 703 730 q 594 526 713 526 l 562 526 q 521 618 521 526 l 521 735 q 510 773 521 773 l 483 773 q 301 743 301 753 l 301 640 q 326 391 301 584 q 331 225 326 377 q 328 176 331 220 q 342 54 332 54 l 345 54 q 534 95 421 54 l 534 309 q 659 355 534 355 q 703 282 703 355 q 716 130 703 196 l 722 130 l 844 146 q 849 176 849 157 l 849 274 q 854 524 849 343 q 846 817 854 621 q 838 819 841 819 q 703 776 832 819 z "},"i":{"ha":671,"x_min":0,"x_max":591,"o":"m 222 990 l 231 990 q 445 911 239 990 q 572 868 481 911 q 591 803 583 868 l 583 469 q 586 429 586 435 q 578 165 583 267 l 583 62 q 505 14 561 14 q 404 0 493 9 q 279 24 297 0 q 127 98 201 68 q 19 184 89 136 q 11 209 11 203 q 14 401 11 277 q 0 784 14 470 l 0 884 q 68 955 0 937 q 222 990 112 976 m 374 760 l 374 505 q 358 149 358 237 q 361 62 361 91 q 380 54 371 54 l 391 54 q 529 79 529 62 l 526 92 l 526 109 q 524 165 526 147 q 532 434 528 243 q 529 469 529 468 q 540 792 534 734 q 529 806 534 804 q 374 760 378 770 z "},"j":{"ha":767,"x_min":0,"x_max":722,"o":"m 342 1015 q 524 968 412 993 q 648 928 552 947 q 722 876 722 902 q 694 350 708 749 q 613 92 694 193 q 483 22 549 42 q 393 0 448 11 q 304 49 366 0 q 117 155 183 105 q 33 250 33 214 q 0 418 0 414 q 79 450 0 450 q 114 486 114 461 l 114 724 q 136 949 119 949 q 312 1009 160 969 q 342 1015 336 1013 m 486 798 l 486 727 q 483 597 486 669 l 488 532 q 486 377 486 444 l 486 358 q 431 241 486 241 q 377 231 431 237 q 412 84 377 195 q 423 62 412 62 q 564 110 543 92 q 610 187 585 128 q 643 353 643 280 q 662 825 654 747 l 656 827 q 486 798 486 811 z "},"k":{"ha":926,"x_min":0,"x_max":890,"o":"m 510 1034 q 640 982 570 1023 q 836 879 787 921 q 865 822 865 864 q 762 507 863 799 q 830 315 800 393 q 890 133 890 180 q 806 95 890 101 l 648 68 l 646 68 q 564 95 635 68 q 556 90 556 92 q 524 11 556 11 l 515 11 q 391 0 452 11 l 307 0 q 127 111 272 0 q 27 168 93 134 q 11 209 14 184 q 14 274 14 272 q 3 532 14 311 q 5 643 5 594 q 0 865 0 822 l 3 865 q 0 873 0 871 q 49 925 0 925 l 98 925 q 206 952 106 925 q 225 955 210 955 q 293 933 286 933 l 296 933 q 320 979 302 935 q 464 1023 355 1004 q 510 1034 494 1034 m 524 475 q 494 540 494 475 q 486 637 486 590 l 486 681 q 488 749 486 704 l 483 751 l 480 751 l 339 713 q 334 705 336 705 q 336 564 336 607 l 336 339 q 328 171 336 271 q 336 60 336 106 l 336 57 l 350 54 l 380 54 q 499 71 499 65 l 502 87 l 502 206 q 524 366 502 366 l 537 369 l 543 369 q 608 244 578 369 q 654 125 629 196 l 659 125 q 830 155 744 138 l 830 160 q 749 380 830 175 q 708 510 708 500 q 806 803 708 517 q 800 808 806 808 q 648 784 648 808 q 575 559 617 639 q 532 475 546 476 l 524 475 z "},"l":{"ha":791,"x_min":0,"x_max":781,"o":"m 239 993 q 424 923 269 993 q 578 830 578 853 q 583 811 581 811 q 581 716 581 747 l 581 461 q 713 385 621 425 q 779 309 755 385 l 776 296 l 776 231 q 781 136 776 205 q 732 71 781 71 q 426 14 530 35 q 353 0 364 0 q 250 41 294 14 l 152 100 q 35 179 52 179 q 5 244 5 199 q 0 350 5 307 q 3 548 3 468 l 3 648 q 0 741 3 688 q 5 882 3 746 l 3 906 q 68 958 17 958 q 239 993 222 993 m 363 741 l 363 363 q 366 68 363 262 q 372 60 369 60 q 515 87 395 60 q 694 125 694 113 q 727 144 727 138 q 722 233 722 194 l 722 282 q 716 290 716 289 q 575 277 701 290 q 524 304 524 279 l 526 331 l 526 694 q 529 789 526 726 l 524 792 l 507 792 q 401 751 412 751 q 363 741 363 751 z "},"m":{"ha":1081,"x_min":0,"x_max":1028,"o":"m 594 1028 l 798 968 q 987 898 987 920 q 1028 155 1009 614 q 996 117 1028 127 l 817 73 l 814 73 q 770 109 802 73 q 719 141 732 141 q 659 43 692 43 q 540 111 611 62 l 537 111 l 532 103 l 532 38 q 496 8 532 16 q 307 0 340 5 q 201 54 273 13 q 71 138 156 72 q 0 198 0 167 q 46 876 0 219 q 122 930 83 930 q 228 955 157 943 q 260 963 228 958 l 263 963 q 401 920 390 920 l 404 920 q 423 971 408 920 q 594 1028 491 1017 m 681 532 l 667 532 q 600 716 644 532 q 575 773 582 773 l 567 773 q 393 732 447 741 q 369 494 387 732 q 328 62 328 230 q 334 57 334 62 l 472 62 q 477 76 477 71 q 475 81 477 81 q 529 353 492 349 l 540 353 q 635 187 577 353 l 659 152 l 665 152 q 724 298 675 216 q 757 388 734 320 q 789 412 770 412 q 814 350 814 412 q 836 184 836 201 l 836 155 l 838 136 l 846 136 q 971 165 904 152 l 974 179 q 966 417 974 213 q 933 817 958 621 q 925 819 928 819 q 792 792 792 806 q 727 616 792 783 q 681 532 709 532 z "},"n":{"ha":1013,"x_min":0,"x_max":930,"o":"m 583 1015 q 727 958 597 1015 q 906 898 753 958 q 930 865 930 884 l 922 363 q 920 136 922 280 q 884 117 911 117 l 868 117 q 692 100 808 117 q 578 138 671 100 q 570 133 570 136 q 534 33 570 33 l 339 0 l 323 0 q 168 90 279 0 q 11 198 123 99 q 0 250 3 220 q 3 350 0 306 q 0 719 0 553 l 0 776 q 19 901 0 901 q 106 933 19 927 q 241 949 203 941 q 339 906 294 931 q 377 892 366 892 l 380 898 l 380 911 q 442 979 380 960 q 583 1015 497 987 m 732 532 q 735 496 732 530 q 705 469 727 469 q 640 551 674 469 q 534 741 611 589 q 513 760 518 760 q 372 735 431 743 q 363 719 363 728 l 363 713 q 358 559 363 652 q 361 214 361 262 q 358 62 358 92 q 363 57 363 62 q 507 81 436 73 q 515 119 515 92 l 515 187 q 496 396 515 260 q 521 418 505 418 q 648 247 570 418 q 713 160 678 214 q 722 157 719 157 q 860 171 800 171 l 863 171 q 868 258 868 199 q 879 762 879 728 l 879 776 q 871 825 879 825 q 738 792 738 806 q 732 532 732 644 z "},"o":{"ha":1099,"x_min":-20,"x_max":1043,"o":"m 389 1004 l 403 1004 q 631 936 463 1004 q 807 863 662 915 q 913 800 838 840 q 1043 543 1043 709 q 1040 453 1040 496 l 1040 448 q 1008 290 1032 340 q 818 68 964 176 q 693 11 777 25 q 614 0 637 0 l 612 0 q 481 30 575 0 q 370 79 466 30 l 292 149 q 213 209 288 149 q 104 296 187 222 q 15 391 66 313 q -20 502 -20 454 l -20 545 q 37 713 -20 591 q 153 898 52 775 q 281 979 245 979 q 389 1004 351 1004 m 319 401 l 319 380 q 387 171 319 298 q 522 73 465 91 q 614 54 579 54 q 764 90 680 54 q 932 258 892 193 q 989 545 989 329 q 823 787 989 718 q 739 827 764 827 l 701 827 q 457 703 583 827 q 354 534 376 604 q 319 401 319 462 m 701 640 l 704 640 q 807 600 807 621 q 842 469 827 600 l 842 458 q 799 323 842 391 q 671 241 727 241 l 669 241 q 541 355 564 241 q 538 401 538 376 l 538 437 q 609 608 538 498 q 701 640 652 640 z "},"p":{"ha":907,"x_min":0,"x_max":890,"o":"m 298 998 q 317 996 307 998 q 372 998 348 998 l 393 998 q 618 944 498 998 q 817 825 693 925 q 884 678 848 795 q 890 635 890 644 q 716 315 890 404 q 608 266 613 274 l 608 258 q 564 5 598 5 q 556 3 559 3 q 499 5 547 3 l 464 0 q 426 3 430 3 q 382 0 422 3 q 296 38 326 0 l 182 106 q 14 247 14 195 q 11 304 11 282 q 16 659 11 452 q 11 795 11 740 l 11 860 q 0 909 11 876 l 0 917 q 84 960 23 960 q 298 998 121 971 m 361 757 l 361 703 q 358 629 361 667 q 366 524 366 567 l 366 494 l 355 312 q 358 222 358 252 q 355 87 358 195 q 380 54 355 54 q 429 57 424 57 q 461 54 457 54 q 510 60 488 60 l 529 60 q 553 277 548 60 q 608 326 553 326 q 716 374 680 361 q 822 529 822 459 q 838 632 828 529 q 789 773 838 671 q 724 819 776 798 q 640 838 724 833 l 637 838 q 475 806 627 838 q 363 773 363 793 l 361 757 m 564 681 l 570 681 q 686 564 686 659 q 610 456 686 511 q 578 445 592 445 l 562 445 q 537 502 537 454 q 534 518 534 506 q 537 575 534 528 q 534 651 534 622 q 564 681 540 681 z "},"q":{"ha":1162,"x_min":-20,"x_max":1095,"o":"m 411 1015 l 422 1015 q 620 971 477 1015 q 845 879 770 940 q 986 781 926 838 q 1081 627 1060 703 q 1095 502 1095 585 l 1095 472 q 997 233 1095 403 q 986 214 986 229 q 1029 152 1029 174 q 937 62 1029 117 q 856 0 882 0 q 774 52 836 0 l 769 52 q 636 5 696 5 q 609 0 636 1 q 446 54 541 0 q 302 168 307 168 q 194 233 271 178 q 56 331 56 300 q -20 494 -20 402 l -20 515 q 126 865 -20 720 q 232 952 168 931 q 411 1015 323 1015 m 335 396 l 335 385 q 397 168 335 317 q 612 54 507 54 l 614 54 q 747 103 708 68 q 772 111 760 111 q 853 60 789 111 l 856 60 q 948 133 937 133 q 967 152 967 149 l 967 155 q 924 195 967 158 q 918 203 918 202 l 918 222 q 975 304 965 279 q 1043 491 1043 427 l 1043 494 q 962 727 1043 648 q 788 827 918 794 q 753 833 776 833 l 745 833 q 544 776 717 833 q 411 627 484 746 q 335 396 335 504 m 693 643 l 712 643 q 804 591 755 640 q 850 458 850 525 q 726 258 850 294 q 685 252 700 252 q 536 372 577 252 q 528 426 530 381 q 639 632 528 537 q 693 643 668 643 z "},"r":{"ha":958,"x_min":0,"x_max":892,"o":"m 380 1001 q 757 906 669 943 q 860 784 860 844 q 890 624 890 713 l 890 602 q 787 426 890 498 q 781 415 781 419 q 865 217 787 367 q 892 130 892 149 q 798 92 892 102 q 673 68 756 92 q 643 65 654 65 l 578 79 l 575 79 q 556 49 561 52 q 401 16 520 38 q 342 0 401 13 l 334 0 q 214 49 303 9 q 16 201 156 64 q 11 250 13 246 q 14 342 14 307 l 14 510 q 3 798 3 758 l 3 917 q 0 928 3 923 q 68 963 0 963 q 336 998 189 974 l 380 1001 m 347 749 q 350 703 347 734 q 353 274 353 406 q 358 206 358 210 q 353 133 353 154 l 353 65 q 358 60 353 60 l 515 95 l 518 122 l 518 144 q 510 244 518 168 l 510 269 q 532 366 513 366 l 543 366 q 613 247 568 366 q 675 125 673 125 l 681 125 q 822 149 722 141 q 830 157 822 151 q 749 334 819 190 q 711 429 730 410 l 711 437 q 757 469 711 453 q 836 594 836 527 l 836 616 q 773 806 836 766 q 705 819 732 819 q 450 795 450 807 q 347 749 347 777 m 551 635 l 570 635 q 667 567 632 635 q 673 529 673 543 q 591 439 673 474 q 562 437 576 437 q 521 551 521 437 l 521 605 q 551 635 521 627 z "},"s":{"ha":907,"x_min":0,"x_max":852,"o":"m 347 1020 q 594 968 514 1004 q 779 922 675 944 q 825 903 786 916 q 849 854 849 888 q 836 656 841 805 q 803 608 829 608 l 765 608 q 670 613 677 613 l 654 613 q 586 583 586 596 l 586 575 q 654 537 599 551 q 819 458 755 515 q 852 399 852 430 l 852 361 q 795 168 852 279 q 618 24 727 60 q 461 -14 509 -14 l 415 -14 q 307 19 307 5 q 206 92 288 19 l 57 184 q 16 236 25 184 l 16 239 q 27 339 16 244 q 24 391 24 365 l 24 396 q 57 439 24 439 l 184 439 q 255 456 241 439 q 122 499 255 473 q 0 670 0 560 l 0 732 q 73 892 0 819 q 190 982 117 951 q 347 1020 285 1020 m 345 553 l 345 545 q 393 426 345 490 q 556 377 490 385 q 635 298 635 348 l 635 296 q 570 222 635 254 q 496 209 534 209 l 393 209 q 385 203 387 203 q 391 90 391 144 l 391 71 l 388 54 q 412 41 388 41 l 467 41 q 689 122 608 62 q 798 377 798 231 l 798 393 q 684 475 798 429 q 553 529 589 492 q 529 575 529 555 l 529 586 q 648 667 529 639 l 689 667 q 776 659 755 659 q 784 678 784 669 q 787 779 784 710 q 784 808 784 797 l 787 808 q 735 830 787 830 q 656 836 680 830 q 543 806 570 825 q 382 646 407 734 q 345 553 345 576 z "},"t":{"ha":833,"x_min":-27,"x_max":808,"o":"m 461 1009 q 591 952 510 997 q 792 849 662 927 q 803 817 798 841 q 800 803 803 808 q 808 627 808 644 l 808 624 q 751 581 808 581 q 681 562 681 570 q 667 345 670 477 q 670 187 670 273 l 670 179 q 646 54 670 54 q 505 16 593 30 q 461 0 476 0 l 453 0 q 312 84 376 34 q 179 163 219 122 q 114 231 114 195 q 106 426 114 283 l 106 494 q 117 583 106 518 q -14 670 44 647 q -27 697 -27 686 l -27 703 q 0 868 -27 715 q 22 944 0 944 q 155 968 22 954 q 363 998 180 968 q 461 1009 374 998 m 323 564 l 331 559 l 380 564 q 461 515 461 564 l 461 502 q 486 71 467 242 l 491 68 q 610 98 553 77 q 616 146 616 111 l 616 209 q 613 342 616 276 q 629 600 616 456 q 711 627 646 627 q 754 640 752 630 l 754 646 q 746 803 746 792 q 735 806 736 806 l 355 751 q 323 564 342 751 z "},"u":{"ha":935,"x_min":0,"x_max":882,"o":"m 491 1035 q 722 953 566 1029 q 879 821 879 877 l 882 557 q 841 148 869 193 q 686 1 814 66 q 518 -34 551 -34 l 477 -34 q 372 12 435 -34 q 160 132 192 91 q 90 191 160 136 q 11 308 11 291 q 0 381 0 345 q 3 734 0 498 q 0 872 0 823 q 212 935 0 909 q 239 943 219 941 q 296 921 243 943 q 345 989 314 989 q 491 1035 420 1017 m 684 747 q 686 555 686 623 l 686 495 q 692 422 692 429 l 692 387 q 651 205 692 237 l 591 186 l 578 186 q 537 338 537 186 q 532 403 532 372 l 532 449 q 545 720 545 672 q 540 726 540 720 l 358 685 l 355 680 q 358 568 355 665 q 355 473 358 528 q 358 378 358 419 q 353 218 353 245 q 431 37 353 138 q 475 20 458 20 l 529 20 q 741 102 705 49 q 806 237 806 151 q 827 560 827 423 l 827 571 l 822 783 q 817 788 817 783 q 686 753 695 762 l 684 747 z "},"v":{"ha":920,"x_min":-34,"x_max":932,"o":"m 617 1025 l 633 1025 q 755 974 647 1025 q 872 911 775 967 q 932 844 932 891 l 799 184 q 772 43 774 87 q 547 14 772 25 q 481 0 513 8 l 473 0 q 224 160 385 21 q 148 220 200 184 q -34 890 112 248 q 129 971 -34 929 q 224 1001 191 1001 q 278 971 234 1001 l 340 949 q 359 982 345 949 q 471 1012 384 1012 q 617 1025 541 1025 m 788 806 l 734 806 q 709 711 726 806 q 650 434 685 569 q 623 350 650 360 l 606 350 q 574 439 589 350 q 500 749 511 672 q 492 751 495 751 q 340 716 374 727 l 340 713 q 452 193 340 673 q 492 60 476 60 l 715 81 q 750 231 727 81 l 872 800 l 867 811 q 788 806 840 806 z "},"w":{"ha":1111,"x_min":-27,"x_max":1109,"o":"m 760 1020 l 762 1020 q 892 963 796 1020 q 1101 865 1088 884 q 1109 830 1109 852 q 990 209 1109 808 q 960 92 970 102 q 868 71 930 71 q 757 54 837 71 q 713 152 728 54 q 694 231 711 153 l 689 231 q 618 27 627 40 q 404 0 618 11 q 198 117 356 0 q 92 252 92 206 q 38 567 92 303 q -27 865 -11 814 l -27 868 q 92 930 -27 900 q 174 958 125 954 q 255 901 196 958 q 293 882 283 882 q 334 939 301 918 q 469 977 404 977 q 562 941 497 977 l 564 941 q 613 982 581 982 q 760 1020 677 1020 m 998 806 l 933 806 q 865 445 928 806 q 844 431 857 431 l 838 431 q 800 507 813 431 q 743 713 765 584 q 730 768 739 768 l 727 768 q 648 743 648 760 q 586 434 648 723 q 562 420 572 420 q 518 505 534 420 q 437 732 486 578 l 426 732 q 309 703 309 713 l 309 700 q 399 228 309 640 q 437 57 425 57 q 583 81 583 57 q 662 342 640 247 q 694 363 675 363 q 751 214 735 363 q 781 117 775 118 q 882 125 861 125 l 906 125 q 947 282 924 125 q 1002 546 955 312 q 1050 803 1050 781 q 1044 808 1044 803 q 998 806 1013 806 z "},"x":{"ha":953,"x_min":0,"x_max":936,"o":"m 548 1015 q 806 936 618 1015 q 922 868 922 907 q 825 616 922 819 q 760 450 766 477 q 836 328 785 405 q 914 195 836 321 q 936 144 936 155 q 849 100 936 116 q 678 65 826 87 l 673 65 l 583 106 q 548 27 573 106 q 475 5 534 5 l 393 5 q 323 0 368 5 q 269 46 316 0 q 127 130 217 82 q 0 233 0 203 l 0 239 q 138 524 0 282 q 163 572 163 557 l 163 575 q 117 662 163 587 q 22 892 62 774 l 22 898 q 73 939 33 939 q 266 968 246 968 l 350 947 q 404 1001 367 1001 q 548 1015 404 1010 m 716 817 q 678 746 705 817 q 621 605 647 605 q 581 708 594 605 q 543 776 557 776 l 540 776 q 372 754 457 776 l 372 749 q 426 618 372 738 q 494 442 445 549 l 494 437 q 407 184 494 404 q 363 68 387 151 q 366 60 366 62 l 496 60 q 551 206 509 63 q 616 312 602 312 l 624 312 q 697 127 668 312 q 705 122 705 125 q 868 165 849 147 q 787 301 860 184 l 708 431 l 705 448 q 770 624 705 475 q 852 814 852 804 l 846 817 q 800 819 829 817 q 716 817 750 817 z "},"y":{"ha":887,"x_min":-47,"x_max":899,"o":"m 571 1020 q 707 966 596 1020 q 886 901 791 933 q 899 857 899 872 q 777 448 899 835 q 644 52 736 285 q 563 14 635 14 q 397 0 422 0 q 262 98 341 12 q 113 187 141 187 q 53 236 53 206 q 88 301 53 255 q 153 461 105 361 l 156 475 q -20 857 156 492 q -47 922 -47 897 q 34 958 -47 944 q 202 990 85 974 l 205 990 q 278 955 217 990 q 308 947 299 947 q 349 1004 328 1004 q 427 1017 386 1017 q 571 1020 517 1020 m 590 581 q 536 675 566 581 q 476 781 486 778 q 319 749 319 756 l 319 746 l 416 521 q 495 336 433 462 q 503 298 503 307 q 438 109 478 197 q 430 60 430 73 q 438 57 435 57 q 595 76 595 66 q 693 347 629 149 q 760 576 715 434 q 837 817 804 718 q 840 833 840 831 q 831 836 834 836 q 680 806 680 817 q 601 581 635 581 l 590 581 z "},"z":{"ha":871,"x_min":0,"x_max":830,"o":"m 483 998 q 789 868 525 998 q 830 827 830 851 q 768 673 805 740 q 700 464 729 536 q 689 434 696 464 q 800 382 689 425 q 825 326 811 373 l 825 255 q 792 73 819 73 q 515 27 740 49 q 304 0 515 19 q 244 41 297 0 q 71 146 198 47 q 0 195 31 160 l 0 209 q 84 407 0 222 l 149 624 q 41 673 145 629 q 8 735 17 696 q 49 933 37 933 q 68 941 59 941 l 81 941 l 98 939 q 418 993 123 952 q 483 998 429 993 m 358 597 l 358 589 q 363 583 359 583 q 491 602 400 591 q 518 575 518 595 q 418 298 475 428 q 350 95 380 162 l 342 62 q 347 57 347 62 q 670 100 425 65 q 762 130 762 109 q 770 271 770 202 l 770 293 q 765 298 770 298 q 632 279 660 279 q 597 315 610 279 q 681 564 597 359 q 751 760 720 718 q 762 798 762 786 q 754 800 757 800 q 483 770 618 770 q 385 749 385 757 q 358 597 358 642 z "},"{":{"ha":688,"x_min":0,"x_max":0,"o":""},"|":{"ha":688,"x_min":0,"x_max":0,"o":""},"}":{"ha":688,"x_min":0,"x_max":0,"o":""},"~":{"ha":688,"x_min":0,"x_max":0,"o":""},"":{"ha":456,"x_min":0,"x_max":0,"o":""},"":{"ha":772,"x_min":0,"x_max":0,"o":""},"":{"ha":688,"x_min":0,"x_max":0,"o":""},"":{"ha":688,"x_min":0,"x_max":0,"o":""},"":{"ha":856,"x_min":0,"x_max":0,"o":""},"":{"ha":688,"x_min":0,"x_max":0,"o":""},"":{"ha":688,"x_min":0,"x_max":0,"o":""},"":{"ha":694,"x_min":0,"x_max":0,"o":""},"":{"ha":1186,"x_min":61,"x_max":1134,"o":"m 64 1118 l 1131 1118 q 1134 1115 1134 1118 l 1134 -237 q 1131 -240 1134 -240 l 64 -240 q 61 -237 61 -240 l 61 1115 q 64 1118 62 1118 m 77 1097 l 77 -220 l 1118 -220 l 1118 1097 l 77 1097 m 761 1074 l 778 1074 q 787 1056 783 1074 l 789 1056 l 797 1058 q 816 1051 810 1057 q 828 1058 816 1058 l 828 1056 l 831 1058 l 844 1056 l 844 1061 q 859 1074 844 1074 l 874 1074 q 883 1056 879 1074 l 893 1058 q 911 1051 911 1056 l 911 1008 q 902 1000 911 1006 l 881 1000 l 881 903 q 878 878 881 878 q 881 855 880 876 q 876 848 879 848 l 873 848 q 867 878 867 848 l 866 878 q 861 867 866 867 q 855 878 855 869 l 855 889 l 852 889 l 852 863 q 854 838 852 855 l 850 836 l 847 836 q 844 840 844 836 l 844 848 q 845 867 844 861 l 842 934 q 844 965 844 947 l 844 1000 l 823 1000 q 814 1008 822 1000 q 806 1000 814 1006 l 785 1000 l 785 955 q 787 948 785 951 l 785 945 q 787 903 787 920 q 783 879 787 896 q 785 852 785 861 l 780 848 l 778 848 q 771 878 771 848 l 770 878 q 766 867 770 867 q 759 889 761 867 l 758 889 l 755 879 q 758 838 758 840 q 752 834 753 834 q 747 842 750 834 q 749 863 747 852 q 747 922 747 897 q 745 932 747 930 q 747 948 747 942 l 747 1000 l 728 1000 q 718 1015 718 1006 l 718 1046 q 733 1058 718 1058 l 735 1058 l 747 1056 q 761 1074 747 1074 m 684 1070 l 707 1070 q 715 1058 715 1067 l 715 1041 q 716 1010 715 1026 l 715 1001 q 716 977 716 987 q 715 972 716 975 l 716 962 l 716 953 q 715 941 716 943 q 716 926 716 932 l 716 920 q 706 886 716 886 q 694 874 703 886 l 687 874 l 687 869 q 685 863 687 863 l 687 855 l 687 842 q 682 836 687 839 l 680 836 q 675 846 675 838 l 675 860 q 670 881 675 879 q 659 878 664 878 q 654 884 655 878 l 652 884 l 652 863 q 648 859 652 861 q 644 862 644 859 l 646 879 q 644 897 644 888 q 630 888 637 888 q 620 922 620 897 q 622 987 622 964 l 622 1046 q 630 1063 622 1059 l 644 1063 q 661 1042 661 1063 l 661 926 q 665 922 662 922 l 671 922 q 677 936 677 923 l 677 1058 q 684 1070 677 1067 m 149 1068 l 151 1068 q 174 1053 174 1068 q 182 1003 182 1010 l 183 1003 q 202 1061 188 1061 q 212 1060 203 1061 q 222 1061 221 1061 q 230 1056 230 1059 q 204 889 208 928 l 200 888 l 199 888 l 192 893 q 185 889 188 889 l 185 871 q 180 865 185 868 q 171 908 175 865 q 159 951 163 908 l 157 951 q 147 882 154 899 q 144 878 147 878 l 142 878 q 138 881 138 878 l 138 901 q 135 922 138 910 l 134 922 q 121 891 126 891 l 119 891 q 109 941 113 891 q 89 1061 100 970 l 94 1065 l 118 1065 q 135 1008 126 1065 l 137 1008 q 149 1068 142 1068 m 460 1068 q 511 1039 504 1068 q 513 1020 513 1027 l 513 955 q 511 878 513 930 l 508 876 l 503 879 l 505 897 l 505 907 q 496 895 499 907 l 498 884 l 498 876 q 492 871 498 873 l 491 871 q 488 874 488 871 l 488 895 q 484 898 488 898 q 479 893 484 896 l 475 893 l 467 898 l 463 893 l 463 876 q 458 871 463 873 l 456 871 q 452 878 455 871 l 453 886 q 452 900 452 898 l 443 898 l 439 905 q 441 924 441 917 l 441 926 q 437 922 437 925 l 437 911 q 439 878 437 897 q 433 862 437 862 q 427 867 430 862 q 426 943 426 926 q 427 958 426 949 q 426 968 426 967 q 427 1053 427 1017 l 427 1055 q 453 1068 427 1068 l 460 1068 m 274 1067 l 285 1067 q 319 1032 304 1067 q 321 977 319 1010 q 319 937 321 969 q 321 897 321 907 q 319 857 319 869 l 315 855 q 309 888 311 855 q 300 907 300 895 l 298 907 q 292 889 298 889 l 288 891 q 281 889 285 889 q 276 900 276 896 q 271 878 271 900 l 273 871 q 267 862 271 862 l 264 869 l 266 886 q 260 900 264 900 q 252 872 256 895 l 248 871 q 241 897 245 871 q 233 913 237 897 l 233 1010 q 274 1067 233 1067 m 367 1067 l 381 1067 q 415 1032 401 1067 q 417 1012 415 1017 q 415 1010 417 1010 l 417 989 l 417 876 q 415 869 417 872 q 417 862 417 866 q 412 855 414 855 q 405 889 407 855 q 398 905 398 892 l 396 905 q 388 889 396 890 l 385 891 q 378 889 381 889 q 370 900 374 900 q 367 882 367 885 q 369 869 369 873 q 363 862 366 862 q 360 869 362 869 l 362 881 l 362 886 q 357 900 362 899 q 348 872 352 895 l 345 872 q 336 900 342 872 q 330 916 330 907 l 330 1000 q 367 1067 330 1067 m 578 1065 q 611 1025 611 1052 l 611 984 q 596 977 609 977 q 577 982 577 977 l 577 1003 l 575 1012 l 565 1012 q 559 967 559 1012 l 559 926 l 562 917 l 572 917 q 578 941 576 917 l 584 945 l 597 945 q 611 939 610 945 l 611 922 q 606 907 611 919 q 608 876 608 883 l 604 874 q 597 889 600 874 l 594 888 q 591 891 591 888 l 591 911 l 589 911 q 582 881 584 899 l 581 881 q 574 898 576 881 l 565 900 l 562 895 l 562 879 q 551 871 562 876 l 549 871 l 545 874 q 546 900 546 891 l 546 905 q 536 916 536 905 l 534 916 l 532 907 l 532 881 q 529 878 532 878 q 526 881 526 878 q 524 949 526 899 q 526 1029 526 1004 q 556 1065 526 1049 l 578 1065 m 922 1065 l 998 1065 q 1005 1058 1001 1065 l 1005 1022 q 991 1008 1005 1008 l 955 1008 l 955 970 l 979 970 q 986 964 982 970 l 986 939 q 974 927 986 927 l 955 927 l 955 913 l 959 916 q 1002 913 987 913 q 1007 901 1007 907 l 1007 884 q 1003 881 1007 881 l 1002 881 q 996 886 999 881 l 996 895 l 993 895 l 986 882 l 985 882 q 979 889 980 882 l 977 889 q 972 876 977 876 l 969 876 q 962 898 964 876 l 960 898 q 950 869 955 869 l 947 869 q 931 879 939 878 q 929 891 929 886 l 928 891 q 921 881 928 884 q 916 886 920 881 q 918 911 918 903 l 918 919 q 916 932 918 930 q 918 951 918 944 l 918 1051 q 922 1065 918 1064 m 1022 1065 l 1070 1065 q 1103 1017 1103 1057 l 1103 960 q 1093 924 1103 947 q 1107 893 1107 898 l 1107 888 l 1101 869 q 1103 855 1101 867 q 1095 848 1102 855 q 1089 853 1092 848 l 1089 878 l 1086 878 l 1084 869 q 1086 846 1086 848 q 1081 840 1083 840 q 1074 846 1079 840 l 1076 859 l 1076 862 q 1057 916 1076 880 l 1051 916 l 1051 900 q 1048 881 1048 883 l 1050 865 q 1044 857 1048 857 l 1043 857 q 1038 865 1039 857 q 1040 888 1040 880 l 1036 889 q 1033 886 1036 886 l 1031 886 q 1027 893 1027 886 l 1025 893 q 1024 881 1025 883 q 1027 853 1025 881 q 1022 846 1025 846 l 1019 846 q 1014 857 1015 846 q 1017 888 1014 861 q 1014 898 1016 898 q 1015 962 1015 941 l 1015 1044 q 1022 1065 1015 1065 m 267 1010 l 267 929 l 269 920 l 279 920 q 285 930 285 922 l 285 996 q 276 1015 285 1015 l 273 1015 q 267 1010 270 1015 m 363 1004 l 363 996 q 366 960 363 977 q 363 929 363 950 q 369 920 365 920 l 376 920 q 381 926 378 920 l 381 1004 q 376 1015 381 1014 l 374 1015 q 363 1004 363 1015 m 463 1015 q 462 1010 463 1013 l 463 1006 l 462 1003 q 463 998 463 1000 l 462 994 q 463 987 463 991 l 462 984 q 463 982 462 982 l 462 974 l 462 920 l 463 911 q 471 913 467 913 l 471 998 l 472 1015 l 463 1015 m 1051 1012 l 1051 956 l 1053 956 l 1062 958 l 1062 1008 q 1059 1012 1062 1012 l 1051 1012 m 352 860 q 424 812 401 860 q 441 731 441 789 q 439 718 439 724 q 448 712 448 716 l 448 705 q 443 682 443 690 q 456 666 445 682 l 456 661 l 453 661 l 453 652 q 458 623 453 644 q 453 621 455 621 q 460 601 453 621 l 456 599 l 455 599 l 452 601 q 444 563 452 593 l 439 563 q 434 580 439 580 q 431 557 431 564 l 431 553 l 426 553 q 422 557 426 557 l 420 557 q 408 537 420 539 q 401 518 407 518 l 395 523 q 391 492 391 499 l 389 492 q 381 503 381 497 q 372 487 378 500 l 369 487 q 363 500 369 500 q 355 486 359 486 q 350 494 350 491 l 348 494 l 343 484 l 338 484 q 333 496 336 496 q 324 484 328 485 q 317 492 321 492 l 311 487 l 309 487 q 296 503 306 487 q 293 497 296 497 l 290 497 q 283 527 283 524 l 276 518 q 269 553 271 518 l 267 553 l 267 549 l 262 549 l 256 587 l 247 580 q 243 583 243 580 q 247 602 247 598 q 243 628 247 609 l 237 625 q 235 627 237 627 q 237 652 237 644 l 237 664 q 248 688 237 667 l 248 693 q 243 718 243 709 q 252 730 243 719 l 252 747 q 296 840 252 800 q 352 860 316 855 m 260 752 l 260 726 q 267 718 267 718 q 264 667 267 707 q 267 664 267 667 l 267 652 l 273 652 l 273 638 l 274 638 q 278 645 274 645 q 281 642 281 645 l 281 627 q 285 619 285 622 l 288 619 q 309 652 288 641 q 312 649 312 652 q 302 633 312 647 l 302 631 q 312 635 307 635 l 317 635 l 315 644 l 315 654 q 321 659 315 656 q 324 656 324 659 q 322 650 322 652 q 326 642 326 645 l 330 644 l 333 644 q 347 635 340 635 l 348 635 l 359 644 l 360 644 l 369 642 l 370 650 l 370 652 l 369 652 q 363 650 366 650 l 362 654 q 367 656 366 656 l 367 657 l 362 666 l 366 667 q 378 647 378 661 l 378 644 l 376 640 l 382 638 l 382 647 q 386 650 383 650 q 410 616 388 641 l 412 616 l 412 625 q 415 628 412 628 l 418 627 l 418 631 l 417 644 q 418 645 418 644 l 422 644 l 426 644 q 429 675 426 666 l 426 707 q 434 731 434 709 q 385 846 434 818 l 382 846 q 369 826 378 845 q 376 821 376 825 l 376 819 l 333 759 q 331 764 331 762 q 348 808 348 804 q 333 817 333 812 l 348 852 l 347 852 q 274 804 310 852 q 260 752 260 770 m 214 834 l 216 831 q 214 753 214 779 l 208 749 q 195 802 205 749 q 190 805 191 805 l 149 805 l 147 788 l 147 685 l 185 685 q 199 724 193 685 l 202 724 q 208 719 205 724 l 208 678 q 205 676 208 676 l 208 673 l 208 619 q 200 612 208 616 q 190 652 197 615 l 186 654 q 147 656 155 656 l 147 580 q 161 535 147 535 q 173 528 170 535 l 173 518 q 170 513 173 517 l 152 515 l 111 515 l 99 513 q 96 527 96 519 q 115 541 96 530 q 118 576 118 549 l 118 767 q 109 810 118 810 q 96 824 96 812 l 96 829 l 97 833 q 149 831 132 831 l 185 831 q 214 834 200 831 m 703 824 q 881 819 720 824 l 883 815 q 881 755 883 795 q 880 753 880 755 q 850 755 859 755 l 831 755 q 825 506 825 550 q 823 500 823 503 q 825 499 825 500 l 821 497 q 742 499 773 499 l 739 500 l 741 505 q 747 759 741 543 l 701 759 q 697 764 697 759 l 699 823 l 703 824 m 678 812 q 689 795 687 812 q 687 764 687 774 l 685 764 q 689 753 689 758 l 689 734 q 663 715 689 721 l 663 712 l 667 712 q 689 701 689 712 q 692 637 690 686 l 690 619 l 694 578 q 689 556 692 556 l 675 556 l 616 602 q 548 663 600 621 l 549 645 l 549 623 q 548 621 549 621 q 551 602 551 614 l 551 575 q 536 553 551 565 q 503 557 503 553 l 491 556 l 484 556 q 479 583 479 556 l 479 627 q 477 650 479 636 l 479 654 q 477 669 477 663 l 477 680 q 479 695 477 689 q 477 709 477 705 q 475 808 475 786 l 479 810 l 489 810 q 549 762 500 810 l 549 745 l 545 738 q 553 736 547 736 q 559 743 553 739 l 568 743 q 613 711 576 743 l 616 709 l 616 749 q 614 802 616 770 q 665 812 614 812 l 678 812 m 955 781 q 1072 760 1072 770 q 1098 721 1098 744 l 1098 718 q 1089 666 1098 691 q 1021 678 1025 676 q 1022 704 1021 682 q 979 714 1022 710 q 966 682 968 714 q 1031 664 966 667 q 1081 612 1081 648 l 1081 611 q 1078 585 1081 600 l 1095 561 l 1095 559 q 1069 532 1069 543 q 1014 492 1053 492 q 905 515 905 502 q 883 556 892 515 q 886 601 886 579 q 892 602 890 602 q 957 595 945 599 q 954 573 955 577 q 995 559 954 562 q 1007 597 1007 559 q 933 611 1007 603 q 893 657 893 629 l 893 685 l 873 707 q 900 745 900 723 q 955 781 918 781 m 281 774 l 283 774 l 283 772 q 285 752 283 770 q 279 745 282 745 l 276 747 l 278 755 l 278 771 q 281 774 278 774 m 422 766 l 424 762 l 424 760 q 422 745 424 754 q 424 740 424 742 l 420 738 q 417 741 417 738 l 417 743 q 422 766 417 766 m 292 749 l 302 749 q 326 740 307 745 l 326 736 q 293 743 314 736 q 288 747 288 743 l 292 749 m 396 741 q 407 736 407 740 q 381 728 400 736 l 379 731 q 396 741 389 741 m 286 736 l 288 736 q 322 721 294 736 l 322 715 l 314 715 l 314 714 q 324 705 319 714 l 324 704 q 322 702 324 702 l 324 699 q 302 688 317 688 l 300 688 q 278 705 278 690 q 293 718 278 718 l 293 719 l 288 719 q 271 714 279 714 l 269 714 l 269 721 q 286 736 269 734 m 340 734 q 345 723 345 728 l 345 721 q 340 715 345 718 l 338 719 l 340 723 q 336 733 336 730 l 340 734 m 350 734 q 353 712 353 725 l 350 711 q 347 724 347 717 l 347 731 q 350 734 347 734 m 415 733 l 427 719 l 427 718 q 424 714 427 714 l 420 714 q 417 718 417 714 q 398 714 414 718 l 398 712 q 414 701 414 708 q 391 683 408 683 q 385 688 385 686 l 386 692 q 367 701 367 694 l 367 702 q 376 709 371 709 l 372 714 l 372 715 q 415 733 372 724 m 254 721 q 257 718 254 718 l 259 718 l 259 721 l 254 721 m 324 715 q 334 709 334 712 q 330 701 332 701 q 326 704 326 701 l 328 707 q 321 711 323 711 l 321 712 q 324 715 321 715 m 252 711 l 256 690 l 259 690 l 257 699 l 257 712 l 256 712 l 252 711 m 286 709 q 293 702 286 706 l 295 702 l 293 705 l 293 709 l 295 712 l 290 712 q 286 709 286 712 m 311 711 l 311 701 q 319 704 316 704 q 311 711 318 707 m 436 711 l 436 707 q 441 709 439 709 l 441 711 l 436 711 m 396 707 q 398 702 398 704 q 396 697 396 699 q 405 704 404 700 q 396 707 399 707 m 374 701 l 378 699 l 381 699 l 381 705 q 374 701 374 703 m 436 702 l 436 697 l 437 697 l 437 702 l 436 702 m 355 699 q 370 669 363 696 q 369 667 369 669 q 353 682 353 667 l 355 699 m 338 697 l 340 693 l 340 683 q 341 659 340 673 q 334 649 338 649 l 331 650 q 333 657 333 656 l 331 675 q 338 697 334 697 m 321 693 l 324 693 l 328 692 q 330 693 328 693 l 331 690 l 331 683 q 322 673 325 673 q 321 678 321 676 q 326 688 326 686 l 326 690 l 324 690 q 302 675 324 677 l 295 675 q 278 686 286 675 l 278 688 q 281 692 278 692 q 296 682 287 682 l 305 682 q 321 693 321 684 m 369 693 q 395 680 381 680 q 417 688 408 680 l 418 685 q 395 671 418 675 q 366 692 376 671 l 369 693 m 353 601 l 350 602 q 331 601 338 601 l 326 601 q 322 597 322 600 q 340 593 338 593 l 370 602 l 370 604 l 367 604 q 353 601 362 604 m 386 604 q 374 580 386 594 q 381 571 377 572 q 393 593 387 571 l 393 599 q 386 604 393 602 m 302 589 q 315 563 302 569 q 322 576 320 563 l 322 578 q 314 595 314 578 l 314 599 q 302 589 305 599 m 300 477 q 312 412 304 477 q 338 444 331 441 q 374 429 372 433 l 372 404 q 381 360 372 396 l 381 358 q 340 329 374 348 q 285 339 285 335 l 288 360 q 264 470 276 448 l 269 473 l 281 473 q 300 477 283 473 m 733 477 l 768 477 q 771 471 771 477 q 766 451 766 456 l 766 446 l 780 446 q 783 442 783 446 l 783 441 q 777 427 783 427 l 764 429 q 763 423 763 425 q 761 374 761 400 q 774 363 774 366 q 758 341 767 348 q 720 367 720 363 q 730 432 730 386 q 720 437 720 432 l 720 441 q 725 451 721 451 q 730 449 728 449 q 732 454 732 452 q 730 475 730 472 l 733 477 m 574 461 l 575 461 q 593 434 593 441 q 577 408 581 410 l 575 408 q 565 427 572 408 l 559 427 q 555 408 556 408 q 565 378 555 378 q 589 370 589 376 q 574 348 578 349 l 572 348 l 522 360 q 520 365 520 363 l 526 384 q 508 432 526 432 q 507 434 507 432 q 520 460 508 446 q 555 432 555 450 l 556 432 q 574 461 570 460 m 649 460 q 697 441 678 444 l 699 437 q 692 387 692 408 q 706 368 692 378 l 706 367 q 687 346 693 346 q 661 372 661 359 l 659 372 q 630 348 632 348 q 603 377 603 361 q 614 408 603 408 q 625 410 624 410 l 625 413 l 611 429 l 611 431 q 649 460 640 460 m 437 454 l 439 454 q 489 441 465 446 q 491 439 489 439 q 489 420 489 427 q 494 365 489 386 q 452 339 472 355 q 404 353 425 349 l 401 357 q 404 368 401 361 q 393 425 401 397 l 393 427 q 426 444 395 431 q 437 454 426 447 m 847 446 q 893 420 858 437 l 893 416 q 880 353 887 416 q 881 348 881 350 l 831 330 q 789 353 806 348 l 789 357 q 795 412 795 385 q 793 425 795 416 q 826 437 793 433 q 847 446 841 446 m 119 437 q 123 434 123 437 l 123 427 q 154 319 145 319 q 163 312 159 319 l 163 310 q 156 288 161 288 l 152 288 q 118 298 118 296 q 85 420 118 323 q 83 422 83 420 l 83 429 q 119 437 89 429 m 625 435 l 625 429 q 661 401 645 401 q 663 408 663 404 l 663 420 q 625 435 645 435 m 429 431 l 429 429 q 439 372 433 372 q 462 367 460 367 l 460 378 l 460 396 q 434 429 460 429 q 429 431 433 429 m 928 432 q 954 404 954 416 l 954 397 l 955 397 q 977 422 975 422 l 979 422 q 991 393 991 404 l 991 391 q 970 368 972 368 q 962 391 966 368 l 959 391 q 945 351 952 391 q 974 334 945 345 l 974 330 q 955 312 974 328 l 954 312 q 905 336 951 312 q 919 396 919 368 q 905 408 919 404 q 928 432 905 416 m 829 423 l 829 422 q 826 367 826 402 q 848 357 842 357 q 855 403 855 394 l 855 406 q 829 423 848 416 m 314 397 q 322 360 319 360 q 348 357 338 357 q 338 413 339 413 l 328 415 l 326 415 q 314 397 322 415 m 197 415 q 238 408 224 408 l 241 410 q 250 404 250 408 l 250 393 q 269 342 253 342 q 274 339 274 342 q 262 315 274 330 l 260 315 q 230 332 230 321 l 228 332 q 204 301 208 301 q 170 336 170 308 q 166 349 166 347 q 185 360 179 360 l 185 361 q 166 377 185 363 q 197 415 189 415 m 1019 412 q 1048 391 1029 412 l 1048 387 q 1031 327 1031 345 q 1043 319 1041 319 q 1067 368 1058 319 q 1070 380 1070 368 l 1070 393 l 1072 396 q 1110 382 1110 388 q 1070 260 1094 354 l 1067 258 l 1040 258 q 1036 264 1036 258 q 1051 313 1043 274 l 1050 313 l 1024 294 q 991 322 991 318 q 1010 380 1002 336 l 1003 393 l 1003 394 q 1019 412 1003 408 m 635 403 q 633 396 633 400 l 633 389 q 642 372 633 376 l 648 372 q 661 391 661 382 q 635 403 644 403 m 178 384 q 219 358 183 370 l 221 358 l 222 361 q 200 386 222 386 q 186 387 188 387 l 178 384 m 197 358 l 197 351 q 214 327 197 327 q 226 349 226 341 q 197 358 220 353 m 355 322 q 415 282 385 322 q 420 277 418 282 q 412 255 420 267 q 398 258 406 258 q 422 222 422 235 q 391 195 422 199 l 381 195 q 340 219 356 195 q 321 243 321 233 l 321 258 q 326 262 321 262 q 347 255 331 258 l 347 256 q 321 296 321 279 q 355 322 321 317 m 566 320 l 591 320 q 637 277 602 320 l 663 197 l 659 195 l 633 195 q 608 210 619 210 q 601 195 604 195 l 574 195 q 536 233 571 195 q 566 320 562 320 m 665 320 l 671 319 l 684 320 q 725 281 688 320 l 725 252 q 726 212 725 235 q 725 195 725 206 l 697 195 q 661 236 661 227 l 661 294 l 659 315 q 665 320 662 315 m 742 320 q 758 319 748 320 q 764 320 760 320 q 793 296 770 320 l 793 315 q 807 320 793 319 l 807 319 l 811 320 q 812 319 812 320 l 816 320 q 857 279 822 320 l 857 198 q 854 195 857 195 l 823 195 l 799 217 l 799 198 q 795 195 799 195 l 773 195 q 735 234 735 230 l 735 313 q 742 320 735 316 m 326 293 q 359 264 326 276 l 360 260 l 360 255 q 348 250 359 250 q 326 255 342 250 l 326 241 q 350 234 326 237 q 379 256 379 239 l 379 264 q 353 286 379 277 q 345 294 345 293 q 350 301 347 301 l 357 301 q 374 298 360 301 q 378 312 378 302 q 355 317 368 315 q 326 293 326 314 m 433 319 l 465 319 q 524 272 484 319 q 532 252 532 264 q 494 220 532 224 l 494 198 q 491 195 494 195 l 471 195 q 441 220 462 195 q 429 233 439 220 l 429 315 q 433 319 429 319 m 434 313 l 433 293 l 433 239 q 436 236 433 236 l 453 236 l 453 258 q 477 265 453 261 q 489 284 489 274 l 489 291 q 465 313 489 313 l 434 313 m 566 313 l 543 236 l 563 236 q 570 252 566 252 l 593 252 q 600 236 597 252 l 620 236 l 620 238 q 596 313 596 310 l 566 313 m 665 313 l 665 236 l 684 236 l 684 313 l 665 313 m 741 313 l 741 236 l 758 236 l 758 269 l 755 290 l 759 291 q 790 236 788 237 l 816 236 l 816 313 l 799 313 l 799 260 l 797 260 q 768 313 794 260 l 741 313 m 582 301 q 591 269 585 296 q 587 265 591 265 l 575 265 q 572 269 572 265 q 582 301 578 301 m 458 300 q 471 293 471 297 l 471 290 q 458 277 471 277 l 456 277 q 453 281 453 277 l 453 296 q 458 300 453 300 m 116 182 l 1079 182 q 1103 162 1103 180 l 1103 52 q 1079 31 1103 34 l 116 31 q 92 52 92 34 l 92 162 q 116 182 92 180 m 135 143 l 135 104 l 130 97 l 135 90 l 135 75 q 156 54 135 72 l 173 54 l 182 60 l 183 60 l 192 54 l 209 54 q 230 75 212 54 l 230 90 l 235 97 l 230 104 l 230 143 l 209 143 l 209 81 q 205 78 209 78 l 195 78 q 192 81 192 78 l 192 90 l 199 98 q 192 105 196 98 l 192 143 l 173 143 l 173 105 l 166 97 q 173 90 169 97 l 173 81 q 170 78 173 78 l 159 78 q 156 81 156 78 l 156 143 l 135 143 m 248 127 l 248 105 q 241 97 248 104 l 248 88 l 248 64 q 264 54 254 54 l 288 54 q 305 79 305 54 l 305 90 l 311 97 l 305 104 l 305 117 q 285 143 305 143 l 267 143 q 248 127 248 143 m 324 127 l 324 105 l 317 97 l 324 88 l 324 69 q 340 54 326 54 l 363 54 q 381 79 381 54 l 381 90 l 386 97 l 381 104 l 381 114 q 363 143 381 143 l 343 143 q 324 127 324 143 m 401 143 l 401 105 l 396 98 l 401 92 l 401 57 q 405 54 402 54 l 443 54 q 460 83 460 54 l 460 92 l 465 98 l 460 105 l 460 116 q 439 143 460 143 l 401 143 m 481 127 l 481 111 q 474 100 481 100 l 474 98 q 481 90 481 91 l 481 69 q 496 54 483 54 l 520 54 q 537 75 537 54 l 537 85 l 517 85 q 511 73 517 73 l 505 73 q 500 78 503 73 l 500 90 l 507 98 l 500 107 l 500 119 q 510 124 501 124 l 511 124 q 517 112 517 124 l 537 112 l 537 117 q 517 143 537 143 l 500 143 q 481 127 481 143 m 551 143 l 551 105 l 545 97 q 551 90 547 97 l 551 73 q 570 54 551 54 l 593 54 q 608 69 608 56 l 608 90 l 614 98 q 608 105 612 98 l 608 143 l 589 143 l 589 78 q 584 73 589 75 l 575 73 q 572 76 572 73 l 572 143 l 551 143 m 622 143 l 622 124 l 639 124 q 642 121 642 123 l 642 105 l 637 98 l 637 97 l 642 90 l 642 54 l 663 54 l 663 90 l 668 97 l 663 104 l 663 121 q 667 124 663 124 l 684 124 l 684 143 l 622 143 m 689 143 l 689 124 l 707 124 q 711 121 711 123 l 711 105 l 704 97 q 711 85 711 94 l 711 54 l 730 54 l 730 90 l 736 98 q 730 105 734 98 l 730 121 q 733 124 730 124 l 751 124 l 751 143 l 689 143 m 764 143 l 764 105 l 758 97 q 764 90 760 97 l 764 54 l 819 54 l 819 73 l 787 73 q 783 76 783 73 l 783 85 q 787 88 784 88 l 809 88 l 809 109 l 787 109 q 783 112 783 109 l 783 121 q 787 124 784 124 l 819 124 l 819 143 l 764 143 m 835 143 l 835 105 l 828 97 q 835 90 831 97 l 835 54 l 854 54 l 854 79 l 857 79 q 869 54 869 56 l 892 54 l 892 56 l 878 83 q 890 98 890 88 l 890 127 q 871 143 890 143 l 835 143 m 948 143 l 948 105 q 941 97 948 104 q 948 90 944 97 l 948 54 l 1005 54 l 1005 73 l 970 73 q 967 76 967 73 l 967 85 q 970 88 968 88 l 993 88 l 993 109 l 970 109 q 967 112 967 109 l 967 121 q 970 124 968 124 l 1005 124 l 1005 143 l 948 143 m 1012 119 l 1012 117 q 1022 94 1018 111 q 1043 88 1028 88 l 1051 88 q 1055 85 1055 87 l 1055 76 q 1051 73 1055 73 l 1043 73 q 1038 83 1038 73 l 1019 83 l 1019 69 q 1038 54 1019 54 l 1057 54 q 1076 73 1076 54 q 1082 79 1078 73 q 1074 100 1076 79 q 1050 109 1067 109 l 1043 109 q 1038 114 1040 109 l 1038 117 q 1044 124 1038 120 l 1050 124 q 1057 112 1054 124 l 1060 114 l 1070 114 l 1074 112 l 1076 116 l 1076 126 q 1055 143 1076 143 l 1038 143 q 1017 121 1017 143 q 1012 119 1014 119 m 278 124 l 279 124 q 285 119 282 124 l 285 78 q 279 73 285 75 l 273 73 q 267 78 270 73 l 267 119 q 278 124 269 124 m 353 124 l 355 124 q 360 119 357 124 l 360 78 q 355 73 360 75 l 348 73 q 343 78 346 73 l 343 119 q 353 124 345 124 m 857 124 l 866 124 q 871 119 868 124 l 871 105 q 866 100 871 103 l 857 100 q 854 104 854 100 l 854 121 q 857 124 854 124 m 426 123 l 436 123 q 439 119 439 122 l 439 78 q 434 73 439 75 l 426 73 q 422 76 422 73 l 422 119 q 426 123 422 123 m 907 62 q 912 54 908 54 l 922 54 q 926 57 926 54 l 926 68 q 921 73 926 70 l 918 73 q 907 62 907 73 m 208 2 q 221 -3 221 -2 q 238 2 235 2 q 256 -8 250 2 l 254 -18 l 281 -77 q 309 -15 290 -66 q 326 2 311 2 q 341 -1 339 -1 q 362 2 353 2 q 374 -5 374 -1 l 374 -14 q 366 -28 366 -22 l 366 -66 q 385 -85 366 -77 l 386 -94 q 369 -111 386 -98 q 366 -121 366 -117 l 366 -149 q 372 -176 372 -175 q 366 -184 372 -179 l 355 -184 q 343 -180 343 -184 q 330 -184 337 -184 l 322 -184 q 311 -176 313 -184 l 311 -172 q 317 -149 317 -151 l 317 -113 l 305 -136 q 296 -139 305 -139 q 283 -137 290 -139 q 269 -139 276 -139 l 267 -139 q 248 -115 256 -139 l 247 -115 l 247 -151 q 254 -172 247 -153 l 254 -176 q 240 -184 252 -184 q 222 -182 232 -184 q 202 -184 214 -184 q 192 -172 192 -184 q 199 -151 192 -170 l 199 -110 q 178 -96 186 -106 q 197 -73 178 -88 l 197 -68 q 199 -28 197 -60 q 190 -8 190 -9 q 208 2 190 1 m 420 2 l 434 -3 q 452 2 448 2 q 469 -10 469 -1 q 467 -20 467 -19 l 494 -77 q 520 -17 502 -73 l 529 -1 q 539 2 529 2 q 555 -1 552 -1 q 574 2 567 2 q 587 -6 583 2 l 587 -14 l 578 -24 l 578 -66 q 597 -85 578 -77 q 600 -92 597 -90 q 582 -111 600 -98 q 578 -121 578 -117 l 578 -153 q 585 -175 585 -173 q 574 -184 583 -184 l 568 -184 q 556 -180 556 -184 q 543 -184 550 -184 l 536 -184 q 524 -176 526 -184 l 524 -173 q 529 -153 524 -169 l 529 -115 l 527 -115 q 510 -139 524 -139 q 496 -137 503 -139 q 482 -139 490 -139 l 481 -139 q 463 -117 467 -139 l 460 -115 l 460 -153 q 467 -168 460 -159 l 467 -176 q 453 -184 465 -184 q 436 -182 445 -184 q 415 -184 427 -184 l 412 -184 q 405 -176 409 -184 l 405 -166 q 412 -151 412 -157 q 410 -144 412 -147 q 412 -125 412 -132 l 412 -110 q 391 -96 404 -110 q 410 -73 391 -87 l 410 -58 q 412 -31 410 -48 q 404 -12 407 -16 l 404 -6 q 420 2 408 2 m 623 2 q 639 -3 636 -3 l 651 2 q 670 -8 662 2 l 668 -17 q 682 -44 679 -44 q 696 -3 694 -20 l 707 2 q 725 -3 711 2 q 742 2 739 2 q 755 -6 755 -3 l 755 -14 q 718 -77 718 -65 q 732 -94 732 -87 q 722 -108 732 -99 q 759 -170 737 -146 l 759 -176 q 744 -185 754 -185 l 728 -184 q 709 -185 716 -185 q 696 -176 701 -185 l 696 -175 q 697 -168 696 -171 q 680 -137 684 -137 l 678 -137 q 667 -159 678 -141 l 665 -166 l 667 -176 q 651 -185 660 -182 q 633 -184 649 -185 q 614 -185 618 -185 q 603 -178 603 -183 l 603 -172 q 641 -106 641 -119 q 630 -92 635 -104 q 646 -79 638 -79 q 604 -12 618 -26 l 604 -8 q 623 2 608 2 m 780 2 l 799 -3 q 811 2 807 2 q 828 -15 828 2 q 838 -43 828 -20 l 840 -43 l 854 -18 l 852 -10 l 852 -8 q 866 2 859 2 q 883 -3 883 -1 q 902 2 899 2 q 916 -12 916 -1 q 876 -77 897 -35 q 892 -91 891 -87 l 892 -96 q 880 -110 880 -107 q 919 -172 904 -154 l 919 -176 q 903 -185 919 -181 q 890 -184 899 -185 q 866 -185 876 -185 q 854 -159 855 -185 q 840 -137 842 -137 l 838 -137 q 825 -165 825 -161 l 825 -176 q 807 -185 825 -182 q 793 -184 795 -184 l 773 -185 q 763 -178 763 -182 l 763 -175 q 789 -132 763 -172 q 800 -106 800 -111 q 790 -91 790 -100 q 804 -80 797 -80 l 804 -79 q 764 -14 785 -35 l 764 -6 q 780 2 764 -2 m 977 2 q 993 -12 993 0 q 986 -33 986 -23 l 986 -54 q 985 -70 986 -61 q 1003 -91 985 -73 l 1003 -92 q 988 -110 1003 -102 l 985 -123 q 986 -147 986 -138 l 986 -155 q 993 -176 993 -174 q 977 -184 986 -184 q 960 -180 960 -184 q 947 -184 954 -184 l 941 -184 q 929 -172 929 -184 q 938 -149 938 -153 l 938 -134 q 921 -92 938 -110 l 921 -91 q 937 -68 937 -77 l 937 -31 q 929 -10 929 -12 l 929 -6 q 947 1 929 -1 q 960 -3 960 0 l 977 2 z "},"":{"ha":439,"x_min":0,"x_max":0,"o":""},"":{"ha":640,"x_min":0,"x_max":0,"o":""},"":{"ha":688,"x_min":0,"x_max":0,"o":""},"":{"ha":1186,"x_min":61,"x_max":1134,"o":"m 64 1118 l 1131 1118 q 1134 1115 1134 1118 l 1134 -237 q 1131 -240 1134 -240 l 64 -240 q 61 -237 61 -240 l 61 1115 q 64 1118 62 1118 m 77 1097 l 77 -220 l 1118 -220 l 1118 1097 l 77 1097 m 761 1074 l 778 1074 q 787 1056 783 1074 l 789 1056 l 797 1058 q 816 1051 810 1057 q 828 1058 816 1058 l 828 1056 l 831 1058 l 844 1056 l 844 1061 q 859 1074 844 1074 l 874 1074 q 883 1056 879 1074 l 893 1058 q 911 1051 911 1056 l 911 1008 q 902 1000 911 1006 l 881 1000 l 881 903 q 878 878 881 878 q 881 855 880 876 q 876 848 879 848 l 873 848 q 867 878 867 848 l 866 878 q 861 867 866 867 q 855 878 855 869 l 855 889 l 852 889 l 852 863 q 854 838 852 855 l 850 836 l 847 836 q 844 840 844 836 l 844 848 q 845 867 844 861 l 842 934 q 844 965 844 947 l 844 1000 l 823 1000 q 814 1008 822 1000 q 806 1000 814 1006 l 785 1000 l 785 955 q 787 948 785 951 l 785 945 q 787 903 787 920 q 783 879 787 896 q 785 852 785 861 l 780 848 l 778 848 q 771 878 771 848 l 770 878 q 766 867 770 867 q 759 889 761 867 l 758 889 l 755 879 q 758 838 758 840 q 752 834 753 834 q 747 842 750 834 q 749 863 747 852 q 747 922 747 897 q 745 932 747 930 q 747 948 747 942 l 747 1000 l 728 1000 q 718 1015 718 1006 l 718 1046 q 733 1058 718 1058 l 735 1058 l 747 1056 q 761 1074 747 1074 m 684 1070 l 707 1070 q 715 1058 715 1067 l 715 1041 q 716 1010 715 1026 l 715 1001 q 716 977 716 987 q 715 972 716 975 l 716 962 l 716 953 q 715 941 716 943 q 716 926 716 932 l 716 920 q 706 886 716 886 q 694 874 703 886 l 687 874 l 687 869 q 685 863 687 863 l 687 855 l 687 842 q 682 836 687 839 l 680 836 q 675 846 675 838 l 675 860 q 670 881 675 879 q 659 878 664 878 q 654 884 655 878 l 652 884 l 652 863 q 648 859 652 861 q 644 862 644 859 l 646 879 q 644 897 644 888 q 630 888 637 888 q 620 922 620 897 q 622 987 622 964 l 622 1046 q 630 1063 622 1059 l 644 1063 q 661 1042 661 1063 l 661 926 q 665 922 662 922 l 671 922 q 677 936 677 923 l 677 1058 q 684 1070 677 1067 m 149 1068 l 151 1068 q 174 1053 174 1068 q 182 1003 182 1010 l 183 1003 q 202 1061 188 1061 q 212 1060 203 1061 q 222 1061 221 1061 q 230 1056 230 1059 q 204 889 208 928 l 200 888 l 199 888 l 192 893 q 185 889 188 889 l 185 871 q 180 865 185 868 q 171 908 175 865 q 159 951 163 908 l 157 951 q 147 882 154 899 q 144 878 147 878 l 142 878 q 138 881 138 878 l 138 901 q 135 922 138 910 l 134 922 q 121 891 126 891 l 119 891 q 109 941 113 891 q 89 1061 100 970 l 94 1065 l 118 1065 q 135 1008 126 1065 l 137 1008 q 149 1068 142 1068 m 460 1068 q 511 1039 504 1068 q 513 1020 513 1027 l 513 955 q 511 878 513 930 l 508 876 l 503 879 l 505 897 l 505 907 q 496 895 499 907 l 498 884 l 498 876 q 492 871 498 873 l 491 871 q 488 874 488 871 l 488 895 q 484 898 488 898 q 479 893 484 896 l 475 893 l 467 898 l 463 893 l 463 876 q 458 871 463 873 l 456 871 q 452 878 455 871 l 453 886 q 452 900 452 898 l 443 898 l 439 905 q 441 924 441 917 l 441 926 q 437 922 437 925 l 437 911 q 439 878 437 897 q 433 862 437 862 q 427 867 430 862 q 426 943 426 926 q 427 958 426 949 q 426 968 426 967 q 427 1053 427 1017 l 427 1055 q 453 1068 427 1068 l 460 1068 m 274 1067 l 285 1067 q 319 1032 304 1067 q 321 977 319 1010 q 319 937 321 969 q 321 897 321 907 q 319 857 319 869 l 315 855 q 309 888 311 855 q 300 907 300 895 l 298 907 q 292 889 298 889 l 288 891 q 281 889 285 889 q 276 900 276 896 q 271 878 271 900 l 273 871 q 267 862 271 862 l 264 869 l 266 886 q 260 900 264 900 q 252 872 256 895 l 248 871 q 241 897 245 871 q 233 913 237 897 l 233 1010 q 274 1067 233 1067 m 367 1067 l 381 1067 q 415 1032 401 1067 q 417 1012 415 1017 q 415 1010 417 1010 l 417 989 l 417 876 q 415 869 417 872 q 417 862 417 866 q 412 855 414 855 q 405 889 407 855 q 398 905 398 892 l 396 905 q 388 889 396 890 l 385 891 q 378 889 381 889 q 370 900 374 900 q 367 882 367 885 q 369 869 369 873 q 363 862 366 862 q 360 869 362 869 l 362 881 l 362 886 q 357 900 362 899 q 348 872 352 895 l 345 872 q 336 900 342 872 q 330 916 330 907 l 330 1000 q 367 1067 330 1067 m 578 1065 q 611 1025 611 1052 l 611 984 q 596 977 609 977 q 577 982 577 977 l 577 1003 l 575 1012 l 565 1012 q 559 967 559 1012 l 559 926 l 562 917 l 572 917 q 578 941 576 917 l 584 945 l 597 945 q 611 939 610 945 l 611 922 q 606 907 611 919 q 608 876 608 883 l 604 874 q 597 889 600 874 l 594 888 q 591 891 591 888 l 591 911 l 589 911 q 582 881 584 899 l 581 881 q 574 898 576 881 l 565 900 l 562 895 l 562 879 q 551 871 562 876 l 549 871 l 545 874 q 546 900 546 891 l 546 905 q 536 916 536 905 l 534 916 l 532 907 l 532 881 q 529 878 532 878 q 526 881 526 878 q 524 949 526 899 q 526 1029 526 1004 q 556 1065 526 1049 l 578 1065 m 922 1065 l 998 1065 q 1005 1058 1001 1065 l 1005 1022 q 991 1008 1005 1008 l 955 1008 l 955 970 l 979 970 q 986 964 982 970 l 986 939 q 974 927 986 927 l 955 927 l 955 913 l 959 916 q 1002 913 987 913 q 1007 901 1007 907 l 1007 884 q 1003 881 1007 881 l 1002 881 q 996 886 999 881 l 996 895 l 993 895 l 986 882 l 985 882 q 979 889 980 882 l 977 889 q 972 876 977 876 l 969 876 q 962 898 964 876 l 960 898 q 950 869 955 869 l 947 869 q 931 879 939 878 q 929 891 929 886 l 928 891 q 921 881 928 884 q 916 886 920 881 q 918 911 918 903 l 918 919 q 916 932 918 930 q 918 951 918 944 l 918 1051 q 922 1065 918 1064 m 1022 1065 l 1070 1065 q 1103 1017 1103 1057 l 1103 960 q 1093 924 1103 947 q 1107 893 1107 898 l 1107 888 l 1101 869 q 1103 855 1101 867 q 1095 848 1102 855 q 1089 853 1092 848 l 1089 878 l 1086 878 l 1084 869 q 1086 846 1086 848 q 1081 840 1083 840 q 1074 846 1079 840 l 1076 859 l 1076 862 q 1057 916 1076 880 l 1051 916 l 1051 900 q 1048 881 1048 883 l 1050 865 q 1044 857 1048 857 l 1043 857 q 1038 865 1039 857 q 1040 888 1040 880 l 1036 889 q 1033 886 1036 886 l 1031 886 q 1027 893 1027 886 l 1025 893 q 1024 881 1025 883 q 1027 853 1025 881 q 1022 846 1025 846 l 1019 846 q 1014 857 1015 846 q 1017 888 1014 861 q 1014 898 1016 898 q 1015 962 1015 941 l 1015 1044 q 1022 1065 1015 1065 m 267 1010 l 267 929 l 269 920 l 279 920 q 285 930 285 922 l 285 996 q 276 1015 285 1015 l 273 1015 q 267 1010 270 1015 m 363 1004 l 363 996 q 366 960 363 977 q 363 929 363 950 q 369 920 365 920 l 376 920 q 381 926 378 920 l 381 1004 q 376 1015 381 1014 l 374 1015 q 363 1004 363 1015 m 463 1015 q 462 1010 463 1013 l 463 1006 l 462 1003 q 463 998 463 1000 l 462 994 q 463 987 463 991 l 462 984 q 463 982 462 982 l 462 974 l 462 920 l 463 911 q 471 913 467 913 l 471 998 l 472 1015 l 463 1015 m 1051 1012 l 1051 956 l 1053 956 l 1062 958 l 1062 1008 q 1059 1012 1062 1012 l 1051 1012 m 352 860 q 424 812 401 860 q 441 731 441 789 q 439 718 439 724 q 448 712 448 716 l 448 705 q 443 682 443 690 q 456 666 445 682 l 456 661 l 453 661 l 453 652 q 458 623 453 644 q 453 621 455 621 q 460 601 453 621 l 456 599 l 455 599 l 452 601 q 444 563 452 593 l 439 563 q 434 580 439 580 q 431 557 431 564 l 431 553 l 426 553 q 422 557 426 557 l 420 557 q 408 537 420 539 q 401 518 407 518 l 395 523 q 391 492 391 499 l 389 492 q 381 503 381 497 q 372 487 378 500 l 369 487 q 363 500 369 500 q 355 486 359 486 q 350 494 350 491 l 348 494 l 343 484 l 338 484 q 333 496 336 496 q 324 484 328 485 q 317 492 321 492 l 311 487 l 309 487 q 296 503 306 487 q 293 497 296 497 l 290 497 q 283 527 283 524 l 276 518 q 269 553 271 518 l 267 553 l 267 549 l 262 549 l 256 587 l 247 580 q 243 583 243 580 q 247 602 247 598 q 243 628 247 609 l 237 625 q 235 627 237 627 q 237 652 237 644 l 237 664 q 248 688 237 667 l 248 693 q 243 718 243 709 q 252 730 243 719 l 252 747 q 296 840 252 800 q 352 860 316 855 m 260 752 l 260 726 q 267 718 267 718 q 264 667 267 707 q 267 664 267 667 l 267 652 l 273 652 l 273 638 l 274 638 q 278 645 274 645 q 281 642 281 645 l 281 627 q 285 619 285 622 l 288 619 q 309 652 288 641 q 312 649 312 652 q 302 633 312 647 l 302 631 q 312 635 307 635 l 317 635 l 315 644 l 315 654 q 321 659 315 656 q 324 656 324 659 q 322 650 322 652 q 326 642 326 645 l 330 644 l 333 644 q 347 635 340 635 l 348 635 l 359 644 l 360 644 l 369 642 l 370 650 l 370 652 l 369 652 q 363 650 366 650 l 362 654 q 367 656 366 656 l 367 657 l 362 666 l 366 667 q 378 647 378 661 l 378 644 l 376 640 l 382 638 l 382 647 q 386 650 383 650 q 410 616 388 641 l 412 616 l 412 625 q 415 628 412 628 l 418 627 l 418 631 l 417 644 q 418 645 418 644 l 422 644 l 426 644 q 429 675 426 666 l 426 707 q 434 731 434 709 q 385 846 434 818 l 382 846 q 369 826 378 845 q 376 821 376 825 l 376 819 l 333 759 q 331 764 331 762 q 348 808 348 804 q 333 817 333 812 l 348 852 l 347 852 q 274 804 310 852 q 260 752 260 770 m 214 834 l 216 831 q 214 753 214 779 l 208 749 q 195 802 205 749 q 190 805 191 805 l 149 805 l 147 788 l 147 685 l 185 685 q 199 724 193 685 l 202 724 q 208 719 205 724 l 208 678 q 205 676 208 676 l 208 673 l 208 619 q 200 612 208 616 q 190 652 197 615 l 186 654 q 147 656 155 656 l 147 580 q 161 535 147 535 q 173 528 170 535 l 173 518 q 170 513 173 517 l 152 515 l 111 515 l 99 513 q 96 527 96 519 q 115 541 96 530 q 118 576 118 549 l 118 767 q 109 810 118 810 q 96 824 96 812 l 96 829 l 97 833 q 149 831 132 831 l 185 831 q 214 834 200 831 m 703 824 q 881 819 720 824 l 883 815 q 881 755 883 795 q 880 753 880 755 q 850 755 859 755 l 831 755 q 825 506 825 550 q 823 500 823 503 q 825 499 825 500 l 821 497 q 742 499 773 499 l 739 500 l 741 505 q 747 759 741 543 l 701 759 q 697 764 697 759 l 699 823 l 703 824 m 678 812 q 689 795 687 812 q 687 764 687 774 l 685 764 q 689 753 689 758 l 689 734 q 663 715 689 721 l 663 712 l 667 712 q 689 701 689 712 q 692 637 690 686 l 690 619 l 694 578 q 689 556 692 556 l 675 556 l 616 602 q 548 663 600 621 l 549 645 l 549 623 q 548 621 549 621 q 551 602 551 614 l 551 575 q 536 553 551 565 q 503 557 503 553 l 491 556 l 484 556 q 479 583 479 556 l 479 627 q 477 650 479 636 l 479 654 q 477 669 477 663 l 477 680 q 479 695 477 689 q 477 709 477 705 q 475 808 475 786 l 479 810 l 489 810 q 549 762 500 810 l 549 745 l 545 738 q 553 736 547 736 q 559 743 553 739 l 568 743 q 613 711 576 743 l 616 709 l 616 749 q 614 802 616 770 q 665 812 614 812 l 678 812 m 955 781 q 1072 760 1072 770 q 1098 721 1098 744 l 1098 718 q 1089 666 1098 691 q 1021 678 1025 676 q 1022 704 1021 682 q 979 714 1022 710 q 966 682 968 714 q 1031 664 966 667 q 1081 612 1081 648 l 1081 611 q 1078 585 1081 600 l 1095 561 l 1095 559 q 1069 532 1069 543 q 1014 492 1053 492 q 905 515 905 502 q 883 556 892 515 q 886 601 886 579 q 892 602 890 602 q 957 595 945 599 q 954 573 955 577 q 995 559 954 562 q 1007 597 1007 559 q 933 611 1007 603 q 893 657 893 629 l 893 685 l 873 707 q 900 745 900 723 q 955 781 918 781 m 281 774 l 283 774 l 283 772 q 285 752 283 770 q 279 745 282 745 l 276 747 l 278 755 l 278 771 q 281 774 278 774 m 422 766 l 424 762 l 424 760 q 422 745 424 754 q 424 740 424 742 l 420 738 q 417 741 417 738 l 417 743 q 422 766 417 766 m 292 749 l 302 749 q 326 740 307 745 l 326 736 q 293 743 314 736 q 288 747 288 743 l 292 749 m 396 741 q 407 736 407 740 q 381 728 400 736 l 379 731 q 396 741 389 741 m 286 736 l 288 736 q 322 721 294 736 l 322 715 l 314 715 l 314 714 q 324 705 319 714 l 324 704 q 322 702 324 702 l 324 699 q 302 688 317 688 l 300 688 q 278 705 278 690 q 293 718 278 718 l 293 719 l 288 719 q 271 714 279 714 l 269 714 l 269 721 q 286 736 269 734 m 340 734 q 345 723 345 728 l 345 721 q 340 715 345 718 l 338 719 l 340 723 q 336 733 336 730 l 340 734 m 350 734 q 353 712 353 725 l 350 711 q 347 724 347 717 l 347 731 q 350 734 347 734 m 415 733 l 427 719 l 427 718 q 424 714 427 714 l 420 714 q 417 718 417 714 q 398 714 414 718 l 398 712 q 414 701 414 708 q 391 683 408 683 q 385 688 385 686 l 386 692 q 367 701 367 694 l 367 702 q 376 709 371 709 l 372 714 l 372 715 q 415 733 372 724 m 254 721 q 257 718 254 718 l 259 718 l 259 721 l 254 721 m 324 715 q 334 709 334 712 q 330 701 332 701 q 326 704 326 701 l 328 707 q 321 711 323 711 l 321 712 q 324 715 321 715 m 252 711 l 256 690 l 259 690 l 257 699 l 257 712 l 256 712 l 252 711 m 286 709 q 293 702 286 706 l 295 702 l 293 705 l 293 709 l 295 712 l 290 712 q 286 709 286 712 m 311 711 l 311 701 q 319 704 316 704 q 311 711 318 707 m 436 711 l 436 707 q 441 709 439 709 l 441 711 l 436 711 m 396 707 q 398 702 398 704 q 396 697 396 699 q 405 704 404 700 q 396 707 399 707 m 374 701 l 378 699 l 381 699 l 381 705 q 374 701 374 703 m 436 702 l 436 697 l 437 697 l 437 702 l 436 702 m 355 699 q 370 669 363 696 q 369 667 369 669 q 353 682 353 667 l 355 699 m 338 697 l 340 693 l 340 683 q 341 659 340 673 q 334 649 338 649 l 331 650 q 333 657 333 656 l 331 675 q 338 697 334 697 m 321 693 l 324 693 l 328 692 q 330 693 328 693 l 331 690 l 331 683 q 322 673 325 673 q 321 678 321 676 q 326 688 326 686 l 326 690 l 324 690 q 302 675 324 677 l 295 675 q 278 686 286 675 l 278 688 q 281 692 278 692 q 296 682 287 682 l 305 682 q 321 693 321 684 m 369 693 q 395 680 381 680 q 417 688 408 680 l 418 685 q 395 671 418 675 q 366 692 376 671 l 369 693 m 353 601 l 350 602 q 331 601 338 601 l 326 601 q 322 597 322 600 q 340 593 338 593 l 370 602 l 370 604 l 367 604 q 353 601 362 604 m 386 604 q 374 580 386 594 q 381 571 377 572 q 393 593 387 571 l 393 599 q 386 604 393 602 m 302 589 q 315 563 302 569 q 322 576 320 563 l 322 578 q 314 595 314 578 l 314 599 q 302 589 305 599 m 300 477 q 312 412 304 477 q 338 444 331 441 q 374 429 372 433 l 372 404 q 381 360 372 396 l 381 358 q 340 329 374 348 q 285 339 285 335 l 288 360 q 264 470 276 448 l 269 473 l 281 473 q 300 477 283 473 m 733 477 l 768 477 q 771 471 771 477 q 766 451 766 456 l 766 446 l 780 446 q 783 442 783 446 l 783 441 q 777 427 783 427 l 764 429 q 763 423 763 425 q 761 374 761 400 q 774 363 774 366 q 758 341 767 348 q 720 367 720 363 q 730 432 730 386 q 720 437 720 432 l 720 441 q 725 451 721 451 q 730 449 728 449 q 732 454 732 452 q 730 475 730 472 l 733 477 m 574 461 l 575 461 q 593 434 593 441 q 577 408 581 410 l 575 408 q 565 427 572 408 l 559 427 q 555 408 556 408 q 565 378 555 378 q 589 370 589 376 q 574 348 578 349 l 572 348 l 522 360 q 520 365 520 363 l 526 384 q 508 432 526 432 q 507 434 507 432 q 520 460 508 446 q 555 432 555 450 l 556 432 q 574 461 570 460 m 649 460 q 697 441 678 444 l 699 437 q 692 387 692 408 q 706 368 692 378 l 706 367 q 687 346 693 346 q 661 372 661 359 l 659 372 q 630 348 632 348 q 603 377 603 361 q 614 408 603 408 q 625 410 624 410 l 625 413 l 611 429 l 611 431 q 649 460 640 460 m 437 454 l 439 454 q 489 441 465 446 q 491 439 489 439 q 489 420 489 427 q 494 365 489 386 q 452 339 472 355 q 404 353 425 349 l 401 357 q 404 368 401 361 q 393 425 401 397 l 393 427 q 426 444 395 431 q 437 454 426 447 m 847 446 q 893 420 858 437 l 893 416 q 880 353 887 416 q 881 348 881 350 l 831 330 q 789 353 806 348 l 789 357 q 795 412 795 385 q 793 425 795 416 q 826 437 793 433 q 847 446 841 446 m 119 437 q 123 434 123 437 l 123 427 q 154 319 145 319 q 163 312 159 319 l 163 310 q 156 288 161 288 l 152 288 q 118 298 118 296 q 85 420 118 323 q 83 422 83 420 l 83 429 q 119 437 89 429 m 625 435 l 625 429 q 661 401 645 401 q 663 408 663 404 l 663 420 q 625 435 645 435 m 429 431 l 429 429 q 439 372 433 372 q 462 367 460 367 l 460 378 l 460 396 q 434 429 460 429 q 429 431 433 429 m 928 432 q 954 404 954 416 l 954 397 l 955 397 q 977 422 975 422 l 979 422 q 991 393 991 404 l 991 391 q 970 368 972 368 q 962 391 966 368 l 959 391 q 945 351 952 391 q 974 334 945 345 l 974 330 q 955 312 974 328 l 954 312 q 905 336 951 312 q 919 396 919 368 q 905 408 919 404 q 928 432 905 416 m 829 423 l 829 422 q 826 367 826 402 q 848 357 842 357 q 855 403 855 394 l 855 406 q 829 423 848 416 m 314 397 q 322 360 319 360 q 348 357 338 357 q 338 413 339 413 l 328 415 l 326 415 q 314 397 322 415 m 197 415 q 238 408 224 408 l 241 410 q 250 404 250 408 l 250 393 q 269 342 253 342 q 274 339 274 342 q 262 315 274 330 l 260 315 q 230 332 230 321 l 228 332 q 204 301 208 301 q 170 336 170 308 q 166 349 166 347 q 185 360 179 360 l 185 361 q 166 377 185 363 q 197 415 189 415 m 1019 412 q 1048 391 1029 412 l 1048 387 q 1031 327 1031 345 q 1043 319 1041 319 q 1067 368 1058 319 q 1070 380 1070 368 l 1070 393 l 1072 396 q 1110 382 1110 388 q 1070 260 1094 354 l 1067 258 l 1040 258 q 1036 264 1036 258 q 1051 313 1043 274 l 1050 313 l 1024 294 q 991 322 991 318 q 1010 380 1002 336 l 1003 393 l 1003 394 q 1019 412 1003 408 m 635 403 q 633 396 633 400 l 633 389 q 642 372 633 376 l 648 372 q 661 391 661 382 q 635 403 644 403 m 178 384 q 219 358 183 370 l 221 358 l 222 361 q 200 386 222 386 q 186 387 188 387 l 178 384 m 197 358 l 197 351 q 214 327 197 327 q 226 349 226 341 q 197 358 220 353 m 355 322 q 415 282 385 322 q 420 277 418 282 q 412 255 420 267 q 398 258 406 258 q 422 222 422 235 q 391 195 422 199 l 381 195 q 340 219 356 195 q 321 243 321 233 l 321 258 q 326 262 321 262 q 347 255 331 258 l 347 256 q 321 296 321 279 q 355 322 321 317 m 566 320 l 591 320 q 637 277 602 320 l 663 197 l 659 195 l 633 195 q 608 210 619 210 q 601 195 604 195 l 574 195 q 536 233 571 195 q 566 320 562 320 m 665 320 l 671 319 l 684 320 q 725 281 688 320 l 725 252 q 726 212 725 235 q 725 195 725 206 l 697 195 q 661 236 661 227 l 661 294 l 659 315 q 665 320 662 315 m 742 320 q 758 319 748 320 q 764 320 760 320 q 793 296 770 320 l 793 315 q 807 320 793 319 l 807 319 l 811 320 q 812 319 812 320 l 816 320 q 857 279 822 320 l 857 198 q 854 195 857 195 l 823 195 l 799 217 l 799 198 q 795 195 799 195 l 773 195 q 735 234 735 230 l 735 313 q 742 320 735 316 m 326 293 q 359 264 326 276 l 360 260 l 360 255 q 348 250 359 250 q 326 255 342 250 l 326 241 q 350 234 326 237 q 379 256 379 239 l 379 264 q 353 286 379 277 q 345 294 345 293 q 350 301 347 301 l 357 301 q 374 298 360 301 q 378 312 378 302 q 355 317 368 315 q 326 293 326 314 m 433 319 l 465 319 q 524 272 484 319 q 532 252 532 264 q 494 220 532 224 l 494 198 q 491 195 494 195 l 471 195 q 441 220 462 195 q 429 233 439 220 l 429 315 q 433 319 429 319 m 434 313 l 433 293 l 433 239 q 436 236 433 236 l 453 236 l 453 258 q 477 265 453 261 q 489 284 489 274 l 489 291 q 465 313 489 313 l 434 313 m 566 313 l 543 236 l 563 236 q 570 252 566 252 l 593 252 q 600 236 597 252 l 620 236 l 620 238 q 596 313 596 310 l 566 313 m 665 313 l 665 236 l 684 236 l 684 313 l 665 313 m 741 313 l 741 236 l 758 236 l 758 269 l 755 290 l 759 291 q 790 236 788 237 l 816 236 l 816 313 l 799 313 l 799 260 l 797 260 q 768 313 794 260 l 741 313 m 582 301 q 591 269 585 296 q 587 265 591 265 l 575 265 q 572 269 572 265 q 582 301 578 301 m 458 300 q 471 293 471 297 l 471 290 q 458 277 471 277 l 456 277 q 453 281 453 277 l 453 296 q 458 300 453 300 m 116 182 l 1079 182 q 1103 162 1103 180 l 1103 52 q 1079 31 1103 34 l 116 31 q 92 52 92 34 l 92 162 q 116 182 92 180 m 135 143 l 135 104 l 130 97 l 135 90 l 135 75 q 156 54 135 72 l 173 54 l 182 60 l 183 60 l 192 54 l 209 54 q 230 75 212 54 l 230 90 l 235 97 l 230 104 l 230 143 l 209 143 l 209 81 q 205 78 209 78 l 195 78 q 192 81 192 78 l 192 90 l 199 98 q 192 105 196 98 l 192 143 l 173 143 l 173 105 l 166 97 q 173 90 169 97 l 173 81 q 170 78 173 78 l 159 78 q 156 81 156 78 l 156 143 l 135 143 m 248 127 l 248 105 q 241 97 248 104 l 248 88 l 248 64 q 264 54 254 54 l 288 54 q 305 79 305 54 l 305 90 l 311 97 l 305 104 l 305 117 q 285 143 305 143 l 267 143 q 248 127 248 143 m 324 127 l 324 105 l 317 97 l 324 88 l 324 69 q 340 54 326 54 l 363 54 q 381 79 381 54 l 381 90 l 386 97 l 381 104 l 381 114 q 363 143 381 143 l 343 143 q 324 127 324 143 m 401 143 l 401 105 l 396 98 l 401 92 l 401 57 q 405 54 402 54 l 443 54 q 460 83 460 54 l 460 92 l 465 98 l 460 105 l 460 116 q 439 143 460 143 l 401 143 m 481 127 l 481 111 q 474 100 481 100 l 474 98 q 481 90 481 91 l 481 69 q 496 54 483 54 l 520 54 q 537 75 537 54 l 537 85 l 517 85 q 511 73 517 73 l 505 73 q 500 78 503 73 l 500 90 l 507 98 l 500 107 l 500 119 q 510 124 501 124 l 511 124 q 517 112 517 124 l 537 112 l 537 117 q 517 143 537 143 l 500 143 q 481 127 481 143 m 551 143 l 551 105 l 545 97 q 551 90 547 97 l 551 73 q 570 54 551 54 l 593 54 q 608 69 608 56 l 608 90 l 614 98 q 608 105 612 98 l 608 143 l 589 143 l 589 78 q 584 73 589 75 l 575 73 q 572 76 572 73 l 572 143 l 551 143 m 622 143 l 622 124 l 639 124 q 642 121 642 123 l 642 105 l 637 98 l 637 97 l 642 90 l 642 54 l 663 54 l 663 90 l 668 97 l 663 104 l 663 121 q 667 124 663 124 l 684 124 l 684 143 l 622 143 m 689 143 l 689 124 l 707 124 q 711 121 711 123 l 711 105 l 704 97 q 711 85 711 94 l 711 54 l 730 54 l 730 90 l 736 98 q 730 105 734 98 l 730 121 q 733 124 730 124 l 751 124 l 751 143 l 689 143 m 764 143 l 764 105 l 758 97 q 764 90 760 97 l 764 54 l 819 54 l 819 73 l 787 73 q 783 76 783 73 l 783 85 q 787 88 784 88 l 809 88 l 809 109 l 787 109 q 783 112 783 109 l 783 121 q 787 124 784 124 l 819 124 l 819 143 l 764 143 m 835 143 l 835 105 l 828 97 q 835 90 831 97 l 835 54 l 854 54 l 854 79 l 857 79 q 869 54 869 56 l 892 54 l 892 56 l 878 83 q 890 98 890 88 l 890 127 q 871 143 890 143 l 835 143 m 948 143 l 948 105 q 941 97 948 104 q 948 90 944 97 l 948 54 l 1005 54 l 1005 73 l 970 73 q 967 76 967 73 l 967 85 q 970 88 968 88 l 993 88 l 993 109 l 970 109 q 967 112 967 109 l 967 121 q 970 124 968 124 l 1005 124 l 1005 143 l 948 143 m 1012 119 l 1012 117 q 1022 94 1018 111 q 1043 88 1028 88 l 1051 88 q 1055 85 1055 87 l 1055 76 q 1051 73 1055 73 l 1043 73 q 1038 83 1038 73 l 1019 83 l 1019 69 q 1038 54 1019 54 l 1057 54 q 1076 73 1076 54 q 1082 79 1078 73 q 1074 100 1076 79 q 1050 109 1067 109 l 1043 109 q 1038 114 1040 109 l 1038 117 q 1044 124 1038 120 l 1050 124 q 1057 112 1054 124 l 1060 114 l 1070 114 l 1074 112 l 1076 116 l 1076 126 q 1055 143 1076 143 l 1038 143 q 1017 121 1017 143 q 1012 119 1014 119 m 278 124 l 279 124 q 285 119 282 124 l 285 78 q 279 73 285 75 l 273 73 q 267 78 270 73 l 267 119 q 278 124 269 124 m 353 124 l 355 124 q 360 119 357 124 l 360 78 q 355 73 360 75 l 348 73 q 343 78 346 73 l 343 119 q 353 124 345 124 m 857 124 l 866 124 q 871 119 868 124 l 871 105 q 866 100 871 103 l 857 100 q 854 104 854 100 l 854 121 q 857 124 854 124 m 426 123 l 436 123 q 439 119 439 122 l 439 78 q 434 73 439 75 l 426 73 q 422 76 422 73 l 422 119 q 426 123 422 123 m 907 62 q 912 54 908 54 l 922 54 q 926 57 926 54 l 926 68 q 921 73 926 70 l 918 73 q 907 62 907 73 m 208 2 q 221 -3 221 -2 q 238 2 235 2 q 256 -8 250 2 l 254 -18 l 281 -77 q 309 -15 290 -66 q 326 2 311 2 q 341 -1 339 -1 q 362 2 353 2 q 374 -5 374 -1 l 374 -14 q 366 -28 366 -22 l 366 -66 q 385 -85 366 -77 l 386 -94 q 369 -111 386 -98 q 366 -121 366 -117 l 366 -149 q 372 -176 372 -175 q 366 -184 372 -179 l 355 -184 q 343 -180 343 -184 q 330 -184 337 -184 l 322 -184 q 311 -176 313 -184 l 311 -172 q 317 -149 317 -151 l 317 -113 l 305 -136 q 296 -139 305 -139 q 283 -137 290 -139 q 269 -139 276 -139 l 267 -139 q 248 -115 256 -139 l 247 -115 l 247 -151 q 254 -172 247 -153 l 254 -176 q 240 -184 252 -184 q 222 -182 232 -184 q 202 -184 214 -184 q 192 -172 192 -184 q 199 -151 192 -170 l 199 -110 q 178 -96 186 -106 q 197 -73 178 -88 l 197 -68 q 199 -28 197 -60 q 190 -8 190 -9 q 208 2 190 1 m 420 2 l 434 -3 q 452 2 448 2 q 469 -10 469 -1 q 467 -20 467 -19 l 494 -77 q 520 -17 502 -73 l 529 -1 q 539 2 529 2 q 555 -1 552 -1 q 574 2 567 2 q 587 -6 583 2 l 587 -14 l 578 -24 l 578 -66 q 597 -85 578 -77 q 600 -92 597 -90 q 582 -111 600 -98 q 578 -121 578 -117 l 578 -153 q 585 -175 585 -173 q 574 -184 583 -184 l 568 -184 q 556 -180 556 -184 q 543 -184 550 -184 l 536 -184 q 524 -176 526 -184 l 524 -173 q 529 -153 524 -169 l 529 -115 l 527 -115 q 510 -139 524 -139 q 496 -137 503 -139 q 482 -139 490 -139 l 481 -139 q 463 -117 467 -139 l 460 -115 l 460 -153 q 467 -168 460 -159 l 467 -176 q 453 -184 465 -184 q 436 -182 445 -184 q 415 -184 427 -184 l 412 -184 q 405 -176 409 -184 l 405 -166 q 412 -151 412 -157 q 410 -144 412 -147 q 412 -125 412 -132 l 412 -110 q 391 -96 404 -110 q 410 -73 391 -87 l 410 -58 q 412 -31 410 -48 q 404 -12 407 -16 l 404 -6 q 420 2 408 2 m 623 2 q 639 -3 636 -3 l 651 2 q 670 -8 662 2 l 668 -17 q 682 -44 679 -44 q 696 -3 694 -20 l 707 2 q 725 -3 711 2 q 742 2 739 2 q 755 -6 755 -3 l 755 -14 q 718 -77 718 -65 q 732 -94 732 -87 q 722 -108 732 -99 q 759 -170 737 -146 l 759 -176 q 744 -185 754 -185 l 728 -184 q 709 -185 716 -185 q 696 -176 701 -185 l 696 -175 q 697 -168 696 -171 q 680 -137 684 -137 l 678 -137 q 667 -159 678 -141 l 665 -166 l 667 -176 q 651 -185 660 -182 q 633 -184 649 -185 q 614 -185 618 -185 q 603 -178 603 -183 l 603 -172 q 641 -106 641 -119 q 630 -92 635 -104 q 646 -79 638 -79 q 604 -12 618 -26 l 604 -8 q 623 2 608 2 m 780 2 l 799 -3 q 811 2 807 2 q 828 -15 828 2 q 838 -43 828 -20 l 840 -43 l 854 -18 l 852 -10 l 852 -8 q 866 2 859 2 q 883 -3 883 -1 q 902 2 899 2 q 916 -12 916 -1 q 876 -77 897 -35 q 892 -91 891 -87 l 892 -96 q 880 -110 880 -107 q 919 -172 904 -154 l 919 -176 q 903 -185 919 -181 q 890 -184 899 -185 q 866 -185 876 -185 q 854 -159 855 -185 q 840 -137 842 -137 l 838 -137 q 825 -165 825 -161 l 825 -176 q 807 -185 825 -182 q 793 -184 795 -184 l 773 -185 q 763 -178 763 -182 l 763 -175 q 789 -132 763 -172 q 800 -106 800 -111 q 790 -91 790 -100 q 804 -80 797 -80 l 804 -79 q 764 -14 785 -35 l 764 -6 q 780 2 764 -2 m 977 2 q 993 -12 993 0 q 986 -33 986 -23 l 986 -54 q 985 -70 986 -61 q 1003 -91 985 -73 l 1003 -92 q 988 -110 1003 -102 l 985 -123 q 986 -147 986 -138 l 986 -155 q 993 -176 993 -174 q 977 -184 986 -184 q 960 -180 960 -184 q 947 -184 954 -184 l 941 -184 q 929 -172 929 -184 q 938 -149 938 -153 l 938 -134 q 921 -92 938 -110 l 921 -91 q 937 -68 937 -77 l 937 -31 q 929 -10 929 -12 l 929 -6 q 947 1 929 -1 q 960 -3 960 0 l 977 2 z "},"":{"ha":454,"x_min":0,"x_max":0,"o":""},"":{"ha":457,"x_min":0,"x_max":0,"o":""},"":{"ha":688,"x_min":0,"x_max":0,"o":""},"":{"ha":688,"x_min":0,"x_max":0,"o":""},"":{"ha":688,"x_min":0,"x_max":0,"o":""},"":{"ha":694,"x_min":0,"x_max":0,"o":""},"":{"ha":800,"x_min":0,"x_max":0,"o":""},"":{"ha":694,"x_min":0,"x_max":0,"o":""},"":{"ha":345,"x_min":0,"x_max":0,"o":""},"":{"ha":694,"x_min":0,"x_max":0,"o":""},"":{"ha":688,"x_min":0,"x_max":0,"o":""},"":{"ha":487,"x_min":0,"x_max":0,"o":""},"":{"ha":640,"x_min":0,"x_max":0,"o":""},"":{"ha":1158,"x_min":0,"x_max":0,"o":""},"":{"ha":1332,"x_min":0,"x_max":0,"o":""},"":{"ha":1158,"x_min":0,"x_max":0,"o":""},"":{"ha":507,"x_min":0,"x_max":0,"o":""},"":{"ha":991,"x_min":0,"x_max":990,"o":"m 480 1001 q 591 955 508 983 q 757 901 698 926 q 879 622 808 901 q 990 157 949 343 q 890 95 990 119 q 770 52 817 78 l 751 52 q 716 171 730 52 q 708 174 711 174 q 589 136 589 161 q 545 5 582 5 q 491 0 507 0 q 385 8 453 5 q 339 5 357 5 q 217 52 262 5 q 122 125 212 52 q 30 190 89 143 q 0 222 0 206 q 57 477 27 371 q 171 833 146 743 q 209 949 209 947 q 304 968 209 961 q 480 1001 429 1001 m 361 60 q 366 54 361 54 l 377 54 q 429 60 382 54 q 507 57 450 60 q 532 92 532 57 q 553 195 540 115 q 732 231 622 220 q 776 127 776 231 q 784 117 781 117 l 795 117 q 928 163 922 163 l 933 171 q 749 827 761 827 q 556 784 621 808 q 521 705 532 784 q 399 250 461 515 q 361 60 385 171 m 648 600 l 659 600 q 719 496 682 592 q 751 366 724 458 q 675 328 751 328 q 608 326 660 328 q 572 355 572 332 q 610 556 572 368 q 648 600 623 600 z "},"":{"ha":991,"x_min":0,"x_max":990,"o":"m 480 1001 q 591 955 508 983 q 757 901 698 926 q 879 622 808 901 q 990 157 949 343 q 890 95 990 119 q 770 52 817 78 l 751 52 q 716 171 730 52 q 708 174 711 174 q 589 136 589 161 q 545 5 582 5 q 491 0 507 0 q 385 8 453 5 q 339 5 357 5 q 217 52 262 5 q 122 125 212 52 q 30 190 89 143 q 0 222 0 206 q 57 477 27 371 q 171 833 146 743 q 209 949 209 947 q 304 968 209 961 q 480 1001 429 1001 m 361 60 q 366 54 361 54 l 377 54 q 429 60 382 54 q 507 57 450 60 q 532 92 532 57 q 553 195 540 115 q 732 231 622 220 q 776 127 776 231 q 784 117 781 117 l 795 117 q 928 163 922 163 l 933 171 q 749 827 761 827 q 556 784 621 808 q 521 705 532 784 q 399 250 461 515 q 361 60 385 171 m 648 600 l 659 600 q 719 496 682 592 q 751 366 724 458 q 675 328 751 328 q 608 326 660 328 q 572 355 572 332 q 610 556 572 368 q 648 600 623 600 z "},"":{"ha":991,"x_min":0,"x_max":990,"o":"m 480 1001 q 591 955 508 983 q 757 901 698 926 q 879 622 808 901 q 990 157 949 343 q 890 95 990 119 q 770 52 817 78 l 751 52 q 716 171 730 52 q 708 174 711 174 q 589 136 589 161 q 545 5 582 5 q 491 0 507 0 q 385 8 453 5 q 339 5 357 5 q 217 52 262 5 q 122 125 212 52 q 30 190 89 143 q 0 222 0 206 q 57 477 27 371 q 171 833 146 743 q 209 949 209 947 q 304 968 209 961 q 480 1001 429 1001 m 361 60 q 366 54 361 54 l 377 54 q 429 60 382 54 q 507 57 450 60 q 532 92 532 57 q 553 195 540 115 q 732 231 622 220 q 776 127 776 231 q 784 117 781 117 l 795 117 q 928 163 922 163 l 933 171 q 749 827 761 827 q 556 784 621 808 q 521 705 532 784 q 399 250 461 515 q 361 60 385 171 m 648 600 l 659 600 q 719 496 682 592 q 751 366 724 458 q 675 328 751 328 q 608 326 660 328 q 572 355 572 332 q 610 556 572 368 q 648 600 623 600 z "},"":{"ha":991,"x_min":0,"x_max":990,"o":"m 480 1001 q 591 955 508 983 q 757 901 698 926 q 879 622 808 901 q 990 157 949 343 q 890 95 990 119 q 770 52 817 78 l 751 52 q 716 171 730 52 q 708 174 711 174 q 589 136 589 161 q 545 5 582 5 q 491 0 507 0 q 385 8 453 5 q 339 5 357 5 q 217 52 262 5 q 122 125 212 52 q 30 190 89 143 q 0 222 0 206 q 57 477 27 371 q 171 833 146 743 q 209 949 209 947 q 304 968 209 961 q 480 1001 429 1001 m 361 60 q 366 54 361 54 l 377 54 q 429 60 382 54 q 507 57 450 60 q 532 92 532 57 q 553 195 540 115 q 732 231 622 220 q 776 127 776 231 q 784 117 781 117 l 795 117 q 928 163 922 163 l 933 171 q 749 827 761 827 q 556 784 621 808 q 521 705 532 784 q 399 250 461 515 q 361 60 385 171 m 648 600 l 659 600 q 719 496 682 592 q 751 366 724 458 q 675 328 751 328 q 608 326 660 328 q 572 355 572 332 q 610 556 572 368 q 648 600 623 600 z "},"":{"ha":991,"x_min":0,"x_max":990,"o":"m 480 1001 q 591 955 508 983 q 757 901 698 926 q 879 622 808 901 q 990 157 949 343 q 890 95 990 119 q 770 52 817 78 l 751 52 q 716 171 730 52 q 708 174 711 174 q 589 136 589 161 q 545 5 582 5 q 491 0 507 0 q 385 8 453 5 q 339 5 357 5 q 217 52 262 5 q 122 125 212 52 q 30 190 89 143 q 0 222 0 206 q 57 477 27 371 q 171 833 146 743 q 209 949 209 947 q 304 968 209 961 q 480 1001 429 1001 m 361 60 q 366 54 361 54 l 377 54 q 429 60 382 54 q 507 57 450 60 q 532 92 532 57 q 553 195 540 115 q 732 231 622 220 q 776 127 776 231 q 784 117 781 117 l 795 117 q 928 163 922 163 l 933 171 q 749 827 761 827 q 556 784 621 808 q 521 705 532 784 q 399 250 461 515 q 361 60 385 171 m 648 600 l 659 600 q 719 496 682 592 q 751 366 724 458 q 675 328 751 328 q 608 326 660 328 q 572 355 572 332 q 610 556 572 368 q 648 600 623 600 z "},"":{"ha":991,"x_min":0,"x_max":990,"o":"m 480 1001 q 591 955 508 983 q 757 901 698 926 q 879 622 808 901 q 990 157 949 343 q 890 95 990 119 q 770 52 817 78 l 751 52 q 716 171 730 52 q 708 174 711 174 q 589 136 589 161 q 545 5 582 5 q 491 0 507 0 q 385 8 453 5 q 339 5 357 5 q 217 52 262 5 q 122 125 212 52 q 30 190 89 143 q 0 222 0 206 q 57 477 27 371 q 171 833 146 743 q 209 949 209 947 q 304 968 209 961 q 480 1001 429 1001 m 361 60 q 366 54 361 54 l 377 54 q 429 60 382 54 q 507 57 450 60 q 532 92 532 57 q 553 195 540 115 q 732 231 622 220 q 776 127 776 231 q 784 117 781 117 l 795 117 q 928 163 922 163 l 933 171 q 749 827 761 827 q 556 784 621 808 q 521 705 532 784 q 399 250 461 515 q 361 60 385 171 m 648 600 l 659 600 q 719 496 682 592 q 751 366 724 458 q 675 328 751 328 q 608 326 660 328 q 572 355 572 332 q 610 556 572 368 q 648 600 623 600 z "},"":{"ha":1186,"x_min":61,"x_max":1134,"o":"m 64 1118 l 1131 1118 q 1134 1115 1134 1118 l 1134 -237 q 1131 -240 1134 -240 l 64 -240 q 61 -237 61 -240 l 61 1115 q 64 1118 62 1118 m 77 1097 l 77 -220 l 1118 -220 l 1118 1097 l 77 1097 m 761 1074 l 778 1074 q 787 1056 783 1074 l 789 1056 l 797 1058 q 816 1051 810 1057 q 828 1058 816 1058 l 828 1056 l 831 1058 l 844 1056 l 844 1061 q 859 1074 844 1074 l 874 1074 q 883 1056 879 1074 l 893 1058 q 911 1051 911 1056 l 911 1008 q 902 1000 911 1006 l 881 1000 l 881 903 q 878 878 881 878 q 881 855 880 876 q 876 848 879 848 l 873 848 q 867 878 867 848 l 866 878 q 861 867 866 867 q 855 878 855 869 l 855 889 l 852 889 l 852 863 q 854 838 852 855 l 850 836 l 847 836 q 844 840 844 836 l 844 848 q 845 867 844 861 l 842 934 q 844 965 844 947 l 844 1000 l 823 1000 q 814 1008 822 1000 q 806 1000 814 1006 l 785 1000 l 785 955 q 787 948 785 951 l 785 945 q 787 903 787 920 q 783 879 787 896 q 785 852 785 861 l 780 848 l 778 848 q 771 878 771 848 l 770 878 q 766 867 770 867 q 759 889 761 867 l 758 889 l 755 879 q 758 838 758 840 q 752 834 753 834 q 747 842 750 834 q 749 863 747 852 q 747 922 747 897 q 745 932 747 930 q 747 948 747 942 l 747 1000 l 728 1000 q 718 1015 718 1006 l 718 1046 q 733 1058 718 1058 l 735 1058 l 747 1056 q 761 1074 747 1074 m 684 1070 l 707 1070 q 715 1058 715 1067 l 715 1041 q 716 1010 715 1026 l 715 1001 q 716 977 716 987 q 715 972 716 975 l 716 962 l 716 953 q 715 941 716 943 q 716 926 716 932 l 716 920 q 706 886 716 886 q 694 874 703 886 l 687 874 l 687 869 q 685 863 687 863 l 687 855 l 687 842 q 682 836 687 839 l 680 836 q 675 846 675 838 l 675 860 q 670 881 675 879 q 659 878 664 878 q 654 884 655 878 l 652 884 l 652 863 q 648 859 652 861 q 644 862 644 859 l 646 879 q 644 897 644 888 q 630 888 637 888 q 620 922 620 897 q 622 987 622 964 l 622 1046 q 630 1063 622 1059 l 644 1063 q 661 1042 661 1063 l 661 926 q 665 922 662 922 l 671 922 q 677 936 677 923 l 677 1058 q 684 1070 677 1067 m 149 1068 l 151 1068 q 174 1053 174 1068 q 182 1003 182 1010 l 183 1003 q 202 1061 188 1061 q 212 1060 203 1061 q 222 1061 221 1061 q 230 1056 230 1059 q 204 889 208 928 l 200 888 l 199 888 l 192 893 q 185 889 188 889 l 185 871 q 180 865 185 868 q 171 908 175 865 q 159 951 163 908 l 157 951 q 147 882 154 899 q 144 878 147 878 l 142 878 q 138 881 138 878 l 138 901 q 135 922 138 910 l 134 922 q 121 891 126 891 l 119 891 q 109 941 113 891 q 89 1061 100 970 l 94 1065 l 118 1065 q 135 1008 126 1065 l 137 1008 q 149 1068 142 1068 m 460 1068 q 511 1039 504 1068 q 513 1020 513 1027 l 513 955 q 511 878 513 930 l 508 876 l 503 879 l 505 897 l 505 907 q 496 895 499 907 l 498 884 l 498 876 q 492 871 498 873 l 491 871 q 488 874 488 871 l 488 895 q 484 898 488 898 q 479 893 484 896 l 475 893 l 467 898 l 463 893 l 463 876 q 458 871 463 873 l 456 871 q 452 878 455 871 l 453 886 q 452 900 452 898 l 443 898 l 439 905 q 441 924 441 917 l 441 926 q 437 922 437 925 l 437 911 q 439 878 437 897 q 433 862 437 862 q 427 867 430 862 q 426 943 426 926 q 427 958 426 949 q 426 968 426 967 q 427 1053 427 1017 l 427 1055 q 453 1068 427 1068 l 460 1068 m 274 1067 l 285 1067 q 319 1032 304 1067 q 321 977 319 1010 q 319 937 321 969 q 321 897 321 907 q 319 857 319 869 l 315 855 q 309 888 311 855 q 300 907 300 895 l 298 907 q 292 889 298 889 l 288 891 q 281 889 285 889 q 276 900 276 896 q 271 878 271 900 l 273 871 q 267 862 271 862 l 264 869 l 266 886 q 260 900 264 900 q 252 872 256 895 l 248 871 q 241 897 245 871 q 233 913 237 897 l 233 1010 q 274 1067 233 1067 m 367 1067 l 381 1067 q 415 1032 401 1067 q 417 1012 415 1017 q 415 1010 417 1010 l 417 989 l 417 876 q 415 869 417 872 q 417 862 417 866 q 412 855 414 855 q 405 889 407 855 q 398 905 398 892 l 396 905 q 388 889 396 890 l 385 891 q 378 889 381 889 q 370 900 374 900 q 367 882 367 885 q 369 869 369 873 q 363 862 366 862 q 360 869 362 869 l 362 881 l 362 886 q 357 900 362 899 q 348 872 352 895 l 345 872 q 336 900 342 872 q 330 916 330 907 l 330 1000 q 367 1067 330 1067 m 578 1065 q 611 1025 611 1052 l 611 984 q 596 977 609 977 q 577 982 577 977 l 577 1003 l 575 1012 l 565 1012 q 559 967 559 1012 l 559 926 l 562 917 l 572 917 q 578 941 576 917 l 584 945 l 597 945 q 611 939 610 945 l 611 922 q 606 907 611 919 q 608 876 608 883 l 604 874 q 597 889 600 874 l 594 888 q 591 891 591 888 l 591 911 l 589 911 q 582 881 584 899 l 581 881 q 574 898 576 881 l 565 900 l 562 895 l 562 879 q 551 871 562 876 l 549 871 l 545 874 q 546 900 546 891 l 546 905 q 536 916 536 905 l 534 916 l 532 907 l 532 881 q 529 878 532 878 q 526 881 526 878 q 524 949 526 899 q 526 1029 526 1004 q 556 1065 526 1049 l 578 1065 m 922 1065 l 998 1065 q 1005 1058 1001 1065 l 1005 1022 q 991 1008 1005 1008 l 955 1008 l 955 970 l 979 970 q 986 964 982 970 l 986 939 q 974 927 986 927 l 955 927 l 955 913 l 959 916 q 1002 913 987 913 q 1007 901 1007 907 l 1007 884 q 1003 881 1007 881 l 1002 881 q 996 886 999 881 l 996 895 l 993 895 l 986 882 l 985 882 q 979 889 980 882 l 977 889 q 972 876 977 876 l 969 876 q 962 898 964 876 l 960 898 q 950 869 955 869 l 947 869 q 931 879 939 878 q 929 891 929 886 l 928 891 q 921 881 928 884 q 916 886 920 881 q 918 911 918 903 l 918 919 q 916 932 918 930 q 918 951 918 944 l 918 1051 q 922 1065 918 1064 m 1022 1065 l 1070 1065 q 1103 1017 1103 1057 l 1103 960 q 1093 924 1103 947 q 1107 893 1107 898 l 1107 888 l 1101 869 q 1103 855 1101 867 q 1095 848 1102 855 q 1089 853 1092 848 l 1089 878 l 1086 878 l 1084 869 q 1086 846 1086 848 q 1081 840 1083 840 q 1074 846 1079 840 l 1076 859 l 1076 862 q 1057 916 1076 880 l 1051 916 l 1051 900 q 1048 881 1048 883 l 1050 865 q 1044 857 1048 857 l 1043 857 q 1038 865 1039 857 q 1040 888 1040 880 l 1036 889 q 1033 886 1036 886 l 1031 886 q 1027 893 1027 886 l 1025 893 q 1024 881 1025 883 q 1027 853 1025 881 q 1022 846 1025 846 l 1019 846 q 1014 857 1015 846 q 1017 888 1014 861 q 1014 898 1016 898 q 1015 962 1015 941 l 1015 1044 q 1022 1065 1015 1065 m 267 1010 l 267 929 l 269 920 l 279 920 q 285 930 285 922 l 285 996 q 276 1015 285 1015 l 273 1015 q 267 1010 270 1015 m 363 1004 l 363 996 q 366 960 363 977 q 363 929 363 950 q 369 920 365 920 l 376 920 q 381 926 378 920 l 381 1004 q 376 1015 381 1014 l 374 1015 q 363 1004 363 1015 m 463 1015 q 462 1010 463 1013 l 463 1006 l 462 1003 q 463 998 463 1000 l 462 994 q 463 987 463 991 l 462 984 q 463 982 462 982 l 462 974 l 462 920 l 463 911 q 471 913 467 913 l 471 998 l 472 1015 l 463 1015 m 1051 1012 l 1051 956 l 1053 956 l 1062 958 l 1062 1008 q 1059 1012 1062 1012 l 1051 1012 m 352 860 q 424 812 401 860 q 441 731 441 789 q 439 718 439 724 q 448 712 448 716 l 448 705 q 443 682 443 690 q 456 666 445 682 l 456 661 l 453 661 l 453 652 q 458 623 453 644 q 453 621 455 621 q 460 601 453 621 l 456 599 l 455 599 l 452 601 q 444 563 452 593 l 439 563 q 434 580 439 580 q 431 557 431 564 l 431 553 l 426 553 q 422 557 426 557 l 420 557 q 408 537 420 539 q 401 518 407 518 l 395 523 q 391 492 391 499 l 389 492 q 381 503 381 497 q 372 487 378 500 l 369 487 q 363 500 369 500 q 355 486 359 486 q 350 494 350 491 l 348 494 l 343 484 l 338 484 q 333 496 336 496 q 324 484 328 485 q 317 492 321 492 l 311 487 l 309 487 q 296 503 306 487 q 293 497 296 497 l 290 497 q 283 527 283 524 l 276 518 q 269 553 271 518 l 267 553 l 267 549 l 262 549 l 256 587 l 247 580 q 243 583 243 580 q 247 602 247 598 q 243 628 247 609 l 237 625 q 235 627 237 627 q 237 652 237 644 l 237 664 q 248 688 237 667 l 248 693 q 243 718 243 709 q 252 730 243 719 l 252 747 q 296 840 252 800 q 352 860 316 855 m 260 752 l 260 726 q 267 718 267 718 q 264 667 267 707 q 267 664 267 667 l 267 652 l 273 652 l 273 638 l 274 638 q 278 645 274 645 q 281 642 281 645 l 281 627 q 285 619 285 622 l 288 619 q 309 652 288 641 q 312 649 312 652 q 302 633 312 647 l 302 631 q 312 635 307 635 l 317 635 l 315 644 l 315 654 q 321 659 315 656 q 324 656 324 659 q 322 650 322 652 q 326 642 326 645 l 330 644 l 333 644 q 347 635 340 635 l 348 635 l 359 644 l 360 644 l 369 642 l 370 650 l 370 652 l 369 652 q 363 650 366 650 l 362 654 q 367 656 366 656 l 367 657 l 362 666 l 366 667 q 378 647 378 661 l 378 644 l 376 640 l 382 638 l 382 647 q 386 650 383 650 q 410 616 388 641 l 412 616 l 412 625 q 415 628 412 628 l 418 627 l 418 631 l 417 644 q 418 645 418 644 l 422 644 l 426 644 q 429 675 426 666 l 426 707 q 434 731 434 709 q 385 846 434 818 l 382 846 q 369 826 378 845 q 376 821 376 825 l 376 819 l 333 759 q 331 764 331 762 q 348 808 348 804 q 333 817 333 812 l 348 852 l 347 852 q 274 804 310 852 q 260 752 260 770 m 214 834 l 216 831 q 214 753 214 779 l 208 749 q 195 802 205 749 q 190 805 191 805 l 149 805 l 147 788 l 147 685 l 185 685 q 199 724 193 685 l 202 724 q 208 719 205 724 l 208 678 q 205 676 208 676 l 208 673 l 208 619 q 200 612 208 616 q 190 652 197 615 l 186 654 q 147 656 155 656 l 147 580 q 161 535 147 535 q 173 528 170 535 l 173 518 q 170 513 173 517 l 152 515 l 111 515 l 99 513 q 96 527 96 519 q 115 541 96 530 q 118 576 118 549 l 118 767 q 109 810 118 810 q 96 824 96 812 l 96 829 l 97 833 q 149 831 132 831 l 185 831 q 214 834 200 831 m 703 824 q 881 819 720 824 l 883 815 q 881 755 883 795 q 880 753 880 755 q 850 755 859 755 l 831 755 q 825 506 825 550 q 823 500 823 503 q 825 499 825 500 l 821 497 q 742 499 773 499 l 739 500 l 741 505 q 747 759 741 543 l 701 759 q 697 764 697 759 l 699 823 l 703 824 m 678 812 q 689 795 687 812 q 687 764 687 774 l 685 764 q 689 753 689 758 l 689 734 q 663 715 689 721 l 663 712 l 667 712 q 689 701 689 712 q 692 637 690 686 l 690 619 l 694 578 q 689 556 692 556 l 675 556 l 616 602 q 548 663 600 621 l 549 645 l 549 623 q 548 621 549 621 q 551 602 551 614 l 551 575 q 536 553 551 565 q 503 557 503 553 l 491 556 l 484 556 q 479 583 479 556 l 479 627 q 477 650 479 636 l 479 654 q 477 669 477 663 l 477 680 q 479 695 477 689 q 477 709 477 705 q 475 808 475 786 l 479 810 l 489 810 q 549 762 500 810 l 549 745 l 545 738 q 553 736 547 736 q 559 743 553 739 l 568 743 q 613 711 576 743 l 616 709 l 616 749 q 614 802 616 770 q 665 812 614 812 l 678 812 m 955 781 q 1072 760 1072 770 q 1098 721 1098 744 l 1098 718 q 1089 666 1098 691 q 1021 678 1025 676 q 1022 704 1021 682 q 979 714 1022 710 q 966 682 968 714 q 1031 664 966 667 q 1081 612 1081 648 l 1081 611 q 1078 585 1081 600 l 1095 561 l 1095 559 q 1069 532 1069 543 q 1014 492 1053 492 q 905 515 905 502 q 883 556 892 515 q 886 601 886 579 q 892 602 890 602 q 957 595 945 599 q 954 573 955 577 q 995 559 954 562 q 1007 597 1007 559 q 933 611 1007 603 q 893 657 893 629 l 893 685 l 873 707 q 900 745 900 723 q 955 781 918 781 m 281 774 l 283 774 l 283 772 q 285 752 283 770 q 279 745 282 745 l 276 747 l 278 755 l 278 771 q 281 774 278 774 m 422 766 l 424 762 l 424 760 q 422 745 424 754 q 424 740 424 742 l 420 738 q 417 741 417 738 l 417 743 q 422 766 417 766 m 292 749 l 302 749 q 326 740 307 745 l 326 736 q 293 743 314 736 q 288 747 288 743 l 292 749 m 396 741 q 407 736 407 740 q 381 728 400 736 l 379 731 q 396 741 389 741 m 286 736 l 288 736 q 322 721 294 736 l 322 715 l 314 715 l 314 714 q 324 705 319 714 l 324 704 q 322 702 324 702 l 324 699 q 302 688 317 688 l 300 688 q 278 705 278 690 q 293 718 278 718 l 293 719 l 288 719 q 271 714 279 714 l 269 714 l 269 721 q 286 736 269 734 m 340 734 q 345 723 345 728 l 345 721 q 340 715 345 718 l 338 719 l 340 723 q 336 733 336 730 l 340 734 m 350 734 q 353 712 353 725 l 350 711 q 347 724 347 717 l 347 731 q 350 734 347 734 m 415 733 l 427 719 l 427 718 q 424 714 427 714 l 420 714 q 417 718 417 714 q 398 714 414 718 l 398 712 q 414 701 414 708 q 391 683 408 683 q 385 688 385 686 l 386 692 q 367 701 367 694 l 367 702 q 376 709 371 709 l 372 714 l 372 715 q 415 733 372 724 m 254 721 q 257 718 254 718 l 259 718 l 259 721 l 254 721 m 324 715 q 334 709 334 712 q 330 701 332 701 q 326 704 326 701 l 328 707 q 321 711 323 711 l 321 712 q 324 715 321 715 m 252 711 l 256 690 l 259 690 l 257 699 l 257 712 l 256 712 l 252 711 m 286 709 q 293 702 286 706 l 295 702 l 293 705 l 293 709 l 295 712 l 290 712 q 286 709 286 712 m 311 711 l 311 701 q 319 704 316 704 q 311 711 318 707 m 436 711 l 436 707 q 441 709 439 709 l 441 711 l 436 711 m 396 707 q 398 702 398 704 q 396 697 396 699 q 405 704 404 700 q 396 707 399 707 m 374 701 l 378 699 l 381 699 l 381 705 q 374 701 374 703 m 436 702 l 436 697 l 437 697 l 437 702 l 436 702 m 355 699 q 370 669 363 696 q 369 667 369 669 q 353 682 353 667 l 355 699 m 338 697 l 340 693 l 340 683 q 341 659 340 673 q 334 649 338 649 l 331 650 q 333 657 333 656 l 331 675 q 338 697 334 697 m 321 693 l 324 693 l 328 692 q 330 693 328 693 l 331 690 l 331 683 q 322 673 325 673 q 321 678 321 676 q 326 688 326 686 l 326 690 l 324 690 q 302 675 324 677 l 295 675 q 278 686 286 675 l 278 688 q 281 692 278 692 q 296 682 287 682 l 305 682 q 321 693 321 684 m 369 693 q 395 680 381 680 q 417 688 408 680 l 418 685 q 395 671 418 675 q 366 692 376 671 l 369 693 m 353 601 l 350 602 q 331 601 338 601 l 326 601 q 322 597 322 600 q 340 593 338 593 l 370 602 l 370 604 l 367 604 q 353 601 362 604 m 386 604 q 374 580 386 594 q 381 571 377 572 q 393 593 387 571 l 393 599 q 386 604 393 602 m 302 589 q 315 563 302 569 q 322 576 320 563 l 322 578 q 314 595 314 578 l 314 599 q 302 589 305 599 m 300 477 q 312 412 304 477 q 338 444 331 441 q 374 429 372 433 l 372 404 q 381 360 372 396 l 381 358 q 340 329 374 348 q 285 339 285 335 l 288 360 q 264 470 276 448 l 269 473 l 281 473 q 300 477 283 473 m 733 477 l 768 477 q 771 471 771 477 q 766 451 766 456 l 766 446 l 780 446 q 783 442 783 446 l 783 441 q 777 427 783 427 l 764 429 q 763 423 763 425 q 761 374 761 400 q 774 363 774 366 q 758 341 767 348 q 720 367 720 363 q 730 432 730 386 q 720 437 720 432 l 720 441 q 725 451 721 451 q 730 449 728 449 q 732 454 732 452 q 730 475 730 472 l 733 477 m 574 461 l 575 461 q 593 434 593 441 q 577 408 581 410 l 575 408 q 565 427 572 408 l 559 427 q 555 408 556 408 q 565 378 555 378 q 589 370 589 376 q 574 348 578 349 l 572 348 l 522 360 q 520 365 520 363 l 526 384 q 508 432 526 432 q 507 434 507 432 q 520 460 508 446 q 555 432 555 450 l 556 432 q 574 461 570 460 m 649 460 q 697 441 678 444 l 699 437 q 692 387 692 408 q 706 368 692 378 l 706 367 q 687 346 693 346 q 661 372 661 359 l 659 372 q 630 348 632 348 q 603 377 603 361 q 614 408 603 408 q 625 410 624 410 l 625 413 l 611 429 l 611 431 q 649 460 640 460 m 437 454 l 439 454 q 489 441 465 446 q 491 439 489 439 q 489 420 489 427 q 494 365 489 386 q 452 339 472 355 q 404 353 425 349 l 401 357 q 404 368 401 361 q 393 425 401 397 l 393 427 q 426 444 395 431 q 437 454 426 447 m 847 446 q 893 420 858 437 l 893 416 q 880 353 887 416 q 881 348 881 350 l 831 330 q 789 353 806 348 l 789 357 q 795 412 795 385 q 793 425 795 416 q 826 437 793 433 q 847 446 841 446 m 119 437 q 123 434 123 437 l 123 427 q 154 319 145 319 q 163 312 159 319 l 163 310 q 156 288 161 288 l 152 288 q 118 298 118 296 q 85 420 118 323 q 83 422 83 420 l 83 429 q 119 437 89 429 m 625 435 l 625 429 q 661 401 645 401 q 663 408 663 404 l 663 420 q 625 435 645 435 m 429 431 l 429 429 q 439 372 433 372 q 462 367 460 367 l 460 378 l 460 396 q 434 429 460 429 q 429 431 433 429 m 928 432 q 954 404 954 416 l 954 397 l 955 397 q 977 422 975 422 l 979 422 q 991 393 991 404 l 991 391 q 970 368 972 368 q 962 391 966 368 l 959 391 q 945 351 952 391 q 974 334 945 345 l 974 330 q 955 312 974 328 l 954 312 q 905 336 951 312 q 919 396 919 368 q 905 408 919 404 q 928 432 905 416 m 829 423 l 829 422 q 826 367 826 402 q 848 357 842 357 q 855 403 855 394 l 855 406 q 829 423 848 416 m 314 397 q 322 360 319 360 q 348 357 338 357 q 338 413 339 413 l 328 415 l 326 415 q 314 397 322 415 m 197 415 q 238 408 224 408 l 241 410 q 250 404 250 408 l 250 393 q 269 342 253 342 q 274 339 274 342 q 262 315 274 330 l 260 315 q 230 332 230 321 l 228 332 q 204 301 208 301 q 170 336 170 308 q 166 349 166 347 q 185 360 179 360 l 185 361 q 166 377 185 363 q 197 415 189 415 m 1019 412 q 1048 391 1029 412 l 1048 387 q 1031 327 1031 345 q 1043 319 1041 319 q 1067 368 1058 319 q 1070 380 1070 368 l 1070 393 l 1072 396 q 1110 382 1110 388 q 1070 260 1094 354 l 1067 258 l 1040 258 q 1036 264 1036 258 q 1051 313 1043 274 l 1050 313 l 1024 294 q 991 322 991 318 q 1010 380 1002 336 l 1003 393 l 1003 394 q 1019 412 1003 408 m 635 403 q 633 396 633 400 l 633 389 q 642 372 633 376 l 648 372 q 661 391 661 382 q 635 403 644 403 m 178 384 q 219 358 183 370 l 221 358 l 222 361 q 200 386 222 386 q 186 387 188 387 l 178 384 m 197 358 l 197 351 q 214 327 197 327 q 226 349 226 341 q 197 358 220 353 m 355 322 q 415 282 385 322 q 420 277 418 282 q 412 255 420 267 q 398 258 406 258 q 422 222 422 235 q 391 195 422 199 l 381 195 q 340 219 356 195 q 321 243 321 233 l 321 258 q 326 262 321 262 q 347 255 331 258 l 347 256 q 321 296 321 279 q 355 322 321 317 m 566 320 l 591 320 q 637 277 602 320 l 663 197 l 659 195 l 633 195 q 608 210 619 210 q 601 195 604 195 l 574 195 q 536 233 571 195 q 566 320 562 320 m 665 320 l 671 319 l 684 320 q 725 281 688 320 l 725 252 q 726 212 725 235 q 725 195 725 206 l 697 195 q 661 236 661 227 l 661 294 l 659 315 q 665 320 662 315 m 742 320 q 758 319 748 320 q 764 320 760 320 q 793 296 770 320 l 793 315 q 807 320 793 319 l 807 319 l 811 320 q 812 319 812 320 l 816 320 q 857 279 822 320 l 857 198 q 854 195 857 195 l 823 195 l 799 217 l 799 198 q 795 195 799 195 l 773 195 q 735 234 735 230 l 735 313 q 742 320 735 316 m 326 293 q 359 264 326 276 l 360 260 l 360 255 q 348 250 359 250 q 326 255 342 250 l 326 241 q 350 234 326 237 q 379 256 379 239 l 379 264 q 353 286 379 277 q 345 294 345 293 q 350 301 347 301 l 357 301 q 374 298 360 301 q 378 312 378 302 q 355 317 368 315 q 326 293 326 314 m 433 319 l 465 319 q 524 272 484 319 q 532 252 532 264 q 494 220 532 224 l 494 198 q 491 195 494 195 l 471 195 q 441 220 462 195 q 429 233 439 220 l 429 315 q 433 319 429 319 m 434 313 l 433 293 l 433 239 q 436 236 433 236 l 453 236 l 453 258 q 477 265 453 261 q 489 284 489 274 l 489 291 q 465 313 489 313 l 434 313 m 566 313 l 543 236 l 563 236 q 570 252 566 252 l 593 252 q 600 236 597 252 l 620 236 l 620 238 q 596 313 596 310 l 566 313 m 665 313 l 665 236 l 684 236 l 684 313 l 665 313 m 741 313 l 741 236 l 758 236 l 758 269 l 755 290 l 759 291 q 790 236 788 237 l 816 236 l 816 313 l 799 313 l 799 260 l 797 260 q 768 313 794 260 l 741 313 m 582 301 q 591 269 585 296 q 587 265 591 265 l 575 265 q 572 269 572 265 q 582 301 578 301 m 458 300 q 471 293 471 297 l 471 290 q 458 277 471 277 l 456 277 q 453 281 453 277 l 453 296 q 458 300 453 300 m 116 182 l 1079 182 q 1103 162 1103 180 l 1103 52 q 1079 31 1103 34 l 116 31 q 92 52 92 34 l 92 162 q 116 182 92 180 m 135 143 l 135 104 l 130 97 l 135 90 l 135 75 q 156 54 135 72 l 173 54 l 182 60 l 183 60 l 192 54 l 209 54 q 230 75 212 54 l 230 90 l 235 97 l 230 104 l 230 143 l 209 143 l 209 81 q 205 78 209 78 l 195 78 q 192 81 192 78 l 192 90 l 199 98 q 192 105 196 98 l 192 143 l 173 143 l 173 105 l 166 97 q 173 90 169 97 l 173 81 q 170 78 173 78 l 159 78 q 156 81 156 78 l 156 143 l 135 143 m 248 127 l 248 105 q 241 97 248 104 l 248 88 l 248 64 q 264 54 254 54 l 288 54 q 305 79 305 54 l 305 90 l 311 97 l 305 104 l 305 117 q 285 143 305 143 l 267 143 q 248 127 248 143 m 324 127 l 324 105 l 317 97 l 324 88 l 324 69 q 340 54 326 54 l 363 54 q 381 79 381 54 l 381 90 l 386 97 l 381 104 l 381 114 q 363 143 381 143 l 343 143 q 324 127 324 143 m 401 143 l 401 105 l 396 98 l 401 92 l 401 57 q 405 54 402 54 l 443 54 q 460 83 460 54 l 460 92 l 465 98 l 460 105 l 460 116 q 439 143 460 143 l 401 143 m 481 127 l 481 111 q 474 100 481 100 l 474 98 q 481 90 481 91 l 481 69 q 496 54 483 54 l 520 54 q 537 75 537 54 l 537 85 l 517 85 q 511 73 517 73 l 505 73 q 500 78 503 73 l 500 90 l 507 98 l 500 107 l 500 119 q 510 124 501 124 l 511 124 q 517 112 517 124 l 537 112 l 537 117 q 517 143 537 143 l 500 143 q 481 127 481 143 m 551 143 l 551 105 l 545 97 q 551 90 547 97 l 551 73 q 570 54 551 54 l 593 54 q 608 69 608 56 l 608 90 l 614 98 q 608 105 612 98 l 608 143 l 589 143 l 589 78 q 584 73 589 75 l 575 73 q 572 76 572 73 l 572 143 l 551 143 m 622 143 l 622 124 l 639 124 q 642 121 642 123 l 642 105 l 637 98 l 637 97 l 642 90 l 642 54 l 663 54 l 663 90 l 668 97 l 663 104 l 663 121 q 667 124 663 124 l 684 124 l 684 143 l 622 143 m 689 143 l 689 124 l 707 124 q 711 121 711 123 l 711 105 l 704 97 q 711 85 711 94 l 711 54 l 730 54 l 730 90 l 736 98 q 730 105 734 98 l 730 121 q 733 124 730 124 l 751 124 l 751 143 l 689 143 m 764 143 l 764 105 l 758 97 q 764 90 760 97 l 764 54 l 819 54 l 819 73 l 787 73 q 783 76 783 73 l 783 85 q 787 88 784 88 l 809 88 l 809 109 l 787 109 q 783 112 783 109 l 783 121 q 787 124 784 124 l 819 124 l 819 143 l 764 143 m 835 143 l 835 105 l 828 97 q 835 90 831 97 l 835 54 l 854 54 l 854 79 l 857 79 q 869 54 869 56 l 892 54 l 892 56 l 878 83 q 890 98 890 88 l 890 127 q 871 143 890 143 l 835 143 m 948 143 l 948 105 q 941 97 948 104 q 948 90 944 97 l 948 54 l 1005 54 l 1005 73 l 970 73 q 967 76 967 73 l 967 85 q 970 88 968 88 l 993 88 l 993 109 l 970 109 q 967 112 967 109 l 967 121 q 970 124 968 124 l 1005 124 l 1005 143 l 948 143 m 1012 119 l 1012 117 q 1022 94 1018 111 q 1043 88 1028 88 l 1051 88 q 1055 85 1055 87 l 1055 76 q 1051 73 1055 73 l 1043 73 q 1038 83 1038 73 l 1019 83 l 1019 69 q 1038 54 1019 54 l 1057 54 q 1076 73 1076 54 q 1082 79 1078 73 q 1074 100 1076 79 q 1050 109 1067 109 l 1043 109 q 1038 114 1040 109 l 1038 117 q 1044 124 1038 120 l 1050 124 q 1057 112 1054 124 l 1060 114 l 1070 114 l 1074 112 l 1076 116 l 1076 126 q 1055 143 1076 143 l 1038 143 q 1017 121 1017 143 q 1012 119 1014 119 m 278 124 l 279 124 q 285 119 282 124 l 285 78 q 279 73 285 75 l 273 73 q 267 78 270 73 l 267 119 q 278 124 269 124 m 353 124 l 355 124 q 360 119 357 124 l 360 78 q 355 73 360 75 l 348 73 q 343 78 346 73 l 343 119 q 353 124 345 124 m 857 124 l 866 124 q 871 119 868 124 l 871 105 q 866 100 871 103 l 857 100 q 854 104 854 100 l 854 121 q 857 124 854 124 m 426 123 l 436 123 q 439 119 439 122 l 439 78 q 434 73 439 75 l 426 73 q 422 76 422 73 l 422 119 q 426 123 422 123 m 907 62 q 912 54 908 54 l 922 54 q 926 57 926 54 l 926 68 q 921 73 926 70 l 918 73 q 907 62 907 73 m 208 2 q 221 -3 221 -2 q 238 2 235 2 q 256 -8 250 2 l 254 -18 l 281 -77 q 309 -15 290 -66 q 326 2 311 2 q 341 -1 339 -1 q 362 2 353 2 q 374 -5 374 -1 l 374 -14 q 366 -28 366 -22 l 366 -66 q 385 -85 366 -77 l 386 -94 q 369 -111 386 -98 q 366 -121 366 -117 l 366 -149 q 372 -176 372 -175 q 366 -184 372 -179 l 355 -184 q 343 -180 343 -184 q 330 -184 337 -184 l 322 -184 q 311 -176 313 -184 l 311 -172 q 317 -149 317 -151 l 317 -113 l 305 -136 q 296 -139 305 -139 q 283 -137 290 -139 q 269 -139 276 -139 l 267 -139 q 248 -115 256 -139 l 247 -115 l 247 -151 q 254 -172 247 -153 l 254 -176 q 240 -184 252 -184 q 222 -182 232 -184 q 202 -184 214 -184 q 192 -172 192 -184 q 199 -151 192 -170 l 199 -110 q 178 -96 186 -106 q 197 -73 178 -88 l 197 -68 q 199 -28 197 -60 q 190 -8 190 -9 q 208 2 190 1 m 420 2 l 434 -3 q 452 2 448 2 q 469 -10 469 -1 q 467 -20 467 -19 l 494 -77 q 520 -17 502 -73 l 529 -1 q 539 2 529 2 q 555 -1 552 -1 q 574 2 567 2 q 587 -6 583 2 l 587 -14 l 578 -24 l 578 -66 q 597 -85 578 -77 q 600 -92 597 -90 q 582 -111 600 -98 q 578 -121 578 -117 l 578 -153 q 585 -175 585 -173 q 574 -184 583 -184 l 568 -184 q 556 -180 556 -184 q 543 -184 550 -184 l 536 -184 q 524 -176 526 -184 l 524 -173 q 529 -153 524 -169 l 529 -115 l 527 -115 q 510 -139 524 -139 q 496 -137 503 -139 q 482 -139 490 -139 l 481 -139 q 463 -117 467 -139 l 460 -115 l 460 -153 q 467 -168 460 -159 l 467 -176 q 453 -184 465 -184 q 436 -182 445 -184 q 415 -184 427 -184 l 412 -184 q 405 -176 409 -184 l 405 -166 q 412 -151 412 -157 q 410 -144 412 -147 q 412 -125 412 -132 l 412 -110 q 391 -96 404 -110 q 410 -73 391 -87 l 410 -58 q 412 -31 410 -48 q 404 -12 407 -16 l 404 -6 q 420 2 408 2 m 623 2 q 639 -3 636 -3 l 651 2 q 670 -8 662 2 l 668 -17 q 682 -44 679 -44 q 696 -3 694 -20 l 707 2 q 725 -3 711 2 q 742 2 739 2 q 755 -6 755 -3 l 755 -14 q 718 -77 718 -65 q 732 -94 732 -87 q 722 -108 732 -99 q 759 -170 737 -146 l 759 -176 q 744 -185 754 -185 l 728 -184 q 709 -185 716 -185 q 696 -176 701 -185 l 696 -175 q 697 -168 696 -171 q 680 -137 684 -137 l 678 -137 q 667 -159 678 -141 l 665 -166 l 667 -176 q 651 -185 660 -182 q 633 -184 649 -185 q 614 -185 618 -185 q 603 -178 603 -183 l 603 -172 q 641 -106 641 -119 q 630 -92 635 -104 q 646 -79 638 -79 q 604 -12 618 -26 l 604 -8 q 623 2 608 2 m 780 2 l 799 -3 q 811 2 807 2 q 828 -15 828 2 q 838 -43 828 -20 l 840 -43 l 854 -18 l 852 -10 l 852 -8 q 866 2 859 2 q 883 -3 883 -1 q 902 2 899 2 q 916 -12 916 -1 q 876 -77 897 -35 q 892 -91 891 -87 l 892 -96 q 880 -110 880 -107 q 919 -172 904 -154 l 919 -176 q 903 -185 919 -181 q 890 -184 899 -185 q 866 -185 876 -185 q 854 -159 855 -185 q 840 -137 842 -137 l 838 -137 q 825 -165 825 -161 l 825 -176 q 807 -185 825 -182 q 793 -184 795 -184 l 773 -185 q 763 -178 763 -182 l 763 -175 q 789 -132 763 -172 q 800 -106 800 -111 q 790 -91 790 -100 q 804 -80 797 -80 l 804 -79 q 764 -14 785 -35 l 764 -6 q 780 2 764 -2 m 977 2 q 993 -12 993 0 q 986 -33 986 -23 l 986 -54 q 985 -70 986 -61 q 1003 -91 985 -73 l 1003 -92 q 988 -110 1003 -102 l 985 -123 q 986 -147 986 -138 l 986 -155 q 993 -176 993 -174 q 977 -184 986 -184 q 960 -180 960 -184 q 947 -184 954 -184 l 941 -184 q 929 -172 929 -184 q 938 -149 938 -153 l 938 -134 q 921 -92 938 -110 l 921 -91 q 937 -68 937 -77 l 937 -31 q 929 -10 929 -12 l 929 -6 q 947 1 929 -1 q 960 -3 960 0 l 977 2 z "},"":{"ha":922,"x_min":-20,"x_max":850,"o":"m 359 94 q 343 106 351 100 q 88 271 277 123 q 9 388 18 332 q -20 510 -9 429 q 15 703 -7 692 q 167 911 67 799 q 294 982 175 941 q 463 1012 410 1012 q 688 955 555 1010 q 826 873 749 935 q 831 857 831 865 l 831 827 q 850 686 850 738 l 850 640 q 812 608 850 610 q 734 627 781 627 q 601 553 703 627 q 574 486 574 500 q 734 399 623 443 q 812 350 750 384 q 823 307 823 325 q 818 233 818 264 l 818 149 q 823 35 818 121 q 704 -24 823 9 l 694 -71 q 647 -225 671 -131 q 528 -243 647 -238 q 481 -214 524 -243 q 415 -190 459 -201 q 320 -121 320 -137 l 320 -90 q 355 82 320 -56 l 359 94 m 597 42 q 589 26 589 35 q 557 -192 589 9 l 557 -194 q 563 -197 559 -194 q 608 -194 593 -194 q 638 -92 614 -187 q 670 25 663 -21 q 682 24 677 24 q 769 62 769 49 q 764 155 764 135 l 766 171 q 764 206 764 189 l 764 250 q 758 255 764 255 q 639 239 732 239 q 528 317 592 239 q 500 420 500 362 q 533 534 500 475 q 601 621 541 574 q 688 670 685 670 q 728 681 720 681 l 742 681 q 793 675 788 675 q 796 684 796 681 q 774 822 796 761 l 766 822 q 395 597 567 822 q 319 396 358 547 l 319 326 q 357 203 319 264 q 509 73 397 117 q 597 42 559 54 z "},"":{"ha":842,"x_min":0,"x_max":822,"o":"m 415 1009 q 608 949 435 996 q 743 879 743 910 q 773 730 760 861 q 781 686 781 718 l 781 675 q 727 621 781 621 q 635 613 727 616 l 629 605 l 629 602 q 640 594 629 594 l 667 597 q 722 545 722 597 q 741 369 724 369 q 819 320 819 332 l 822 304 q 800 73 822 73 q 461 8 631 49 q 380 0 433 3 q 290 49 361 0 q 46 184 153 109 q 14 233 14 206 q 16 369 14 310 q 14 589 14 474 l 0 732 q 19 936 6 929 q 95 955 30 945 q 274 982 135 965 q 396 1004 309 993 q 415 1009 396 1008 m 374 770 q 391 57 374 57 l 410 57 q 659 106 445 57 q 762 133 762 115 l 770 279 q 765 288 768 288 q 600 266 648 274 q 562 328 562 266 q 556 372 562 333 q 602 412 556 404 q 670 410 643 410 l 673 415 q 667 537 667 500 l 662 540 l 656 540 q 605 534 637 540 q 575 567 575 544 l 575 572 l 578 589 l 567 627 q 722 673 567 673 l 727 681 l 727 684 q 705 833 713 757 l 703 833 q 377 776 654 833 l 374 770 z "}}}
